<?xml version="1.0" encoding="UTF-8"?>
<svg width="150px" height="150px" viewBox="0 0 150 150" version="1.1" xmlns="http://www.w3.org/2000/svg" xmlns:xlink="http://www.w3.org/1999/xlink">
    <!-- Generator: Sketch 46.1 (44463) - http://www.bohemiancoding.com/sketch -->
    <title>logo</title>
    <desc>Created with Sketch.</desc>
    <defs></defs>
    <g id="Page-1" stroke="none" stroke-width="1" fill="none" fill-rule="evenodd">
        <g id="logo" fill-rule="nonzero" fill="#FFFFFF">
            <g transform="translate(2.000000, 1.000000)">
                <path d="M82.2252103,27.4088434 C82.0326679,25.9427488 81.1412309,24.2242204 80.5759776,23.4035638 C77.723973,19.9219601 74.3364131,18.7884837 70.3345983,19.2888962 C66.293681,19.7898037 62.9947204,23.5396799 61.9127208,27.2187758 C67.6419734,30.8028378 76.5108069,31.1102128 82.2252103,27.4088434" id="Fill-2"></path>
                <path d="M57.9599076,29.3946543 L58.1420557,29.6069956 C59.4398614,30.4524005 60.6193698,31.2567233 61.9993401,31.8655337 C69.323874,35.7431118 79.907771,34.7848539 86.1790134,29.5837322 C85.1930373,29.1778585 84.1679591,28.7309025 83.0998186,28.6413132 C77.278007,32.540175 68.0498267,32.6015509 62.028543,29.0145191 C61.3974591,28.8491997 61.0876093,28.2126711 60.3733706,28.2448441 L57.9599076,29.3946543" id="Fill-3"></path>
                <path d="M47.7036793,35.1080679 C48.5708629,35.2847716 49.4820987,35.3035803 50.3200791,34.9650222 C52.6489028,33.4692295 55.1306715,32.2139912 57.5337403,30.9572677 L55.7973933,30.6439531 C52.7741296,31.2532585 50.153275,33.4959577 47.7036793,35.1080679" id="Fill-4"></path>
                <path d="M55.570203,35.8277511 C57.3317934,34.9135456 59.0572512,33.8409504 60.7030194,32.8059727 C60.1095529,32.754001 59.6843756,32.2699223 59.0082496,32.413958 C56.6922951,33.3157896 54.4124733,34.3770005 52.4385416,35.9594126 C53.4626298,36.2187758 54.5713579,36.2420392 55.570203,35.8277511" id="Fill-5"></path>
                <path d="M57.4090085,36.8953968 C60.1654843,37.6665566 62.2666228,35.6906452 64.2341197,34.38492 C61.4400263,33.5345653 59.3760105,35.6693615 57.4090085,36.8953968" id="Fill-6"></path>
                <path d="M61.9899356,37.5457844 C64.3123248,38.2283452 66.2456691,36.6845405 67.817192,35.4104933 C65.4185777,34.6076555 63.754991,36.4736842 61.9899356,37.5457844" id="Fill-7"></path>
                <path d="M44.6126053,37.0636859 C41.7130835,39.339053 38.8556345,41.537205 36.186273,44.1743938 C37.2925259,44.3159545 38.4849035,44.1031182 39.293186,43.3284936 C42.1145027,41.0110544 45.1402409,38.3812903 48.0719353,36.4227026 C46.8473849,36.2786669 45.53968,36.2905461 44.6126053,37.0636859" id="Fill-8"></path>
                <path d="M65.8096023,38.6159051 C66.3624814,38.6673817 67.0732553,38.7609305 67.5929715,38.5347303 C68.2715722,38.3110047 68.6427982,37.6061705 68.5789473,36.8523347 C67.6162349,37.4264972 66.7332123,38.0016499 65.8096023,38.6159051" id="Fill-9"></path>
                <path d="M44.8803827,41.307045 C45.6698565,41.4421712 46.6979047,41.5431447 47.4547103,41.3209042 C49.3766704,40.3314634 51.3506022,38.7490513 53.0404225,37.4774791 C49.6187097,36.336578 47.4829235,39.9750866 44.8803827,41.307045" id="Fill-10"></path>
                <path d="M51.415938,41.2852666 L52.1267117,41.3788153 C54.5713579,41.9054612 56.1621845,39.6815708 57.8901172,38.5297805 L55.9909256,38.4495957 C54.0843095,38.6876752 52.9414287,40.3270086 51.415938,41.2852666" id="Fill-11"></path>
                <path d="M61.2905461,38.7990432 C59.5512291,38.6040259 58.4533905,40.0062696 57.1664741,40.9303746 C59.2537535,41.4891931 61.1019633,40.2210856 62.5952813,38.8653688 C62.1191223,38.9351591 61.7662101,38.76885 61.2905461,38.7990432" id="Fill-12"></path>
                <path d="M66.53671,39.8196667 C64.924105,39.2712424 63.4060385,39.9127208 62.2349448,40.9575978 C63.8401253,41.8623991 65.3334434,40.5472694 66.53671,39.8196667" id="Fill-13"></path>
                <path d="M96.3585216,65.9594126 C95.3359181,65.7000494 94.0688006,65.6738162 93.2996205,66.4494308 C92.2191059,66.9815211 92.9472035,68.7500413 91.354397,68.5475995 C91.0989935,68.6842104 90.2362647,69 90.1442006,69.6315789 C90.894077,69.7266127 91.7211682,69.9419237 92.1824782,70.6249795 C92.8338558,69.7672001 93.7213331,68.9930705 94.8330309,68.8980367 C96.4213825,68.6535225 97.7914535,69.4751692 98.7165485,70.722488 C99.322884,70.1008084 100.038112,69.9973601 100.640488,69.5736678 C100.221251,68.8129022 99.3931696,68.6366935 98.5200462,68.6980697 L98.1072431,67.6195347 C97.8058075,66.8612441 96.984656,66.3682559 96.3585216,65.9594126" id="Fill-14"></path>
                <path d="M104.291866,74.8787328 C104.997195,73.3487873 106.332618,71.9905955 107.509157,70.6680416 C106.644943,70.3334434 105.575318,70.3111697 104.813562,70.7704999 C103.529121,71.6149151 103.220756,73.1131826 103.345983,74.6213496 L101.493318,74.2253754 C101.704669,73.6358687 101.914536,73.0869494 101.92889,72.3737007 C101.69576,72.0910741 101.506682,71.6911402 101.072595,71.6426333 C100.481604,71.5109718 99.8841775,71.6574822 99.5169113,72.1643294 C99.0338228,72.5895067 99.3748556,73.2705825 99.1293516,73.7007096 C98.5764726,73.6111203 97.9810261,73.6764561 97.4712095,73.4284772 C97.7271077,72.5231811 97.707804,71.5718529 97.0490019,70.845735 C96.4213825,70.5947863 95.9150306,70.1483253 95.1616895,70.2116811 C94.446461,70.3547271 93.645108,70.7338722 93.2738821,71.4406865 C92.9863059,71.9480284 93.0516416,72.6226697 93.1199472,73.138921 C92.4453061,73.1656492 91.8840126,73.509652 91.214816,73.3374031 C91.3811252,72.9839961 91.230655,72.585052 91.2380795,72.2286753 C91.0118792,71.6693615 90.6238246,71.2644778 90.0318428,71.1743938 C89.5952813,71.2045867 89.15575,71.3921796 88.9107408,71.7450916 C88.5810922,72.3707309 88.6434581,73.1641642 89.0280483,73.7269428 C88.586042,73.9957102 88.0688006,74.1427156 87.6342188,74.1338064 C87.7713247,73.2646428 87.430787,72.4657647 87.2501236,71.6698565 C86.6373534,70.6670516 85.4147831,70.3646263 84.2238904,70.5368752 C85.4093384,72.5424848 86.5532091,74.6258043 87.2981355,76.8996866 C92.0854644,75.2563934 98.4215477,75.3103448 103.38063,76.7615904 C103.710774,76.1339713 103.963207,75.4662597 104.291866,74.8787328" id="Fill-15"></path>
                <path d="M102.278832,80.2233954 C102.490678,79.5933016 102.860914,78.9280647 102.755486,78.2524337 C98.1903977,76.8897872 92.138921,76.4849035 87.6678765,78.1747236 C87.893582,78.7340374 87.7579608,79.5230159 88.105923,79.9264148 C92.5274707,78.7508661 97.9112358,78.8652039 102.278832,80.2233954" id="Fill-16"></path>
                <path d="M102.141726,82.9922454 C102.38723,82.6017158 102.120442,82.1215971 101.808118,81.8775778 C98.0725952,80.5703679 93.1664741,80.3887148 89.2646428,81.3360833 C88.9839961,81.4890282 88.5434746,81.7172084 88.4573503,82.0716054 C88.3697409,82.4660948 88.5182314,82.9051311 88.9107408,83.1115327 C91.9716219,84.5226861 95.9368091,84.2489687 99.3882198,83.9648573 C100.380135,83.8668535 101.489853,83.8500248 102.141726,82.9922454" id="Fill-17"></path>
                <path d="M44.9452235,70.5467744 C45.4773139,69.7266127 46.4029039,69.0326679 47.3958092,68.8950667 C49.105923,68.5743277 50.4740143,69.4345818 51.4792939,70.6041908 L52.5593135,70.1121926 C52.8800528,69.9206403 53.3557168,69.8909421 53.4047187,69.4563603 C52.9048013,68.7332123 52.0757301,68.5975911 51.2441841,68.5797724 C51.0956937,68.1016334 51.0268934,67.6244845 50.6789309,67.2205906 C49.9859759,66.2558984 48.9678271,65.7193534 47.7789144,65.7342023 C46.8661936,65.8341859 45.9876258,66.1717539 45.5347303,67.0339878 C45.0486718,67.4992575 45.2615081,68.6916352 44.3928395,68.555024 C43.7959083,68.7010394 42.9198152,68.9589176 42.8648738,69.6716713 C43.6979047,69.6098004 44.3611616,70.0983336 44.9452235,70.5467744" id="Fill-18"></path>
                <path d="M60.3525822,70.5131167 C59.4121432,70.0572512 58.1420557,70.1894077 57.3387229,70.7269428 C56.170104,71.6535225 56.1413958,73.0384425 56.1112028,74.4644449 C55.5197161,74.3723809 54.9297147,74.1630093 54.3783203,74.0318428 C54.7049991,73.5240059 54.7995379,72.8122422 54.6946049,72.1762086 C54.4248475,71.8148822 53.9986802,71.3689161 53.4824285,71.3986141 C53.0052796,71.5075071 52.4875432,71.6559972 52.2400595,72.125227 C51.9935655,72.5162514 51.784194,73.0666557 52.0123742,73.506682 C51.4966178,73.5749876 50.7843591,73.5210362 50.3141397,73.3126547 C50.4824285,72.8023428 50.5784523,72.0108892 50.2720672,71.4896881 C49.9721169,70.6913051 49.0683056,70.3557168 48.3194192,70.1809932 C47.6046858,70.2854315 46.8899521,70.3497773 46.4024089,70.9729417 C45.9945553,71.5188913 45.659957,72.3840949 45.9613926,73.1032834 C45.3258537,73.2082164 44.6868503,73.4324369 44.0146841,73.3784855 C44.0265633,72.8251115 44.1592147,72.1539349 43.7726448,71.7104439 C43.4227026,71.4253422 43.0326679,71.1006434 42.5154266,71.2090415 C42.1159874,71.3595116 41.6744761,71.6658967 41.5467744,72.0598911 C41.2572183,72.6865203 41.599241,73.3666063 41.7472365,73.845735 C41.2715722,73.8749382 40.905791,74.3426827 40.3934994,74.1743938 C40.4509158,73.3438376 40.4702195,72.4335918 40.0094045,71.7505363 C39.3976241,70.7076391 38.1344663,70.4834185 36.9806963,70.736842 C38.3265139,72.6662268 39.2714073,74.8242864 40.1371062,76.9808612 C44.9635372,75.339548 51.3040753,75.1955123 56.2240553,76.6442832 C57.1050982,74.2867513 58.4538855,72.2950009 60.3525822,70.5131167" id="Fill-19"></path>
                <path d="M40.7874938,78.0648409 L40.5053622,78.3355883 L40.9453884,80.0075894 C45.3278337,78.7533411 50.8729582,78.7498764 55.2410492,80.0704505 C55.3737007,79.4383764 55.7439366,78.7731398 55.5994059,78.1371062 C51.0749053,76.6551724 45.293186,76.6536874 40.7874938,78.0648409" id="Fill-20"></path>
                <path d="M55.1940273,82.3260189 C54.9297147,81.7271077 54.2204257,81.5533741 53.631414,81.3430128 C50.7902986,80.8084474 47.5492494,80.5025573 44.6878403,80.9579278 C43.4919979,81.3286585 41.4952978,81.1677941 41.3279986,82.5106417 C41.5517241,83.1887478 42.2605181,83.3624814 42.8104274,83.6109553 C46.5593135,84.2836166 50.9115659,84.4538855 54.4594952,83.3807953 C54.8594291,83.1902328 55.2242205,82.8021778 55.1940273,82.3260189" id="Fill-21"></path>
                <path d="M71.9031514,94.6675466 C73.4192378,94.1438708 74.4537206,94.8586042 75.4644449,95.7911234 C76.1277017,97.1913877 76.2420392,96.5004124 77.5799373,95.9732718 C77.2413793,95.0956937 75.890612,94.3141397 75.4976076,94.2072266 C75.1199472,93.3672662 74.9868009,93.107408 74.5225209,92.5040423 C73.6687016,91.6937798 72.9559478,91.7180333 71.9650222,91.737337 C70.4979377,91.8239566 69.8713083,93.3573667 69.5302755,94.5383599 C69.0457021,94.9640322 68.2874112,95.2253754 68.0780399,95.7742947 L69.3293187,96.5528791 C69.9797063,95.7346973 70.8676786,94.9620525 71.9031514,94.6675466" id="Fill-22"></path>
                <path d="M84.7431118,98.0645108 C85.0321729,97.5160865 85.7959083,97.0166638 85.9632074,96.5454546 C85.1747236,96.4509158 84.3431777,96.3930044 83.6630919,96.6959247 C81.9554528,96.9364792 81.4807786,98.7886487 81.1734038,100.207721 L79.3613265,99.7736348 C79.4157731,99.0623659 79.3905297,98.3486224 78.8866522,97.863554 C78.4961228,97.5774626 77.9046361,97.4863883 77.4255074,97.6333937 C76.7449266,97.9759115 76.6112852,98.6861904 76.3212341,99.3133146 C75.8094374,99.1851178 75.1313314,99.4083484 74.6625969,99.1202772 C74.7977231,98.3317934 74.7754497,97.4601551 74.3928395,96.8181817 C73.9270747,96.4132981 73.5380301,96.0470219 72.9039762,96.0341527 C72.2313149,96.0593961 71.5947863,96.2049166 71.1468405,96.7498764 C70.6988945,97.3344334 70.4845734,98.0828247 70.6271241,98.877248 C70.3415278,99.2677777 69.6327338,99.0950338 69.1159874,99.1633394 C68.5715228,98.6772809 68.9858109,97.8135621 68.2819667,97.3626466 C67.9721169,97.0399275 67.337073,97.1057581 66.9386239,97.2166309 C66.537205,97.4458011 66.1729088,97.8333608 66.0061047,98.2659626 C65.7601057,98.6564922 66.0635208,99.336578 65.7408017,99.567728 C63.293186,101.101138 65.1300116,97.5546939 63.7431118,96.6340539 C63.4847386,95.7376671 61.4128031,95.3778253 60.416928,95.6738162 C61.8404554,97.6437882 63.0432271,99.7879888 63.5490842,102.096519 L63.9054612,102.103448 C69.6149151,99.9275697 76.8790628,101.029368 82.5934665,102.415278 C83.2963207,100.965022 83.7264478,99.3504372 84.7431118,98.0645108" id="Fill-23"></path>
                <path d="M81.8480448,103.944234 C76.4915029,102.526151 69.8866522,102.07078 64.5825772,103.820492 C63.5901666,103.91899 64.5226861,104.808942 64.4321068,105.322719 C69.5411647,103.449266 76.0603861,104.179838 81.3431777,105.320739 L81.8480448,103.944234" id="Fill-24"></path>
                <path d="M80.3022604,107.793598 C80.4675796,107.480284 80.4373866,107.00363 80.0844744,106.838311 C79.106418,106.264148 77.9625475,106.041907 76.7756146,105.977066 C73.0940438,105.860254 69.0254084,105.37964 65.7155585,106.45966 C65.3146347,106.68685 64.7934335,106.99373 64.9790464,107.590662 C65.7546609,108.360336 66.8643788,108.344498 67.8884673,108.602376 C71.170599,108.830061 74.6566574,108.862729 77.9066161,108.69345 C78.7807292,108.554364 79.692955,108.493483 80.3022604,107.793598" id="Fill-25"></path>
                <path d="M42.075895,49.8774129 C42.4787989,49.4482759 42.5683879,48.7766046 42.4184128,48.2197658 C42.1897378,47.7015344 41.6373534,47.5342353 41.1230821,47.4862234 C40.6469228,47.5980861 40.1653191,47.9465434 40.0391024,48.4593303 C39.9104109,49.0914041 40.0589011,49.6878403 40.6083154,50.0130341 C41.0800199,50.2575484 41.6744761,50.2278502 42.075895,49.8774129" id="Fill-26"></path>
                <path d="M36.0387726,53.5050321 C37.1836331,53.7609305 38.2220756,53.182808 38.9071111,52.401749 C39.554529,51.5805972 39.5738327,50.3134797 39.1536051,49.3567068 C38.84623,48.7186932 38.1438708,48.0732553 37.4340868,47.9039762 C36.2516086,47.5287905 35.0166638,48.0242534 34.2499587,48.92361 C33.6847054,49.5873618 33.7475663,50.6178848 33.8129022,51.5296156 C34.1539349,52.4853985 35.1324863,53.2535886 36.0387726,53.5050321" id="Fill-27"></path>
                <path d="M27.4411812,56.3011055 C26.4512456,58.7803994 28.5989109,60.7543309 28.9993401,62.9787163 C30.1140077,60.1044383 31.3459825,57.2727272 32.8546445,54.5246659 C33.1055932,53.6970797 32.9219601,52.7828741 32.2587033,52.138921 C31.8696584,51.6974097 31.1974921,51.6474178 30.5639334,51.5974262 C30.1674641,51.6305891 29.847715,51.8241215 29.5645934,52.1760434 C28.7181982,53.1531101 29.0092393,54.7810593 29.3096849,55.8551395 C28.5954462,55.8828577 27.8856625,55.7135785 27.4411812,56.3011055" id="Fill-28"></path>
                <path d="M31.6498928,63.1786834 C33.1263819,62.4491007 35.3383931,62.8010229 36.0412473,60.9498432 C36.3288237,60.2425342 35.7442667,59.6787659 35.6343837,59.0823297 C36.9005115,59.1422209 38.0592312,58.5264807 38.5918166,57.3865699 C38.6027058,56.6743112 38.6952648,55.8432603 38.029038,55.3982842 C37.2514437,54.4746742 35.6660616,54.569213 34.8236265,55.2285101 C32.7249628,57.7701698 31.6474178,60.7632403 30.6104603,63.7563109 L31.6498928,63.1786834" id="Fill-29"></path>
                <path d="M25.6028707,62.3708959 C25.3598417,62.7233131 25.1935323,63.1960073 25.3855799,63.5949512 C25.5781225,63.9547929 25.7696751,64.3532421 26.2433593,64.4794588 C26.7947534,64.6858603 27.2352747,64.3364131 27.6753012,64.0666557 C28.0386074,63.5974262 28.0504866,62.8841775 27.7015344,62.4030688 C27.1976572,61.722488 26.0879394,61.7843591 25.6028707,62.3708959" id="Fill-30"></path>
                <path d="M34.3801352,65.8346809 C34.5449596,65.4411812 34.7122587,64.8501897 34.4410163,64.4497609 C34.1326515,63.9300445 33.4634549,63.6429631 32.828411,63.7513611 C32.2304901,63.9795414 32.0240885,64.5314304 31.9359842,65.1229169 C32.0057746,65.7183634 32.3948192,66.1603697 32.9863059,66.3281638 C33.5777924,66.4563603 34.0569214,66.2262003 34.3801352,65.8346809" id="Fill-31"></path>
                <path d="M26.0211185,66.0202937 C25.4509158,67.0018148 25.1925426,68.3441677 25.6102954,69.459825 C26.1052631,70.6952648 27.3194192,71.5857119 28.6652368,71.646098 C30.0100644,71.7465766 31.1301765,71.0115491 31.8978716,70.0334928 C32.4294672,68.9727768 32.6111203,67.509652 31.9938953,66.4707145 C31.4919979,65.6312491 30.7490513,65.0650058 29.9214651,64.7749547 C28.462795,64.3557168 26.9892757,64.847715 26.0211185,66.0202937" id="Fill-32"></path>
                <path d="M30.3644614,81.9691469 C30.9465434,80.1570698 33.9222902,79.847715 33.4030688,77.5822472 C33.291701,77.1046032 32.8214816,76.8199968 32.4695596,76.5383599 C32.4735193,76.259693 32.7526809,76.1458505 32.954628,75.9112358 C33.4396965,75.2846064 33.8524996,74.2219107 33.3496122,73.4235274 C33.0001649,72.9805314 32.6121103,72.4999174 32.0602212,72.3331133 C31.1930373,72.0826596 30.4342517,72.4657647 29.9090909,73.1310016 C28.6335589,76.1998019 29.8031678,79.9016664 29.9917504,82.9942254 L30.3644614,81.9691469" id="Fill-33"></path>
                <path d="M24.2600231,77.2803168 C23.0245833,80.3105097 26.9734367,81.0460319 28.2440192,83.322884 C28.2583732,82.4116482 28.1588847,81.1821481 27.8965517,80.2283452 C27.4990926,77.8059727 28.0980035,75.0039597 26.9422538,72.9255897 C26.4720343,72.6018809 25.9632074,72.2380795 25.2885661,72.3068801 C24.8099324,72.4964527 24.2125062,72.7251279 23.8883022,73.2354396 C23.4433261,73.7828741 23.5487544,74.6545125 23.7759447,75.2925259 C23.6863553,76.0037948 25.7350272,76.6289392 24.2600231,77.2803168" id="Fill-34"></path>
                <path d="M32.5809273,84.5385251 C32.9392841,84.4261673 33.3783203,84.2351097 33.5827422,83.8421053 C33.8262664,83.4095033 33.7564758,82.8140571 33.4852334,82.4547103 C33.1372711,81.9335092 32.4279822,81.6860255 31.8315459,81.8350107 C31.1539349,82.1404058 31.0628609,82.8917672 31.0905791,83.6050156 C31.3588517,84.2034318 31.9473684,84.5281306 32.5809273,84.5385251" id="Fill-35"></path>
                <path d="M25.5122916,85.7744597 C25.9439037,86.0580763 26.4180829,86.1456856 26.8967166,85.9150306 C27.4560304,85.6071605 27.6253093,84.8963868 27.4768189,84.2613429 C27.322884,83.9816863 27.0511466,83.6213496 26.7358522,83.5362153 C26.3423528,83.4114833 25.9439037,83.523841 25.586537,83.5970961 C25.3049001,83.8698235 24.982676,84.2217455 24.9757466,84.6578123 C25.0490019,85.0532915 25.0806798,85.5309354 25.5122916,85.7744597" id="Fill-36"></path>
                <path d="M30.4129683,91.4750041 C31.7587856,91.5358852 33.07738,90.7637353 33.6901502,89.5862069 C34.1806634,88.6418082 34.0034647,87.2940109 33.5426497,86.3753506 C33.1570698,85.6972446 32.4547103,85.0127041 31.7058242,84.8424352 C30.4045538,84.4261673 29.0127041,84.8384754 28.1262167,85.7759447 C27.202112,86.6327338 27.0189739,88.2136611 27.4367267,89.3689161 C27.9316944,90.6439531 29.1488203,91.2963207 30.4129683,91.4750041" id="Fill-37"></path>
                <path d="M38.7101138,95.2095365 C38.4438211,94.5319254 37.8107572,94.5225209 37.3009403,94.1567397 C37.6286091,93.4494308 37.6068304,92.3793103 37.2613429,91.6611122 C36.5639334,90.7008745 34.937469,90.8335259 34.2910411,91.6937798 C33.8074574,92.1625143 33.7950834,92.9534731 33.9044712,93.5875267 C34.8919321,96.2573832 36.1570698,98.9311994 38.1819832,101.141726 C37.937469,99.0381124 39.1936975,97.2359346 38.7101138,95.2095365" id="Fill-38"></path>
                <path d="M30.2624978,98.521366 C30.0174889,99.0321729 30.2060717,99.6305891 30.5951164,100.032503 C32.4393664,101.129847 34.816202,101.088764 36.7025244,102.029203 C35.7714899,100.786834 34.800858,99.584062 34.109388,98.186273 C33.1036132,96.6652368 32.861079,94.4448111 31.0529616,93.583072 C30.3852501,93.2568882 29.7452565,93.6820658 29.1864379,93.9112358 C28.6622671,94.4972778 28.1366112,95.202112 28.5202111,95.999505 C29.0201288,96.9176703 29.8813727,97.6046858 30.9485234,97.7012043 C30.784194,98.094209 30.3481274,98.1268766 30.2624978,98.521366" id="Fill-39"></path>
                <path d="M40.3049001,102.124732 C40.816202,102.330639 41.4116482,102.260848 41.8140571,101.870319 C42.0966837,101.479294 42.2639828,100.92889 42.0734203,100.450256 C41.7269428,99.8112522 40.9003466,99.4801187 40.2623329,99.7483914 C39.8633888,99.9795414 39.4634549,100.211186 39.4951328,100.725458 C39.4847386,101.360007 39.8742783,101.801023 40.3049001,102.124732" id="Fill-40"></path>
                <path d="M36.5268108,105.629104 C37.0796898,105.756311 37.5221911,105.328659 37.8053128,104.936149 C37.9320245,104.423858 38.0216135,103.713084 37.5533741,103.30919 C37.2004621,103.065171 36.8475498,102.862234 36.3713909,102.934004 C35.9739317,103.006765 35.6526977,103.278997 35.3720508,103.513117 C35.2082164,103.866029 35.0018148,104.37832 35.2740472,104.69906 C35.5042072,105.177693 35.9724467,105.62069 36.5268108,105.629104" id="Fill-41"></path>
                <path d="M42.8812078,109.530935 C43.7191882,109.108728 44.5631084,108.369741 44.8556345,107.38426 C44.9877907,106.554199 44.9234451,105.562779 44.4200627,104.84359 C43.569213,103.561129 41.8734532,103.099819 40.478139,103.712094 C39.4827586,104.051642 38.9105759,105.15245 38.6586372,106.098829 C38.4844085,107.085794 38.9066161,107.92427 39.4095033,108.684046 C40.2648077,109.687345 41.5700378,109.827916 42.8812078,109.530935" id="Fill-42"></path>
                <path d="M50.8571192,111.08167 C52.229665,111.935489 53.5235109,112.748226 54.8198316,113.441181 C53.7348622,111.920145 54.1630093,109.827916 53.1181323,108.3049 C52.4949679,107.62234 51.6668867,107.411978 50.7556509,107.436727 C50.4477809,106.877908 50.4175879,106.243854 49.9909256,105.721663 C49.567728,104.92229 48.7822142,104.514932 47.828906,104.658472 C47.2705825,104.887642 46.709289,105.353902 46.5419898,105.904801 C45.9049662,108.629104 49.0534566,109.905131 50.8571192,111.08167" id="Fill-43"></path>
                <path d="M47.7690149,116.022934 C50.0622009,116.297641 51.7911234,114.62168 53.8105923,114.653853 C52.7909585,114.00396 51.4555354,113.309025 50.2794917,112.538855 C48.5129516,111.560304 46.9924106,110.031843 44.8561292,109.839796 C44.0626959,109.946709 43.46032,110.490678 43.0138592,111.157895 C42.8485398,111.630094 42.7168784,112.419568 43.105923,112.860089 C43.8038278,113.861904 45.1902328,113.805973 46.2984656,113.861904 C46.4029039,114.774625 46.8632239,115.69279 47.7690149,116.022934" id="Fill-44"></path>
                <path d="M58.1484904,113.296156 C58.4306221,112.944729 58.4390366,112.428972 58.3672662,111.953308 C58.1405709,111.235605 57.4332617,110.947038 56.7200133,110.936644 C56.3225541,111.048507 55.924105,111.200957 55.7201782,111.593961 C55.5142716,112.028048 55.4266623,112.578947 55.5786175,113.017984 C55.7711598,113.37733 56.1230821,113.660452 56.4774791,113.824286 C57.1461806,114.07177 57.7054941,113.76489 58.1484904,113.296156" id="Fill-45"></path>
                <path d="M58.0692956,118.324039 C58.6944397,118.84821 59.6427982,119.021449 60.4382115,118.757136 C61.1158225,118.489853 61.7582906,117.945388 62.0864544,117.238574 C62.4948028,116.452071 62.3512621,115.500248 61.9270747,114.739482 C61.3083648,113.780729 60.1303416,113.168949 58.9765716,113.506022 C58.0608811,113.809437 57.2986305,114.430127 57.0461971,115.376506 C56.7507012,116.559974 57.1283616,117.714238 58.0692956,118.324039" id="Fill-46"></path>
                <path d="M52.8275862,116.69609 C52.7399769,117.250454 53.047847,117.809767 53.4774791,118.212176 C53.9115659,118.258703 54.3030853,118.582412 54.7431118,118.310675 C55.2187758,118.278997 55.5429798,117.809273 55.6682066,117.375186 C55.8360007,116.784194 55.6464281,116.226365 55.2573832,115.823462 C54.8663588,115.501238 54.3921796,115.45471 53.8378155,115.446296 C53.3596766,115.636859 52.7973933,116.142221 52.8275862,116.69609" id="Fill-47"></path>
                <path d="M73.8825276,117.826596 C75.982676,115.93087 77.5373702,113.507012 78.8138922,111.197492 C78.2199307,111.14552 77.6655666,111.212836 77.2250453,111.401914 C76.1529452,113.439201 74.7294175,115.230985 73.1861078,117.020294 L73.1816531,117.297476 C73.3345983,117.538525 73.6484078,117.664247 73.8825276,117.826596" id="Fill-48"></path>
                <path d="M67.9745916,111.377165 L66.5124568,111.188088 C67.6380136,114.182148 69.5975911,117.074245 71.8853324,119.418413 C74.6061705,121.892757 77.5334104,123.974097 81.1219272,124.683386 C75.5485892,122.22884 70.0321729,117.123742 67.9745916,111.377165" id="Fill-49"></path>
                <path d="M73.9092558,111.620195 L70.584557,111.550404 L70.5375351,113.807457 C70.9562779,114.568718 71.6937798,115.336908 72.2743771,115.942254 L74.0681407,113.524336 C73.9637024,112.888302 74.1745587,112.219601 73.9092558,111.620195" id="Fill-50"></path>
                <path d="M70.476159,119.735192 C67.8543144,121.979376 64.7662101,123.814717 61.7365122,124.780894 C65.3121597,124.223066 68.5497441,122.824781 71.3715558,120.468734 C71.0998186,120.223726 70.8691636,119.862894 70.476159,119.735192" id="Fill-51"></path>
                <path d="M75.4481109,127.059231 C73.5989109,126.46527 73.9587527,124.454216 73.9122258,122.868834 C73.3271738,122.45999 72.7406368,122.052137 72.1536051,121.722983 L70.7043392,122.84062 L70.6617721,124.859594 C70.444481,125.805973 69.6767859,126.542485 68.952648,127.042402 C70.8721334,128.07243 73.6865203,127.933344 75.4481109,127.059231" id="Fill-52"></path>
                <path d="M102.260518,49.8274213 C101.857614,49.3982842 101.76753,48.7261179 101.917505,48.1692789 C102.14717,47.6510478 102.699555,47.4837486 103.212836,47.4362317 C103.68949,47.5475995 104.170599,47.8960567 104.297311,48.4093384 C104.425012,49.0409172 104.277017,49.6373534 103.728098,49.9625475 C103.256888,50.2070615 102.661442,50.1778585 102.260518,49.8274213" id="Fill-53"></path>
                <path d="M108.297641,53.4550404 C107.152285,53.7109389 106.114338,53.1328164 105.428807,52.3512621 C104.781884,51.5301106 104.76159,50.2634878 105.182313,49.3062202 C105.489688,48.6682066 106.192048,48.0227684 106.901831,47.8534896 C108.084309,47.4787989 109.320244,47.9742616 110.085959,48.8731234 C110.651708,49.5373702 110.588352,50.5678932 110.523016,51.4796237 C110.181983,52.4349116 109.203432,53.2031017 108.297641,53.4550404" id="Fill-54"></path>
                <path d="M116.895232,56.2506186 C117.885167,58.7299125 115.737007,60.7038442 115.336578,62.9287247 C114.221911,60.0544464 112.989936,57.2222405 111.481769,54.4741792 C111.23082,53.647088 111.414453,52.7328822 112.077215,52.0884341 C112.46725,51.6474178 113.138426,51.5969312 113.77149,51.5469396 C114.168949,51.5805972 114.487708,51.7736348 114.771325,52.1255568 C115.61772,53.1026234 115.326184,54.7305724 115.026233,55.8046526 C115.739977,55.8328658 116.450256,55.6635869 116.895232,56.2506186" id="Fill-55"></path>
                <path d="M112.686026,63.1277017 C111.209536,62.3986141 108.997525,62.7510313 108.295166,60.8998516 C108.0066,60.1920476 108.591652,59.6287741 108.701534,59.0318428 C107.435407,59.092229 106.276687,58.4759941 105.744597,57.336578 C105.733212,56.6238246 105.641148,55.7932684 106.30787,55.3477973 C107.084969,54.4246823 108.670351,54.5187264 109.512292,55.1780234 C111.610955,57.7196832 112.688005,60.7127537 113.724963,63.7058242 L112.686026,63.1277017" id="Fill-56"></path>
                <path d="M118.732552,62.3204092 C118.976077,62.6723312 119.142386,63.1455204 118.950338,63.5449596 C118.757796,63.9033163 118.565748,64.3032502 118.092559,64.4294672 C117.54166,64.6358687 117.101138,64.2864215 116.661112,64.0166638 C116.297311,63.5474343 116.285926,62.8336909 116.633889,62.3535719 C117.139251,61.6720014 118.248474,61.7338722 118.732552,62.3204092" id="Fill-57"></path>
                <path d="M109.955783,65.784194 C109.791949,65.3916846 109.624154,64.8001981 109.894902,64.399769 C110.203267,63.8800528 110.872463,63.5924765 111.507507,63.7018645 C112.104933,63.9300445 112.31183,64.4804488 112.400429,65.0729253 C112.330144,65.6683715 111.942089,66.1098828 111.349612,66.2776769 C110.758126,66.4063686 110.278997,66.1757136 109.955783,65.784194" id="Fill-58"></path>
                <path d="M118.315295,65.9698071 C118.884508,66.9513282 119.143376,68.293681 118.726118,69.4093384 C118.23016,70.6442832 117.016994,71.5352253 115.671176,71.5956114 C114.326349,71.6960897 113.205742,70.9610625 112.438542,69.9830061 C111.906451,68.9222902 111.724798,67.4596601 112.341528,66.4207226 C112.844415,65.5812572 113.586867,65.0145191 114.415443,64.724468 C115.873123,64.3057252 117.346642,64.7977231 118.315295,65.9698071" id="Fill-59"></path>
                <path d="M113.971457,81.9191553 C113.38888,80.1070779 110.414123,79.7972281 110.932849,77.5312655 C111.044217,77.0546116 111.514932,76.7695099 111.865864,76.4873783 C111.862399,76.2097014 111.583732,76.0963536 111.38129,75.8612441 C110.896222,75.2346147 110.483419,74.1714238 110.986801,73.3720508 C111.335258,72.9315295 111.724798,72.4499258 112.275202,72.2836166 C113.142881,72.0321729 113.902161,72.4157731 114.426827,73.0805147 C115.701864,76.1493153 114.53275,79.8511797 114.343673,82.9437385 L113.971457,81.9191553" id="Fill-60"></path>
                <path d="M120.07639,77.2293352 C121.311335,80.2600231 117.363471,80.9950503 116.091404,83.2714073 C116.07804,82.3616566 116.176538,81.1331465 116.439861,80.1778585 C116.837321,77.7559808 116.237915,74.9529781 117.393664,72.8755981 C117.863884,72.5513941 118.373206,72.1875928 119.047847,72.2554034 C119.525491,72.446461 120.123907,72.6741463 120.447616,73.1844579 C120.892592,73.7318925 120.787164,74.6040259 120.559974,75.2420392 C120.650058,75.9533079 118.600891,76.5799373 120.07639,77.2293352" id="Fill-61"></path>
                <path d="M111.754991,84.4880382 C111.396634,84.3756807 110.957103,84.1841281 110.754166,83.7926084 C110.509652,83.3605016 110.579442,82.7650552 110.851675,82.4037287 C111.199637,81.8840126 111.907441,81.6350436 112.504867,81.7850191 C113.182973,82.0899191 113.273552,82.8407853 113.244844,83.555519 C112.977066,84.1539349 112.389045,84.478139 111.754991,84.4880382" id="Fill-62"></path>
                <path d="M118.823626,85.7249628 C118.392014,86.0075894 117.917835,86.094209 117.439201,85.8645437 C116.879888,85.5556839 116.710114,84.8473849 116.859099,84.2123413 C117.013034,83.9311994 117.284772,83.5703679 117.599571,83.4862234 C117.993566,83.3605016 118.392014,83.4733541 118.749381,83.5471045 C119.031513,83.8193366 119.353242,84.1717539 119.360172,84.6063357 C119.287906,85.0037948 119.255733,85.4804488 118.823626,85.7249628" id="Fill-63"></path>
                <path d="M113.923445,91.4255074 C112.577628,91.4849035 111.259033,90.7137437 110.646263,89.5357203 C110.155255,88.5923116 110.333443,87.2430292 110.793268,86.324864 C111.178848,85.6457679 111.880713,84.9622174 112.630094,84.7929385 C113.93087,84.3756807 115.323214,84.7894738 116.210691,85.7254578 C117.134796,86.5827422 117.317439,88.1631745 116.899687,89.3179342 C116.404719,90.5934665 115.186603,91.2468241 113.923445,91.4255074" id="Fill-64"></path>
                <path d="M105.625804,95.1585546 C105.891602,94.4809438 106.524666,94.4710443 107.034978,94.1067481 C106.706814,93.3999339 106.729583,92.3298134 107.07507,91.6116153 C107.772975,90.6493978 109.397954,90.7835341 110.044877,91.6432932 C110.527966,92.1115327 110.541825,92.9029862 110.432437,93.5380301 C109.443986,96.2073916 108.178848,98.8807128 106.15344,101.092229 C106.397954,98.9886158 105.143211,97.1864379 105.625804,95.1585546" id="Fill-65"></path>
                <path d="M114.072925,98.4708794 C114.319419,98.982676 114.130342,99.5805972 113.740307,99.9815211 C111.896057,101.080845 109.519716,101.039267 107.634384,101.978716 C108.564428,100.735357 109.53506,99.5330803 110.22653,98.1347961 C111.2328,96.6142552 111.474344,94.3948192 113.283451,93.5335753 C113.950173,93.2064016 114.591157,93.6310839 115.148985,93.8602541 C115.673651,94.4458011 116.199307,95.1516251 115.816202,95.9490184 C115.315295,96.8676786 114.45504,97.5546939 113.38789,97.6507177 C113.552219,98.0442171 113.987791,98.07639 114.072925,98.4708794" id="Fill-66"></path>
                <path d="M104.030523,102.074245 C103.519716,102.279657 102.92427,102.210361 102.522356,101.821317 C102.239234,101.429797 102.072925,100.878403 102.262498,100.399274 C102.60848,99.7612606 103.435077,99.4306221 104.07309,99.6974097 C104.473519,99.9285597 104.872463,100.160699 104.840785,100.675466 C104.850685,101.30952 104.46164,101.750536 104.030523,102.074245" id="Fill-67"></path>
                <path d="M107.808612,105.579112 C107.256723,105.706319 106.814222,105.277182 106.530606,104.886158 C106.403894,104.373371 106.314305,103.662597 106.783039,103.259693 C107.135456,103.015179 107.488863,102.813232 107.964527,102.883518 C108.361491,102.956278 108.683715,103.228015 108.964362,103.46263 C109.127207,103.815542 109.334103,104.326844 109.061376,104.649068 C108.832206,105.127207 108.363471,105.570203 107.808612,105.579112" id="Fill-68"></path>
                <path d="M101.45471,109.480449 C100.616235,109.059231 99.7728097,108.320244 99.4802839,107.333278 C99.3476324,106.503217 99.4124733,105.513282 99.9158554,104.793103 C100.7672,103.512127 102.463455,103.049332 103.857779,103.661112 C104.853654,104.002145 105.425837,105.101468 105.677281,106.049827 C105.852005,107.035803 105.429797,107.872793 104.92691,108.634549 C104.07111,109.638343 102.76588,109.777924 101.45471,109.480449" id="Fill-69"></path>
                <path d="M93.4797889,111.031183 C92.1067481,111.885497 90.8124072,112.697245 89.5170765,113.39218 C90.6005609,111.869658 90.1734038,109.777429 91.2177858,108.255898 C91.8414454,107.573338 92.6695264,107.360997 93.5802672,107.385745 C93.8886322,106.826926 93.9188252,106.193367 94.3459825,105.671671 C94.7681901,104.873288 95.5537041,104.46494 96.5075071,104.607986 C97.0653359,104.836661 97.6271241,105.30391 97.7944233,105.855304 C98.4309519,108.577628 95.2829567,109.854644 93.4797889,111.031183" id="Fill-70"></path>
                <path d="M96.5669032,115.972942 C94.2742122,116.246659 92.5447947,114.571193 90.5263158,114.603366 C91.5444646,113.952483 92.8813727,113.258538 94.0574164,112.488368 C95.8229666,111.510312 97.3440028,109.981356 99.4792939,109.788814 C100.273717,109.895232 100.876093,110.439696 101.322059,111.106418 C101.488368,111.580102 101.618545,112.368586 101.229995,112.811087 C100.53308,113.812407 99.1456856,113.754496 98.0369575,113.812407 C97.9325195,114.723643 97.4721992,115.642798 96.5669032,115.972942" id="Fill-71"></path>
                <path d="M86.1874279,113.246164 C85.905296,112.894242 85.8968818,112.37898 85.9691469,111.902326 C86.1958422,111.185613 86.9036464,110.897047 87.6154101,110.887147 C88.0133642,110.999505 88.4118131,111.150965 88.6162349,111.543475 C88.8221415,111.977561 88.9097508,112.528956 88.7582906,112.967992 C88.5647583,113.327834 88.213826,113.60947 87.8584393,113.7738 C87.1902328,114.021284 86.631414,113.713909 86.1874279,113.246164" id="Fill-72"></path>
                <path d="M86.2661278,118.273552 C85.6414784,118.799208 84.6941099,118.971952 83.8977066,118.706154 C83.2205906,118.440356 82.5771325,117.895892 82.2489687,117.188583 C81.8416103,116.402079 81.984656,115.449266 82.4098334,114.69048 C83.028543,113.731233 84.2060717,113.118957 85.3593467,113.45603 C86.2745422,113.758456 87.0372876,114.380135 87.2897213,115.327009 C87.5847219,116.509982 87.2085465,117.664247 86.2661278,118.273552" id="Fill-73"></path>
                <path d="M91.5083319,116.647088 C91.5954462,117.199967 91.2885661,117.759281 90.8594291,118.161194 C90.4238575,118.207721 90.0333278,118.530935 89.5923116,118.260683 C89.1176373,118.2295 88.7939283,117.758786 88.6682066,117.324699 C88.5004124,116.734697 88.6899853,116.177364 89.0780399,115.773965 C89.4705493,115.450751 89.9432438,115.404224 90.4981026,115.395314 C90.9767366,115.585877 91.5395148,116.092229 91.5083319,116.647088" id="Fill-74"></path>
                <path d="M96.4728591,35.0966837 C95.6046858,35.2728923 94.693945,35.292691 93.8559643,34.953638 C91.5261509,33.4578453 89.045372,32.2026067 86.6427982,30.9458834 L88.3781554,30.6325689 C91.4009239,31.2418743 94.0227684,33.4840784 96.4728591,35.0966837" id="Fill-75"></path>
                <path d="M88.6053457,35.8158719 C86.84425,34.9021614 85.1173075,33.8295662 83.4735193,32.7945884 C84.0650058,32.7421218 84.4911731,32.2585381 85.1672991,32.4030688 C87.4842436,33.3049001 89.7635704,34.3656163 91.7370072,35.9480284 C90.7129186,36.2068966 89.6041908,36.23016 88.6053457,35.8158719" id="Fill-76"></path>
                <path d="M86.7665402,36.8835176 C84.0110544,37.6551724 81.9089259,35.6792609 79.9414287,34.3735358 C82.7355222,33.5226861 84.8000329,35.6579772 86.7665402,36.8835176" id="Fill-77"></path>
                <path d="M82.1861078,37.5344002 C79.8632239,38.2174559 77.9298796,36.6736513 76.3588517,35.3986141 C78.7574658,34.5962713 80.4210527,36.4623 82.1861078,37.5344002" id="Fill-78"></path>
                <path d="M99.5634384,37.0518067 C102.461475,39.3276688 105.320409,41.5258208 107.989276,44.1630093 C106.883518,44.3045703 105.690645,44.091734 104.882363,43.3166144 C102.061541,41.0001649 99.0362976,38.3694109 96.1031182,36.4113184 C97.3286585,36.2667877 98.6358687,36.2791619 99.5634384,37.0518067" id="Fill-79"></path>
                <path d="M78.3669361,38.6045206 C77.8130671,38.6555025 77.1013034,38.7500413 76.5820822,38.523346 C75.9054612,38.3001155 75.5332453,37.5947863 75.5966011,36.8404554 C76.5588188,37.4156079 77.4423361,37.9907607 78.3669361,38.6045206" id="Fill-80"></path>
                <path d="M99.2956608,41.2951658 C98.506682,41.430787 97.479129,41.5312655 96.7218281,41.3100147 C94.799868,40.3200791 92.8264313,38.7376671 91.1356212,37.4660948 C94.5568388,36.3246988 96.6931199,39.9637024 99.2956608,41.2951658" id="Fill-81"></path>
                <path d="M92.7606007,41.2733873 L92.047847,41.3679261 C89.6041908,41.893582 88.0133642,39.6701866 86.2864215,38.5179013 L88.1851178,38.4382115 C90.091239,38.6757959 91.2346147,40.3156244 92.7606007,41.2733873" id="Fill-82"></path>
                <path d="M82.8859923,38.7871637 C84.6233296,38.5926414 85.7236429,39.9948853 87.0105594,40.9194853 C84.9222902,41.4778089 83.0735852,40.2092064 81.5792774,38.8544796 C82.0569214,38.9232799 82.4098334,38.7574658 82.8859923,38.7871637" id="Fill-83"></path>
                <path d="M77.6388384,39.8082825 C79.2514437,39.2598582 80.7704999,39.9008416 81.9406039,40.9457185 C80.3349281,41.8510146 78.8435901,40.5358852 77.6388384,39.8082825" id="Fill-84"></path>
                <path d="M69.8544796,74.0679755 C68.8358358,73.5324204 67.8206567,72.8374857 66.7609305,72.3801352 C62.9783865,75.23115 61.4207226,79.6348787 61.9542979,84.3989441 C62.3967992,87.8528297 64.7741296,91.5873618 68.1928724,92.8470548 C68.2111864,92.0155089 68.739812,91.3522521 68.7957434,90.6018809 C66.3704009,89.1248969 65.1181323,86.5253258 64.817192,83.8648738 C64.4276523,79.7769344 66.5574987,76.4156079 69.8544796,74.0679755" id="Fill-85"></path>
                <path d="M74.2517735,89.1709288 L74.3507673,76.8165318 C73.1484904,75.6419734 71.5789473,74.9361491 70.0895891,74.1917175 L70.2915361,89.1283616 C71.4878733,88.7180333 73.0316779,88.7898036 74.2517735,89.1709288" id="Fill-86"></path>
                <path d="M79.1539349,48.4746742 C79.3771654,48.1955123 79.5875267,47.9802013 79.7691801,47.9158554 C81.1763735,47.7569708 81.8490348,48.2039268 82.8661936,48.5256559 C81.7396468,49.0607159 80.3284936,49.2304901 79.1539349,48.4746742 Z M79.7568059,65.7658803 C77.9818512,66.9637024 76.3737007,67.844745 74.4443161,68.7564758 L74.368091,68.6792609 L74.6477479,42.3840949 L74.5428147,35.6262993 C72.9505031,35.8703185 71.3591816,35.7158884 69.7277676,35.644118 L69.5659132,35.7183634 L69.5426497,42.9132155 L69.8792278,66.2776769 L69.9519881,66.7147334 C72.6000661,67.6853653 75.0298631,69.247484 77.4294672,70.7299125 C79.800363,69.5068472 82.2945059,68.1694441 84.4748391,66.5419898 C88.0752351,63.8295662 90.4228675,59.9420889 89.7655502,55.2750372 C89.5037122,52.5235109 87.0808447,50.4431612 84.8411153,49.1606995 C85.4083484,48.6988945 86.048342,48.4340868 86.5784523,47.9277347 L86.5824121,47.76885 C83.952648,48.109388 81.7871637,46.8333608 79.3172743,47.0209536 C78.6797557,47.0852995 78.30853,47.6743112 78.1001484,48.1866028 C77.4215477,48.2549084 76.7409669,48.2796569 76.2197658,48.6672166 C75.5282958,49.2478138 75.2733873,49.9986802 75.2585381,50.8336909 C76.0603861,50.5713579 76.9736016,50.5505692 77.8046526,50.8069627 C78.2738821,51.1742286 78.8223066,51.6637518 78.8480448,52.3418578 C78.875763,52.8576142 78.6258043,53.2511136 78.2258704,53.5589837 C77.9788815,53.8361656 77.3032502,53.7421218 77.4165979,54.1806634 C78.0021449,54.7508661 78.8267614,55.1235771 79.6696916,54.8261012 C80.3913545,54.5632733 80.9229501,53.8960567 81.1338064,53.184788 C81.8198316,52.9605675 82.3999339,53.4901831 83.0765549,53.6233296 C84.6891602,54.4939779 85.5291206,56.2610131 85.5731728,58.0082496 C85.5746578,61.5913216 82.5390201,64.0735852 79.7568059,65.7658803 L79.7568059,65.7658803 Z" id="Fill-87"></path>
                <path d="M61.2657977,48.5504043 C62.3007754,48.2950009 63.3773303,47.6762909 64.5256559,47.9430786 L65.0037948,48.4731892 C63.3154595,49.1884177 62.4037287,49.0938789 61.2657977,48.5504043 Z M66.3901996,50.6866854 C67.0742451,50.3040753 68.1453555,50.5273058 68.8576142,50.7411318 C68.9085959,49.9848209 68.5700378,49.3002804 68.1017984,48.7756146 C67.4801187,47.9277347 66.0749053,48.6117802 65.6997196,47.5713579 C65.276027,46.9234451 64.5212011,46.828411 63.7247978,46.8506847 C61.7256229,47.3649564 59.721498,47.9222902 57.4995876,47.877248 C57.9643623,48.447451 58.7122587,48.7756146 59.2591983,49.2671178 C58.9740966,49.4977728 58.6147499,49.6096353 58.3345983,49.8051476 C55.4345818,51.4939779 54.0184789,54.5271409 54.4248475,57.8780728 C55.3316285,65.6946049 63.785679,68.6569872 69.4065335,71.9559478 C73.1776934,74.182808 78.2649728,76.3977892 79.2360997,81.2732222 C80.1136776,84.7894738 79.1603697,88.6695264 76.247484,90.9542979 C76.6330639,91.6413132 76.9330145,92.3649564 77.1978222,93.0866193 C78.767365,92.0823297 80.4735193,90.6053457 81.2243854,88.8739482 C83.3304736,85.1770334 82.6880053,79.7140735 80.492328,76.2839465 C75.5768024,69.7766046 67.5291206,68.5362153 61.6281141,63.5964362 C59.7120938,61.7645604 58.1697739,59.4268272 58.907771,56.6569872 C59.2953307,55.0354728 60.6000661,53.5094868 62.2804817,53.186273 C63.5644282,52.5774626 63.1313314,54.2786669 64.0400924,54.5761425 C64.5900017,54.8261012 65.4274872,54.9255897 66.0263984,54.6969147 C66.3496122,54.5093219 66.7139086,54.2752022 66.7990432,53.8386406 L66.3649564,53.7109389 C65.8922619,53.4218775 65.2270253,53.0095694 65.2814717,52.3369081 C65.2958257,51.6602871 65.8249463,51.0341527 66.3901996,50.6866854 L66.3901996,50.6866854 Z" id="Fill-88"></path>
                <path d="M2.37403078,66.8963868 L3.2382444,68.4936478 C2.72050828,68.7658803 2.37898026,69.0311829 2.21465112,69.2895561 C2.02804828,69.5578288 1.92558974,69.9092558 1.90925578,70.3443326 C1.88747733,70.8788979 2.02260353,71.3283287 2.31116966,71.6926249 C2.59528129,72.0564264 2.9625475,72.247484 3.41445302,72.2648077 C4.03712267,72.2895561 4.55634379,71.8465601 4.9726119,70.9358191 L5.54281466,69.6850355 C6.00115491,68.6663917 6.54165974,67.9293846 7.1643294,67.4740143 C7.78600879,67.0186438 8.53489517,66.8082825 9.41049328,66.8424352 C10.583567,66.8884673 11.5378649,67.3171094 12.2733873,68.1283616 C13.0138592,68.9460486 13.3613265,69.938459 13.3157896,71.1060882 C13.2727272,72.2128363 12.9084309,73.1141726 12.2238904,73.8100973 C11.5403399,74.4946378 10.5999009,74.9019965 9.40405879,75.0321729 L9.05015681,73.0656657 C9.80250793,73.0067646 10.3261838,72.8731234 10.6211847,72.6637518 C11.1879227,72.2885661 11.4853985,71.7208381 11.5146015,70.9610625 C11.5378649,70.3606666 11.3562118,69.8548094 10.9701369,69.4425013 C10.583567,69.0306879 10.0816696,68.8119122 9.46592966,68.7881537 C9.21745595,68.7782545 8.98927569,68.8044877 8.7794094,68.8648738 C8.57053284,68.9252599 8.37650552,69.0247484 8.19732716,69.1638344 C8.01864379,69.3029203 7.84886991,69.4850684 7.68800526,69.7102787 C7.5276356,69.9354892 7.37221569,70.2052466 7.22224052,70.5185612 L6.66243198,71.7277676 C5.85662422,73.4428311 4.74294664,74.2723973 3.32238897,74.2169609 C2.36413129,74.1803333 1.5776275,73.7828741 0.961392586,73.0270583 C0.340207931,72.2712424 0.0511465517,71.3476324 0.0937139655,70.2567233 C0.150635086,68.786669 0.910410948,67.6670516 2.37403078,66.8963868" id="Fill-89"></path>
                <polyline id="Fill-90" points="3.71093888 58.2978057 14.4438211 60.4905132 14.0592312 62.3723809 3.32634871 60.1796734 2.73882198 63.0539514 0.966837069 62.6921299 2.52400595 55.0691304 4.2969806 55.4309519 3.71093888 58.2978057"></polyline>
                <path d="M9.96089759,52.1003134 C11.2582083,52.6472529 12.5089918,52.6611122 13.7142384,52.1409008 C14.9170103,51.6256394 15.7574658,50.8000329 16.2380795,49.6630919 C16.7568059,48.4296321 16.7706648,47.2095365 16.2766869,46.0023098 C15.7723147,44.7916184 14.9011714,43.9249298 13.6642468,43.4032337 C12.4124733,42.8751031 11.1864379,42.8513447 9.98663578,43.3314634 C8.78386414,43.8051476 7.92361,44.6559972 7.40537862,45.8840126 C6.88962224,47.1075729 6.87972276,48.3197493 7.37568069,49.5215312 C7.86173888,50.7193534 8.72347802,51.5786175 9.96089759,52.1003134 Z M9.18676776,53.8812078 C7.53159534,53.182808 6.36545112,51.9770664 5.68883034,50.2624978 C5.01022931,48.5538691 5.02854302,46.8511797 5.74377172,45.1559149 C6.45009069,43.4809438 7.65533733,42.2974756 9.35852164,41.6050156 C11.0646757,40.9076061 12.7574658,40.9135456 14.4378816,41.6223396 C16.1286917,42.3355883 17.3081999,43.5442997 17.9769015,45.2494637 C18.6480778,46.9615575 18.6223396,48.675136 17.8991916,50.3906946 C17.2587033,51.908266 16.1588847,53.0496618 14.5972613,53.8138922 C12.8737833,54.6533576 11.0706154,54.676126 9.18676776,53.8812078 L9.18676776,53.8812078 Z" id="Fill-91"></path>
                <path d="M17.368586,27.4915029 L19.215806,28.8239566 C17.8091073,29.1823133 16.7573009,29.8440851 16.0608811,30.8097672 C15.293186,31.8739482 15.0288731,33.0460319 15.2694276,34.3265139 C15.5015673,35.6089753 16.1677941,36.6469228 17.2690975,37.4413464 C18.3570369,38.2258704 19.5395148,38.521366 20.8155421,38.3273387 C22.0920641,38.1338064 23.1141726,37.5042072 23.8818677,36.4405213 C24.2783368,35.890612 24.5253258,35.3590166 24.6243193,34.84524 C24.6891602,34.5665731 24.7297476,34.2567233 24.7436066,33.9166805 C24.7574658,33.5771325 24.7490513,33.2024418 24.7178684,32.7926084 L26.6056755,34.154265 C26.4680746,35.414453 26.0443822,36.5355551 25.3350933,37.5195512 C24.2679426,38.999505 22.8404554,39.8894571 21.0516416,40.1899027 C19.2549084,40.4834185 17.6215145,40.0988286 16.1489854,39.0371227 C14.828906,38.0852995 13.9671672,36.798878 13.5647583,35.1783535 C13.0727603,33.1915526 13.4410163,31.3468076 14.6700214,29.6431283 C15.3407029,28.7140735 16.2400595,27.9958753 17.368586,27.4915029" id="Fill-92"></path>
                <polyline id="Fill-93" points="25.8548094 25.0626959 26.1265468 17.953968 28.0341527 16.230985 27.6272893 24.3855799 36.6159051 25.6789309 34.7033492 27.4078534 27.4857284 26.2758621 27.4580102 26.8361656 30.998515 30.7548259 29.5725128 32.0432271 21.0160039 22.5730078 22.4415113 21.2846065 25.8548094 25.0626959"></polyline>
                <polyline id="Fill-94" points="36.785184 16.3804653 41.5720178 13.6472529 39.0971787 9.31133478 40.7662101 8.35901666 47.0904141 19.4378815 45.4218775 20.3906946 42.4703844 15.2202607 37.6830555 17.9529781 40.6345489 23.123412 38.9655172 24.0757301 32.6413132 12.9973602 34.3098498 12.0445471 36.785184 16.3804653"></polyline>
                <path d="M49.1405709,11.6134301 C49.5439696,12.9666722 50.3304736,13.9442336 51.4995876,14.5456195 C52.6642468,15.1479954 53.8383105,15.2727273 55.0232634,14.9198152 C56.3086949,14.5372051 57.2600231,13.7700049 57.8787328,12.6177198 C58.4934829,11.4555354 58.6088104,10.2299951 58.2242205,8.93961393 C57.8351756,7.63388878 57.0729253,6.6691965 55.9369742,6.04652697 C54.8049827,5.41643294 53.598746,5.29269098 52.3192543,5.67381621 C51.0442171,6.05345653 50.1008084,6.81917175 49.4870484,7.96848706 C48.8718033,9.10839797 48.7554858,10.323049 49.1405709,11.6134301 Z M47.2750372,12.1475004 C46.7617556,10.4250124 46.9518232,8.75746578 47.84722,7.14436562 C48.7356871,5.53374031 50.0626959,4.46411483 51.8277511,3.93845899 C53.5715228,3.41824782 55.2524337,3.59643623 56.8714734,4.47153936 C58.4954627,5.34565254 59.5685531,6.65632733 60.0897542,8.40504866 C60.6139251,10.1651543 60.429797,11.8445801 59.5383599,13.445306 C58.6419734,15.0529616 57.3011055,16.123082 55.5152614,16.6551724 C53.9348293,17.1263818 52.353407,17.0021449 50.7690149,16.2834516 C49.0237584,15.4865534 47.8586042,14.108068 47.2750372,12.1475004 L47.2750372,12.1475004 Z" id="Fill-95"></path>
                <polyline id="Fill-96" points="65.261673 1.54479459 66.3006105 12.4474509 70.0371227 12.0910741 70.2088766 13.8932519 64.5558488 14.4322719 63.3451577 1.72694275 65.261673 1.54479459"></polyline>
                <polyline id="Fill-97" points="73.1376009 13.5447946 77.5843921 0.285101467 80.6393334 10.6918 86.4284772 1.44431612 87.0387726 15.3667712 85.0806798 15.1098829 84.8594291 7.31017984 80.0374525 15.0356377 77.4754991 6.33459825 75.1135127 13.8036628 73.1376009 13.5447946"></polyline>
                <path d="M107.112193,12.0900842 L105.302095,12.2247154 C105.264973,11.6406534 105.162514,11.2209206 104.99472,10.9650223 C104.826431,10.6848705 104.546774,10.4477809 104.157235,10.2547434 C103.677611,10.0166639 103.213826,9.95578288 102.762416,10.0706154 C102.313974,10.1814882 101.988781,10.4388715 101.787329,10.8447451 C101.509652,11.4035638 101.702194,12.0589012 102.362976,12.8122422 L103.271737,13.8447451 C104.014189,14.6817357 104.46461,15.476654 104.625969,16.23148 C104.787824,16.9858109 104.672496,17.7564758 104.282957,18.5429797 C103.760766,19.5957763 102.979706,20.292691 101.939779,20.6332288 C100.891437,20.9762416 99.8435901,20.8876423 98.7977231,20.368421 C97.8048178,19.876423 97.1316615,19.1750536 96.7772645,18.2653028 C96.432272,17.3605016 96.4456359,16.3359182 96.8158719,15.1910576 L98.7551559,15.6726613 C98.5007425,16.3834351 98.4081834,16.9165154 98.4784688,17.2704174 C98.5893418,17.9406039 98.9853159,18.4449761 99.6668867,18.7825441 C100.205412,19.0493318 100.740967,19.0909091 101.275532,18.9067811 C101.810097,18.722653 102.213991,18.354397 102.487708,17.8010229 C102.599076,17.5792773 102.668371,17.3600066 102.698565,17.1442006 C102.728263,16.9283946 102.715888,16.7101138 102.662927,16.4893582 C102.60848,16.2686026 102.510972,16.0389375 102.371391,15.800363 C102.23082,15.5612935 102.046692,15.3093549 101.821977,15.0430622 L100.944399,14.0358027 C99.7035144,12.5959413 99.4000991,11.2397294 100.031678,9.96568223 C100.45834,9.10641809 101.142881,8.55106417 102.088269,8.29962052 C103.035143,8.04372215 103.996865,8.15756475 104.974427,8.64263322 C106.292526,9.29648573 107.00429,10.445306 107.112193,12.0900842" id="Fill-98"></path>
                <path d="M119.528956,19.3299785 L118.15839,21.1435407 C117.831711,19.7299126 117.193202,18.6642468 116.244349,17.9465435 C115.197987,17.1560799 114.033328,16.8660287 112.747896,17.07639 C111.462465,17.2793268 110.410658,17.9217951 109.593466,19.0032998 C108.785184,20.0724303 108.46395,21.246494 108.629269,22.5254908 C108.794588,23.8044877 109.401419,24.8389705 110.447781,25.629929 C110.987296,26.0387726 111.512952,26.2981355 112.024748,26.4080185 C112.301435,26.4792939 112.61079,26.5263158 112.949843,26.5480945 C113.288896,26.5698729 113.663092,26.5698729 114.072925,26.5480945 L112.672661,28.401254 C111.417423,28.2339548 110.306715,27.7850191 109.340043,27.0544464 C107.885332,25.954628 107.027058,24.5088269 106.765715,22.7160535 C106.513282,20.9183303 106.934004,19.2958258 108.027388,17.8505197 C109.006434,16.554694 110.308695,15.723643 111.933674,15.3573668 C113.92889,14.9118957 115.76225,15.3217291 117.438211,16.5878568 C118.351922,17.2783369 119.049332,18.1925425 119.528956,19.3299785" id="Fill-99"></path>
                <polyline id="Fill-100" points="121.669692 27.5523841 125.248309 31.7309025 129.042237 28.4819338 130.299951 29.9495134 120.598581 38.2595281 119.341858 36.7919485 123.867844 32.9138757 120.289226 28.7353572 115.761756 32.6129351 114.504042 31.1458505 124.205412 22.8358357 125.462135 24.3029203 121.669692 27.5523841"></polyline>
                <path d="M128.564593,38.6327338 C127.316285,39.2875764 126.508992,40.2448441 126.145191,41.5055271 C125.778419,42.7607656 125.881868,43.9348293 126.454545,45.0267282 C127.07672,46.2106914 128.009734,46.9947204 129.256558,47.3788153 C130.512292,47.7574658 131.735357,47.6347138 132.92427,47.0100644 C134.129022,46.3779905 134.92691,45.446461 135.318924,44.2154759 C135.718363,42.9854809 135.608975,41.7817192 134.989276,40.6022108 C134.373536,39.4281471 133.442501,38.6510478 132.199142,38.2723973 C130.965682,37.8883022 129.753506,38.0080844 128.564593,38.6327338 Z M127.677116,36.8988616 C129.268438,36.0638509 130.939944,35.9302097 132.69312,36.4959577 C134.445306,37.0587362 135.748061,38.1541001 136.603861,39.7835341 C137.448276,41.3936643 137.597756,43.0760602 137.049827,44.8322059 C136.506352,46.5928066 135.425837,47.8965517 133.810757,48.7444316 C132.186768,49.5972613 130.503877,49.739812 128.76258,49.1730737 C127.013859,48.6033657 125.706649,47.4941428 124.841445,45.8454052 C124.07573,44.3867348 123.893087,42.8117472 124.293516,41.1209372 C124.738987,39.2558984 125.867019,37.8487047 127.677116,36.8988616 L127.677116,36.8988616 Z" id="Fill-101"></path>
                <path d="M135.452566,53.7010394 C134.081505,54.0237584 133.063356,54.7503711 132.396634,55.8808777 C131.728428,57.0064345 131.53638,58.170104 131.818512,59.3718859 C132.125887,60.675631 132.835176,61.6700214 133.945388,62.3540669 C135.065996,63.0356377 136.280647,63.2227355 137.586867,62.9148654 C138.909421,62.6040259 139.913711,61.9001814 140.599736,60.8053128 C141.292196,59.7129186 141.485233,58.5180662 141.179838,57.2197658 C140.874938,55.9269098 140.169114,54.940934 139.060386,54.2623329 C137.961062,53.5807622 136.758291,53.3936643 135.452566,53.7010394 Z M135.026893,51.8033328 C136.77413,51.3915197 138.426332,51.6795908 139.983501,52.6670516 C141.539185,53.6490678 142.527141,55.0359678 142.949348,56.8287411 C143.366111,58.599736 143.090414,60.2677777 142.123247,61.8323708 C141.15707,63.4024089 139.787494,64.3953142 138.012539,64.8130671 C136.226695,65.2337899 134.562118,64.9511633 133.017324,63.9666722 C131.466095,62.9787163 130.476654,61.5769676 130.050487,59.7629105 C129.671836,58.1587197 129.888137,56.5867019 130.696915,55.048342 C131.594291,53.3530772 133.037618,52.2710775 135.026893,51.8033328 L135.026893,51.8033328 Z" id="Fill-102"></path>
                <polyline id="Fill-103" points="144.598086 71.4956278 133.654348 71.7247978 133.732057 75.4746742 131.92493 75.5122916 131.806138 69.8414454 144.557994 69.5756475 144.598086 71.4956278"></polyline>
                <path d="M12.0011549,103.435902 C10.7810593,104.145686 10.016334,105.138096 9.70648414,106.414123 C9.39465431,107.685695 9.54809448,108.855304 10.1677941,109.92097 C10.8409504,111.07771 11.8086123,111.821152 13.0717703,112.15179 C14.3443326,112.474509 15.5614584,112.29929 16.7241379,111.62267 C17.9006764,110.938624 18.6584722,109.971952 18.9970303,108.723643 C19.3440028,107.477314 19.1816531,106.278007 18.5114668,105.125722 C17.84425,103.978881 16.8805478,103.242864 15.6203596,102.91767 C14.370071,102.587527 13.1633394,102.759776 12.0011549,103.435902 Z M11.0419072,101.746082 C12.5961064,100.841775 14.262168,100.634879 16.0395974,101.124402 C17.8145521,101.608975 19.1643294,102.646923 20.0894241,104.237255 C21.0036297,105.808283 21.2243854,107.483254 20.7536709,109.261673 C20.2844415,111.044547 19.2608479,112.395314 17.6833856,113.312985 C16.0955288,114.236595 14.4190727,114.452401 12.6540175,113.963372 C10.8810428,113.470879 9.52681078,112.419568 8.59082655,110.810427 C7.76274534,109.3869 7.51229164,107.820822 7.83946543,106.113678 C8.20574164,104.23082 9.27289233,102.774625 11.0419072,101.746082 L11.0419072,101.746082 Z" id="Fill-104"></path>
                <polyline id="Fill-105" points="27.7490513 117.743937 24.8104274 114.404389 22.5028874 116.434252 25.338063 119.655997 23.9818512 120.84887 21.1471703 117.627124 16.5791122 121.645273 15.3035803 120.195512 24.890612 111.760271 29.1047681 116.550569 27.7490513 117.743937"></polyline>
                <polyline id="Fill-106" points="41.1611945 128.141726 36.892097 125.321399 35.2052466 127.874443 39.3506022 130.612605 38.3502723 132.127207 34.2054116 129.39053 31.8612441 132.939449 36.1303416 135.759281 35.1300116 137.274377 29.2517735 133.391849 36.2842766 122.743607 42.1620196 126.625639 41.1611945 128.141726"></polyline>
                <path d="M53.2661278,132.409833 L52.3845899,134.507507 C51.7193534,133.217621 50.8383105,132.342023 49.7414619,131.880713 C48.5322555,131.372381 47.3314634,131.378815 46.1380959,131.899026 C44.9422538,132.412803 44.0819997,133.294836 43.5558488,134.544135 C43.0366277,135.779079 43.014849,136.99571 43.4910082,138.194522 C43.9666722,139.393334 44.8096023,140.247154 46.0188087,140.755486 C46.6429631,141.018314 47.2166309,141.139086 47.738822,141.119782 C48.0249134,141.120772 48.3352582,141.090084 48.6698565,141.027223 C49.0034647,140.964857 49.3667712,140.872298 49.7592806,140.750041 L48.8579443,142.892757 C47.600726,143.041247 46.4128031,142.880383 45.2956608,142.410658 C43.6142552,141.703349 42.4258372,140.513942 41.7309025,138.841445 C41.0414122,137.15905 41.048342,135.483089 41.7502062,133.812572 C42.3803003,132.314305 43.4385416,131.187758 44.9254248,130.432437 C46.7488864,129.508827 48.6282791,129.453391 50.5631084,130.267118 C51.6198648,130.711104 52.5202111,131.425342 53.2661278,132.409833" id="Fill-107"></path>
                <path d="M56.1493153,139.077545 C55.906286,140.463455 56.1735687,141.684046 56.9511633,142.740307 C57.7223231,143.795083 58.7157234,144.429632 59.9313646,144.641973 C61.2494637,144.872628 62.4408514,144.61277 63.5055271,143.861409 C64.5721828,143.100643 65.2210856,142.059726 65.4522356,140.739152 C65.6863553,139.402244 65.4349116,138.203927 64.6979047,137.143706 C63.9668371,136.078535 62.9457185,135.431117 61.6330639,135.201452 C60.324864,134.972282 59.1418908,135.234615 58.0821646,135.985481 C57.0244184,136.726448 56.3799703,137.757466 56.1493153,139.077545 Z M54.2377497,138.722158 C54.5471045,136.954133 55.46131,135.548424 56.9808612,134.506517 C58.4939779,133.46263 60.1575648,133.099819 61.9701369,133.416598 C63.7609305,133.730408 65.1844579,134.638674 66.2417094,136.143376 C67.3039103,137.648573 67.677611,139.298796 67.3642962,141.094044 C67.0475169,142.900676 66.1338064,144.320739 64.6221747,145.353242 C63.1036132,146.3902 61.4276523,146.748061 59.5928066,146.426827 C57.9707968,146.143211 56.6116153,145.326514 55.5167464,143.977727 C54.3119947,142.486388 53.8853324,140.735192 54.2377497,138.722158 L54.2377497,138.722158 Z" id="Fill-108"></path>
                <polyline id="Fill-109" points="71.5339052 147.524666 70.6622671 133.920475 80.5735028 143.042732 80.0052796 134.193203 81.9272397 134.069956 82.7934335 147.581092 72.8841775 138.485563 73.4558653 147.400924 71.5339052 147.524666"></polyline>
                <path d="M87.8173569,139.290876 C88.2336247,140.638674 89.0280483,141.606336 90.200627,142.194357 C91.3682559,142.784359 92.5413299,142.897707 93.7203431,142.5344 C94.9993401,142.138921 95.9412638,141.363306 96.5475995,140.209041 C97.1494802,139.042897 97.2519387,137.818347 96.8569543,136.534895 C96.4550404,135.235605 95.6853653,134.280317 94.5449596,133.669526 C93.4099983,133.052796 92.2052466,132.940934 90.9321894,133.333938 C89.6640819,133.725458 88.7290877,134.497608 88.1286917,135.650883 C87.5248308,136.794258 87.4218775,138.007919 87.8173569,139.290876 Z M85.9518232,139.845735 C85.4212176,138.128692 85.5959412,136.45966 86.4730243,134.838146 C87.3456524,133.218611 88.6622671,132.138096 90.4208878,131.594621 C92.1587197,131.057581 93.8401253,131.219436 95.4675796,132.0787 C97.0989935,132.936479 98.1839629,134.23676 98.722488,135.980036 C99.2634878,137.734202 99.0966837,139.416103 98.2215806,141.025243 C97.3410328,142.640323 96.0115491,143.723808 94.23115,144.273222 C92.6576472,144.759776 91.0747401,144.650388 89.4853985,143.947533 C87.7337073,143.167464 86.5551889,141.799868 85.9518232,139.845735 L85.9518232,139.845735 Z" id="Fill-110"></path>
                <polyline id="Fill-111" points="104.405709 140.408514 99.6233296 127.270583 108.496123 133.503712 107.261673 122.666392 116.412143 133.171589 114.719848 134.191223 109.688005 128.229335 110.735852 137.283782 103.306385 132.067316 106.111863 139.37997 104.405709 140.408514"></polyline>
                <polyline id="Fill-112" points="113.487378 118.629434 121.968652 128.180333 120.525326 129.461805 112.044052 119.911896 113.487378 118.629434"></polyline>
                <path d="M123.158555,109.00033 L124.897377,110.46791 C123.46791,110.717868 122.369576,111.297971 121.601386,112.207721 C120.754991,113.210031 120.403069,114.358852 120.544629,115.653192 C120.677776,116.948523 121.263818,118.034483 122.300775,118.908101 C123.324864,119.773305 124.480119,120.156905 125.76654,120.059891 C127.053457,119.962877 128.119617,119.413958 128.964527,118.410658 C129.402574,117.892922 129.690645,117.38162 129.826761,116.877248 C129.912886,116.603531 129.976737,116.298136 130.015839,115.960567 C130.055931,115.622999 130.076225,115.249299 130.076225,114.838475 L131.853159,116.337733 C131.620525,117.582577 131.111698,118.668537 130.330639,119.595611 C129.153605,120.988451 127.663257,121.769015 125.859099,121.933344 C124.049497,122.086784 122.452236,121.579442 121.066326,120.409338 C119.823462,119.361491 119.062201,118.015674 118.782544,116.373371 C118.443491,114.356872 118.952318,112.546774 120.306055,110.941594 C121.045042,110.065501 121.995875,109.418083 123.158555,109.00033" id="Fill-113"></path>
                <path d="M129.38426,100.332453 L129.449101,102.146015 C128.864049,102.159875 128.441841,102.245504 128.178518,102.403894 C127.892427,102.561789 127.645438,102.831546 127.436562,103.213166 C127.181158,103.681901 127.101963,104.144201 127.199472,104.599571 C127.292031,105.050982 127.53704,105.385085 127.934004,105.601881 C128.481439,105.899852 129.142716,105.735027 129.91932,105.105923 L130.983996,104.240224 C131.847715,103.53341 132.657482,103.114668 133.417258,102.983501 C134.176538,102.85283 134.941264,102.99736 135.710444,103.416598 C136.741957,103.978881 137.407193,104.786174 137.706649,105.83897 C138.007589,106.899192 137.878898,107.942584 137.320079,108.967662 C136.790464,109.940274 136.062366,110.584722 135.138261,110.902491 C134.219106,111.210856 133.194522,111.157895 132.065501,110.742617 L132.620855,108.825111 C133.320739,109.105758 133.849365,109.218611 134.207227,109.162679 C134.880878,109.078535 135.400099,108.702359 135.762911,108.034153 C136.050982,107.507507 136.113843,106.973932 135.950503,106.432932 C135.786669,105.892922 135.434252,105.474674 134.892757,105.179673 C134.675466,105.060881 134.459165,104.982181 134.244844,104.943574 C134.030523,104.905461 133.812737,104.908926 133.590497,104.953968 C133.368751,104.99901 133.136116,105.086619 132.892592,105.217291 C132.648078,105.347963 132.389705,105.520211 132.115492,105.734532 L131.07705,106.570533 C129.594126,107.750041 128.228015,107.99901 126.980696,107.318924 C126.139746,106.860584 125.61211,106.15476 125.398284,105.200957 C125.179013,104.245669 125.330474,103.288896 125.852664,102.330639 C126.556509,101.039267 127.734037,100.373536 129.38426,100.332453" id="Fill-114"></path>
                <path d="M7.56921302,88.1225871 C7.56921302,89.0526316 6.8153769,89.8064677 5.88582741,89.8064677 C4.95578293,89.8064677 4.20194681,89.0526316 4.20194681,88.1225871 C4.20194681,87.1925426 4.95578293,86.4392015 5.88582741,86.4392015 C6.8153769,86.4392015 7.56921302,87.1925426 7.56921302,88.1225871" id="Fill-115"></path>
                <path d="M138.364461,88.1225871 C138.364461,89.0526316 137.610625,89.8064677 136.681076,89.8064677 C135.751031,89.8064677 134.997195,89.0526316 134.997195,88.1225871 C134.997195,87.1925426 135.751031,86.4392015 136.681076,86.4392015 C137.610625,86.4392015 138.364461,87.1925426 138.364461,88.1225871" id="Fill-116"></path>
            </g>
        </g>
    </g>
</svg>