<?xml version="1.0" encoding="utf-8"?>
<!-- Generator: Adobe Illustrator 15.1.0, SVG Export Plug-In . SVG Version: 6.00 Build 0)  -->
<!DOCTYPE svg PUBLIC "-//W3C//DTD SVG 1.1//EN" "http://www.w3.org/Graphics/SVG/1.1/DTD/svg11.dtd">
<svg version="1.1" id="Layer_1" xmlns="http://www.w3.org/2000/svg" xmlns:xlink="http://www.w3.org/1999/xlink" x="0px" y="0px"
	 width="133.337px" height="81.486px" viewBox="0 0 133.337 81.486" enable-background="new 0 0 133.337 81.486"
	 xml:space="preserve">
<g>
	<g>
		<path fill="#F75B45" d="M1.502,73.034V9.653h2.871v63.38H1.502z"/>
		<path fill="#F75B45" d="M12.323,73.034H9.747V9.653h2.208l6.036,28.342V9.653h2.576v63.38h-2.576V44.841l-5.668-23.925V73.034z"/>
		<path fill="#F75B45" d="M30.431,73.034h-2.87V12.01h-4.049V9.653h11.041v2.356h-4.122V73.034z"/>
		<path fill="#F75B45" d="M45.595,73.034h-8.097V9.653h7.803v2.356H40.37v26.5h4.563v2.355H40.37v29.813h5.225V73.034z"/>
		<path fill="#F75B45" d="M57.372,73.034h-8.097V9.653h2.871v61.024h5.226V73.034z"/>
		<path fill="#F75B45" d="M68.854,73.034h-8.097V9.653h2.871v61.024h5.226V73.034z"/>
		<path fill="#F75B45" d="M72.241,73.034V9.653h2.871v63.38H72.241z"/>
		<path fill="#F75B45" d="M80.485,66.482v-50.35c0-2.65,0.405-4.491,1.214-5.521c0.811-1.031,2.22-1.547,4.233-1.547
			c2.011,0,3.409,0.516,4.195,1.547c0.785,1.03,1.178,2.87,1.178,5.521v12.735h-2.87v-13.25c0-1.815-0.195-3.067-0.582-3.755
			c-0.387-0.687-1.039-1.031-1.958-1.031c-0.969,0-1.634,0.344-1.995,1.03c-0.364,0.686-0.544,1.937-0.544,3.749v51.54
			c0,1.862,0.18,3.113,0.544,3.749c0.361,0.639,1.026,0.957,1.995,0.957c0.919,0,1.572-0.343,1.958-1.027
			c0.387-0.686,0.582-1.91,0.582-3.672V40.865h-3.239V38.51h6.109v27.972c0,2.748-0.393,4.625-1.178,5.631
			c-0.786,1.006-2.184,1.51-4.195,1.51c-2.014,0-3.423-0.504-4.233-1.51C80.89,71.106,80.485,69.23,80.485,66.482z"/>
		<path fill="#F75B45" d="M104.85,73.034h-8.097V9.653h7.803v2.356h-4.931v26.5h4.564v2.355h-4.564v29.813h5.226V73.034z"/>
		<path fill="#F75B45" d="M111.107,73.034h-2.577V9.653h2.209l6.035,28.342V9.653h2.576v63.38h-2.576V44.841l-5.667-23.925V73.034z"
			/>
		<path fill="#F75B45" d="M129.215,73.034h-2.87V12.01h-4.049V9.653h11.042v2.356h-4.122V73.034z"/>
	</g>
	<path fill="#F75B45" d="M1.029,1.486h74.083v2.871H1.029V1.486z"/>
	<path fill="#F75B45" d="M80.485,78.614h52.852v2.872H80.485V78.614z"/>
</g>
</svg>
