<?xml version="1.0" encoding="utf-8"?>
<!-- Generator: Adobe Illustrator 15.1.0, SVG Export Plug-In . SVG Version: 6.00 Build 0)  -->
<!DOCTYPE svg PUBLIC "-//W3C//DTD SVG 1.1//EN" "http://www.w3.org/Graphics/SVG/1.1/DTD/svg11.dtd">
<svg version="1.1" id="Layer_1" xmlns="http://www.w3.org/2000/svg" xmlns:xlink="http://www.w3.org/1999/xlink" x="0px" y="0px"
	 width="16px" height="16px" viewBox="0 0 16 16" enable-background="new 0 0 16 16" xml:space="preserve">
<g>
	<g>
		<path fill="#84B840" d="M1.951,3.595c0.755-0.157,1.746-0.251,2.785-0.251c1.117,0,1.919,0.142,2.627,0.551
			C8.071,4.256,8.59,4.949,8.59,5.845c0,1.338-0.975,2.172-2.14,2.502v0.047c1.022,0.314,1.668,1.149,1.668,2.313
			c0,1.148-0.613,1.967-1.448,2.518c-0.896,0.613-2.234,0.865-3.996,0.865c-1.196,0-2.156-0.079-2.675-0.189L1.951,3.595z
			 M2.517,12.281c0.267,0.031,0.535,0.031,0.866,0.031c1.227,0,2.344-0.487,2.344-1.668c0-1.054-0.881-1.368-1.936-1.368H3.084
			L2.517,12.281z M3.43,7.624h0.755c1.243,0,2.093-0.519,2.093-1.432c0-0.755-0.614-1.085-1.479-1.085
			c-0.393,0-0.724,0.031-0.897,0.063L3.43,7.624z"/>
		<path fill="#84B840" d="M9.36,11.036c0.566,0.394,1.369,0.677,2.25,0.677c1.195,0,2.296-0.708,2.296-1.982
			c0-0.803-0.44-1.385-1.557-1.983c-1.354-0.739-2.109-1.589-2.109-2.722c0-1.903,1.637-3.115,3.587-3.115
			c1.039,0,1.81,0.3,2.171,0.551l-0.472,1.07c-0.331-0.205-0.992-0.52-1.825-0.504c-1.322,0-2.108,0.866-2.108,1.73
			c0,0.866,0.536,1.354,1.652,1.967c1.305,0.708,2.014,1.542,2.014,2.832c0,1.841-1.433,3.288-3.823,3.288
			c-1.07-0.016-2.108-0.346-2.549-0.739L9.36,11.036z"/>
	</g>
</g>
</svg>
