<?xml version="1.0" encoding="utf-8"?>
<!-- Generator: Adobe Illustrator 15.1.0, SVG Export Plug-In . SVG Version: 6.00 Build 0)  -->
<!DOCTYPE svg PUBLIC "-//W3C//DTD SVG 1.1//EN" "http://www.w3.org/Graphics/SVG/1.1/DTD/svg11.dtd">
<svg version="1.1" id="Layer_1" xmlns="http://www.w3.org/2000/svg" xmlns:xlink="http://www.w3.org/1999/xlink" x="0px" y="0px"
	 width="230px" height="110px" viewBox="0 0 230 110" enable-background="new 0 0 230 110" xml:space="preserve">
<g>
	<g>
		<path fill="#FFFFFF" d="M6.088,48.616c2.356-0.491,5.448-0.785,8.689-0.785c3.485,0,5.989,0.442,8.199,1.718
			c2.209,1.128,3.829,3.289,3.829,6.088c0,4.172-3.043,6.773-6.676,7.805v0.147c3.191,0.981,5.204,3.584,5.204,7.218
			c0,3.584-1.914,6.135-4.516,7.854c-2.798,1.914-6.972,2.698-12.47,2.698c-3.731,0-6.725-0.246-8.346-0.588L6.088,48.616z
			 M7.855,75.715c0.834,0.098,1.668,0.098,2.7,0.098c3.829,0,7.314-1.521,7.314-5.203c0-3.289-2.748-4.271-6.039-4.271H9.624
			L7.855,75.715z M10.703,61.184h2.356c3.878,0,6.529-1.621,6.529-4.468c0-2.356-1.915-3.387-4.615-3.387
			c-1.227,0-2.259,0.098-2.798,0.196L10.703,61.184z"/>
		<path fill="#FFFFFF" d="M51.841,57.109l-3.043,16.199c-0.589,3.043-0.982,5.646-1.326,7.807h-6.235l0.442-3.879l-0.098-0.049
			c-2.455,3.143-5.351,4.467-8.248,4.467c-3.877,0-6.185-2.159-6.185-6.725c0-1.277,0.147-2.75,0.491-4.418l2.552-13.402h7.071
			l-2.456,12.863c-0.195,1.08-0.343,2.307-0.343,3.19c0,1.522,0.639,2.749,2.406,2.749c2.406,0,4.909-2.896,5.793-7.658l2.11-11.145
			H51.841L51.841,57.109z"/>
		<path fill="#FFFFFF" d="M51.694,74.832c1.374,0.688,3.976,1.669,6.283,1.669c1.964,0,2.995-0.981,2.995-2.161
			c0-1.178-0.786-2.012-2.995-3.092c-2.749-1.375-5.057-3.389-5.057-6.382c0-5.009,4.369-8.298,10.556-8.298
			c2.797,0,5.006,0.59,6.136,1.229l-1.669,5.006c-0.981-0.439-2.7-1.031-4.812-1.031c-1.864,0-3.091,0.787-3.091,2.111
			c0,0.982,0.981,1.816,2.896,2.7c2.651,1.326,5.4,3.289,5.4,6.628c0,5.498-4.665,8.493-11.046,8.443
			c-2.994-0.051-5.89-0.834-7.314-1.866L51.694,74.832z"/>
		<path fill="#FFFFFF" d="M68.777,81.115l4.566-24.006h7.021l-4.518,24.006H68.777z"/>
		<path fill="#FFFFFF" d="M79.332,81.115l3.044-16.2c0.588-3.044,0.981-5.646,1.275-7.806h6.235l-0.442,3.977h0.099
			c2.257-3.093,5.252-4.518,8.395-4.518c3.927,0,6.186,2.406,6.186,6.58c0,1.078-0.197,2.848-0.393,4.024l-2.651,13.942h-7.069
			l2.503-13.305c0.147-0.834,0.245-1.767,0.245-2.649c0-1.718-0.588-2.897-2.405-2.897c-2.307,0-4.958,2.897-5.99,8.2l-1.963,10.652
			L79.332,81.115L79.332,81.115z"/>
		<path fill="#FFFFFF" d="M124.596,79.741c-2.799,1.424-6.285,1.913-8.935,1.913c-6.874,0-10.409-3.877-10.409-10.162
			c0-7.314,5.302-14.924,13.992-14.924c4.859,0,8.346,2.75,8.346,7.217c0,6.087-5.941,8.297-15.563,8.051
			c0,0.688,0.246,1.768,0.736,2.455c0.932,1.229,2.552,1.865,4.615,1.865c2.603,0,4.812-0.588,6.726-1.521L124.596,79.741z
			 M120.962,63.736c0-1.178-0.981-2.014-2.603-2.014c-3.289,0-5.154,2.75-5.646,4.959c5.499,0.049,8.249-0.688,8.249-2.896
			L120.962,63.736L120.962,63.736z"/>
		<path fill="#FFFFFF" d="M127.54,74.832c1.374,0.688,3.976,1.669,6.284,1.669c1.964,0,2.994-0.981,2.994-2.161
			c0-1.178-0.784-2.012-2.994-3.092c-2.75-1.375-5.057-3.389-5.057-6.382c0-5.009,4.369-8.298,10.555-8.298
			c2.799,0,5.008,0.59,6.137,1.229l-1.67,5.006c-0.98-0.439-2.7-1.031-4.811-1.031c-1.867,0-3.094,0.787-3.094,2.111
			c0,0.982,0.982,1.816,2.897,2.7c2.649,1.326,5.399,3.289,5.399,6.628c0,5.498-4.664,8.493-11.046,8.443
			c-2.995-0.051-5.892-0.834-7.315-1.866L127.54,74.832z"/>
		<path fill="#FFFFFF" d="M146.046,76.009c1.767,1.228,4.271,2.111,7.021,2.111c3.73,0,7.168-2.21,7.168-6.187
			c0-2.502-1.375-4.32-4.859-6.186c-4.223-2.307-6.579-4.959-6.579-8.493c0-5.94,5.104-9.721,11.192-9.721
			c3.24,0,5.646,0.933,6.775,1.718l-1.473,3.339c-1.032-0.639-3.094-1.621-5.695-1.571c-4.123,0-6.578,2.7-6.578,5.399
			c0,2.701,1.67,4.222,5.154,6.138c4.074,2.209,6.284,4.811,6.284,8.836c0,5.744-4.47,10.26-11.929,10.26
			c-3.34-0.051-6.579-1.08-7.954-2.307L146.046,76.009z"/>
		<path fill="#FFFFFF" d="M176.287,51.659l-1.08,5.694h5.695l-0.639,3.191h-5.695l-2.159,11.585
			c-0.296,1.325-0.491,2.554-0.491,3.78c0,1.424,0.688,2.309,2.259,2.309c0.736,0,1.374-0.05,1.915-0.197l-0.197,3.19
			c-0.735,0.295-1.963,0.442-3.142,0.442c-3.585,0-5.008-2.16-5.008-4.615c0-1.375,0.196-2.749,0.539-4.467l2.309-12.027h-3.388
			l0.589-3.191h3.388l0.836-4.37L176.287,51.659z"/>
		<path fill="#FFFFFF" d="M194.499,81.115c0-1.424,0.246-3.682,0.541-6.137h-0.099c-2.604,4.959-5.893,6.676-9.229,6.676
			c-4.223,0-6.822-3.338-6.822-7.854c0-8.296,6.086-16.985,16.396-16.985c2.259,0,4.763,0.394,6.382,0.885l-2.404,12.42
			c-0.785,4.124-1.08,8.346-0.982,10.997L194.499,81.115L194.499,81.115z M197.102,60.398c-0.59-0.196-1.424-0.344-2.799-0.344
			c-6.138,0-11.193,6.381-11.193,13.01c0,2.65,0.934,5.252,4.025,5.252c3.438,0,7.463-4.418,8.592-10.752L197.102,60.398z"/>
		<path fill="#FFFFFF" d="M212.368,51.659l-1.079,5.694h5.695l-0.639,3.191h-5.695l-2.159,11.585
			c-0.296,1.325-0.491,2.554-0.491,3.78c0,1.424,0.688,2.309,2.258,2.309c0.736,0,1.374-0.05,1.914-0.197l-0.195,3.19
			c-0.735,0.295-1.963,0.442-3.143,0.442c-3.584,0-5.007-2.16-5.007-4.615c0-1.375,0.196-2.749,0.539-4.467l2.308-12.027h-3.387
			l0.588-3.191h3.389l0.834-4.37L212.368,51.659z"/>
	</g>
	<g>
		<g>
			<path fill="#FFFFFF" d="M229.236,46.206c-0.713-1.371-2.074-2.667-3.473-3.273c-2.316-1.039-5.465-0.664-7.356,1.032
				c-2.228,1.843-3.067,4.665-2.329,7.447c0.635,2.313,2.893,4.531,5.271,4.965c2.91,0.564,5.688-0.443,7.403-2.899
				C230.197,51.53,230.425,48.343,229.236,46.206z M228.027,53.125c-1.531,2.081-3.896,2.939-6.437,2.482
				c-2.133-0.388-4.237-2.334-4.745-4.458c-0.642-2.59,0.195-5.211,2.372-6.811c1.843-1.424,4.955-1.555,6.921-0.307
				c0.987,0.577,1.861,1.568,2.395,2.547C229.536,48.529,229.389,51.387,228.027,53.125z"/>
		</g>
		<g>
			<path fill="#FFFFFF" d="M227.016,52.575c-0.291-0.013-0.549-0.111-0.746-0.352l-2.416-3.031c0.812-0.162,1.813-0.614,1.998-1.537
				c0.063-0.383,0.094-0.86-0.108-1.187c-0.413-0.817-1.267-1.133-2.109-1.188l-3.976-0.021c-0.032,0.103-0.032,0.248,0,0.35
				c0.188,0.012,0.363,0.056,0.527,0.132c0.236,0.148,0.289,0.412,0.33,0.66l-0.021,5.491l-0.066,0.286
				c-0.137,0.378-0.557,0.347-0.879,0.417l0.021,0.307h0.088l3.031-0.021l-0.022-0.308c-0.291-0.04-0.627-0.023-0.79-0.329
				c-0.234-0.892-0.105-1.962-0.109-2.922c0.25,0.007,0.512-0.017,0.746,0.022l2.813,3.558c0.569-0.005,1.155,0.018,1.713-0.021
				L227.016,52.575z M221.768,48.841v-2.965c0.818-0.256,1.955-0.27,2.48,0.55c0.284,0.406,0.295,1.091,0.088,1.537
				C223.833,48.922,222.741,48.829,221.768,48.841z"/>
		</g>
	</g>
	<g>
		<path fill="#FFFFFF" d="M222.139,0.009c-13.76,21.386-35.048,47.606-66.547,43.09c-0.672-0.492-3.021-0.652-4.255,0.217
			c-1.034,0.346-2.094,0.799-3.171,1.314c-7.533,3.599-15.932,10.163-23.178,3.762c-0.663-0.705-1.264-1.469-1.829-2.265
			c-1.704-2.386-3.124-5.044-5.183-7.104c-0.678-0.741-1.769-1.193-2.521-1.275c-1.3,0.303-2.492,0.777-3.616,1.355
			c-1.125,0.58-2.182,1.264-3.212,1.99c-5.5,5.253-13.223,10.96-21.979,11.958c-0.672,0.078-1.353,0.128-2.043,0.165
			c-3.223,0.74-6.325,0.403-9.694,2.528c1.702-6.044,5.705-4.363,10.349-5.271c0.668-0.055,1.324-0.116,1.975-0.203
			c8.451-1.116,15.625-6.466,21.567-11.556c1.014-0.764,2.063-1.468,3.196-2.026c1.133-0.559,2.35-0.973,3.701-1.161
			c1.948-0.457,3.272,1.357,4.292,2.469c1.492,1.999,2.658,4.379,4.154,6.48c0.5,0.701,1.035,1.371,1.631,1.984
			c4.482,3.663,17.125-1.71,22.002-4.008c1.271-0.602,2.551-1.134,3.837-1.535c1.913-0.279,3.157,0.097,6.374,0.402
			c30.883,2.926,50.576-21.634,64.154-41.32"/>
	</g>
	<g>
		<path fill="#FFFFFF" d="M1.395,93.973c0.525-0.271,1.32-0.511,2.16-0.511c1.47,0.017,2.235,0.767,2.235,1.905
			c0,1.244-1.095,1.859-2.37,2.414c-0.855,0.391-1.485,0.721-1.485,1.291c0,0.39,0.255,0.675,0.885,0.689
			c0.72,0,1.455-0.301,1.89-0.525l0.225,1.229c-0.615,0.345-1.56,0.615-2.4,0.601c-1.485-0.016-2.4-0.689-2.4-1.949
			c0-1.439,1.23-1.995,2.445-2.535c0.75-0.33,1.5-0.645,1.5-1.17c0-0.359-0.3-0.631-0.87-0.645c-0.585,0-1.14,0.18-1.59,0.375
			L1.395,93.973z"/>
		<path fill="#FFFFFF" d="M6.325,98.066c0-2.476,1.725-4.619,4.23-4.619c1.965,0,2.985,1.41,2.985,3.015
			c0,2.49-1.725,4.62-4.23,4.62C7.465,101.082,6.325,99.807,6.325,98.066z M11.74,96.479c0-0.75-0.345-1.682-1.41-1.682
			c-1.395,0-2.205,1.859-2.205,3.227c0,1.004,0.525,1.709,1.425,1.709C10.87,99.732,11.74,97.932,11.74,96.479z"/>
		<path fill="#FFFFFF" d="M14.184,100.917l0.93-5.04c0.165-0.87,0.27-1.635,0.36-2.266h1.515l-0.165,1.275h0.03
			c0.675-0.976,1.59-1.439,2.55-1.439c1.14,0,1.65,0.734,1.71,1.5c0.66-0.99,1.575-1.485,2.595-1.5c0.99,0,1.77,0.645,1.77,1.949
			c0,0.314-0.06,0.854-0.12,1.246l-0.795,4.273h-1.695l0.75-4.08c0.06-0.285,0.105-0.63,0.105-0.915c0-0.63-0.255-1.05-0.885-1.05
			c-0.81,0-1.695,1.005-1.98,2.55l-0.645,3.495h-1.695l0.795-4.141c0.045-0.299,0.09-0.584,0.09-0.854c0-0.54-0.165-1.05-0.885-1.05
			c-0.81,0-1.74,1.109-2.01,2.595l-0.63,3.45L14.184,100.917L14.184,100.917z"/>
		<path fill="#FFFFFF" d="M26.517,98.066c0-2.476,1.725-4.619,4.23-4.619c1.965,0,2.985,1.41,2.985,3.015
			c0,2.49-1.725,4.62-4.23,4.62C27.657,101.082,26.517,99.807,26.517,98.066z M31.932,96.479c0-0.75-0.345-1.682-1.41-1.682
			c-1.395,0-2.205,1.859-2.205,3.227c0,1.004,0.525,1.709,1.425,1.709C31.062,99.732,31.932,97.932,31.932,96.479z"/>
		<path fill="#FFFFFF" d="M41.069,95.188c0,0.99-0.96,1.561-1.71,1.785v0.029c0.75,0.09,1.515,0.602,1.515,1.575
			c0,1.845-2.055,2.489-3.6,2.489c-1.695,0-2.685-0.66-2.685-2.189c0-1.335,0.6-3.811,1.905-4.77c0.585-0.437,1.305-0.66,2.205-0.66
			C40.094,93.447,41.069,94.002,41.069,95.188z M36.45,97.887c-0.045,0.256-0.105,0.586-0.105,0.887c0,0.645,0.33,1.063,1.14,1.063
			c0.9,0,1.62-0.465,1.62-1.2c0-0.72-0.6-0.959-1.305-0.959C37.274,97.678,36.765,97.797,36.45,97.887z M36.675,96.747
			c0.675-0.104,1.47-0.226,2.025-0.511c0.375-0.18,0.69-0.465,0.69-0.854c0-0.465-0.375-0.72-0.885-0.72
			C37.395,94.662,36.93,95.803,36.675,96.747z"/>
		<path fill="#FFFFFF" d="M44.979,93.611l-0.75,3.061h0.015c0.48-0.479,1.275-0.795,1.98-0.795c1.155,0,1.98,0.721,1.98,1.965
			c0,1.62-1.38,3.195-3.795,3.195c-1.125,0-2.295-0.301-2.295-1.695c0-0.42,0.105-1.02,0.195-1.41l0.945-4.318h1.725V93.611z
			 M46.495,98.143c0-0.601-0.345-1.006-0.99-1.006c-0.72,0-1.395,0.66-1.56,1.262c-0.06,0.209-0.105,0.39-0.105,0.645
			c0,0.45,0.315,0.734,0.915,0.734C45.595,99.777,46.495,99.132,46.495,98.143z M51.744,93.611l-1.395,7.306h-1.815l1.395-7.306
			H51.744z"/>
		<path fill="#FFFFFF" d="M57.976,100.497c-0.72,0.375-1.695,0.585-2.58,0.585c-2.025,0-3-1.245-3-3.029
			c0-2.205,1.62-4.605,4.14-4.605c1.44,0,2.355,0.826,2.355,2.056c0,1.875-1.965,2.476-4.785,2.415
			c-0.03,0.255,0.03,0.75,0.195,1.035c0.285,0.494,0.81,0.75,1.5,0.75c0.825,0,1.485-0.21,2.01-0.48L57.976,100.497z M56.311,94.752
			c-1.095,0-1.815,0.977-2.025,1.859c1.8,0.016,2.955-0.225,2.955-1.109C57.241,95.037,56.866,94.752,56.311,94.752z"/>
		<path fill="#FFFFFF" d="M62.34,98.066c0-2.476,1.725-4.619,4.23-4.619c1.965,0,2.985,1.41,2.985,3.015
			c0,2.49-1.725,4.62-4.23,4.62C63.48,101.082,62.34,99.807,62.34,98.066z M67.755,96.479c0-0.75-0.345-1.682-1.41-1.682
			c-1.395,0-2.205,1.859-2.205,3.227c0,1.004,0.525,1.709,1.425,1.709C66.885,99.732,67.755,97.932,67.755,96.479z"/>
		<path fill="#FFFFFF" d="M78.038,91.604c-0.375,0.119-0.78,0.18-1.17,0.225c-1.26,0.15-2.445,0.285-3.42,1.335
			c-0.45,0.479-0.84,1.245-1.02,1.905h0.06c0.6-0.885,1.485-1.455,2.565-1.455c1.62,0,2.52,1.244,2.52,2.834
			c-0.015,2.326-1.56,4.636-4.11,4.636c-1.83,0-2.835-1.319-2.835-3.495c0-2.055,0.63-3.988,1.8-5.279
			c1.275-1.439,2.715-1.74,4.515-1.936c0.48-0.045,0.975-0.12,1.35-0.255L78.038,91.604z M75.758,96.598
			c0-0.854-0.345-1.695-1.26-1.695c-0.57,0-1.125,0.375-1.5,0.9c-0.405,0.539-0.645,1.319-0.645,2.159
			c0,0.931,0.39,1.815,1.32,1.815C75.098,99.777,75.758,97.872,75.758,96.598z"/>
		<path fill="#FFFFFF" d="M79.545,96.537h0.705c0.78,0,1.77-0.285,1.77-1.005c0-0.54-0.495-0.81-1.11-0.81
			c-0.57,0-1.245,0.193-1.77,0.479l-0.33-1.064c0.675-0.404,1.59-0.676,2.46-0.676c1.155,0,2.595,0.405,2.595,1.83
			c0,1.035-0.945,1.605-1.89,1.785v0.015c0.795,0.12,1.665,0.69,1.665,1.695c0,1.739-1.875,2.265-3.33,2.265
			c-1.02,0-1.95-0.225-2.655-0.689l0.465-1.186c0.555,0.33,1.305,0.57,2.025,0.57c0.75,0,1.65-0.301,1.65-1.051
			c0-0.766-0.84-0.989-1.68-0.989h-0.75L79.545,96.537z"/>
		<path fill="#FFFFFF" d="M84.767,98.066c0-2.476,1.725-4.619,4.23-4.619c1.965,0,2.985,1.41,2.985,3.015
			c0,2.49-1.725,4.62-4.23,4.62C85.907,101.082,84.767,99.807,84.767,98.066z M90.182,96.479c0-0.75-0.345-1.682-1.41-1.682
			c-1.395,0-2.205,1.859-2.205,3.227c0,1.004,0.525,1.709,1.425,1.709C89.312,99.732,90.182,97.932,90.182,96.479z"/>
		<path fill="#FFFFFF" d="M92.037,103.887l1.44-7.56c0.15-0.87,0.315-2.011,0.42-2.745h1.575l-0.165,1.23h0.03
			c0.615-0.855,1.53-1.352,2.46-1.365c1.59,0,2.31,1.275,2.31,2.699c0,2.564-1.755,4.936-4.245,4.936
			c-0.675,0-1.2-0.165-1.455-0.314h-0.03l-0.6,3.119H92.037z M94.647,99.357c0.285,0.238,0.675,0.375,1.17,0.375
			c1.365,0,2.46-1.801,2.46-3.45c0-0.66-0.285-1.41-1.155-1.41c-0.885,0-1.86,0.989-2.16,2.7L94.647,99.357z"/>
		<path fill="#FFFFFF" d="M103.927,93.611l-0.75,3.061h0.015c0.48-0.479,1.275-0.795,1.98-0.795c1.155,0,1.98,0.721,1.98,1.965
			c0,1.62-1.38,3.195-3.795,3.195c-1.125,0-2.295-0.301-2.295-1.695c0-0.42,0.105-1.02,0.195-1.41l0.945-4.318h1.725V93.611z
			 M105.442,98.143c0-0.601-0.345-1.006-0.99-1.006c-0.72,0-1.395,0.66-1.56,1.262c-0.06,0.209-0.105,0.39-0.105,0.645
			c0,0.45,0.315,0.734,0.915,0.734C104.542,99.777,105.442,99.132,105.442,98.143z M110.692,93.611l-1.395,7.306h-1.815l1.395-7.306
			H110.692z"/>
		<path fill="#FFFFFF" d="M113.422,103.887l1.44-7.56c0.15-0.87,0.315-2.011,0.42-2.745h1.575l-0.166,1.23h0.031
			c0.614-0.855,1.529-1.352,2.459-1.365c1.59,0,2.311,1.275,2.311,2.699c0,2.564-1.756,4.936-4.245,4.936
			c-0.675,0-1.2-0.165-1.455-0.314h-0.03l-0.6,3.119H113.422z M116.032,99.357c0.284,0.238,0.675,0.375,1.17,0.375
			c1.364,0,2.46-1.801,2.46-3.45c0-0.66-0.285-1.41-1.155-1.41c-0.885,0-1.86,0.989-2.159,2.7L116.032,99.357z"/>
		<path fill="#FFFFFF" d="M125.313,93.611l-0.75,3.061h0.015c0.479-0.479,1.274-0.795,1.979-0.795c1.155,0,1.98,0.721,1.98,1.965
			c0,1.62-1.38,3.195-3.795,3.195c-1.125,0-2.295-0.301-2.295-1.695c0-0.42,0.105-1.02,0.195-1.41l0.944-4.318h1.726V93.611z
			 M126.827,98.143c0-0.601-0.345-1.006-0.99-1.006c-0.72,0-1.396,0.66-1.56,1.262c-0.061,0.209-0.105,0.39-0.105,0.645
			c0,0.45,0.314,0.734,0.915,0.734C125.927,99.777,126.827,99.132,126.827,98.143z M132.077,93.611l-1.396,7.306h-1.814l1.395-7.306
			H132.077z"/>
		<path fill="#FFFFFF" d="M135.729,93.611l-0.525,2.806h2.699l0.541-2.806h1.74l-1.381,7.306h-1.755l0.601-3.136h-2.7l-0.601,3.136
			h-1.74l1.381-7.306H135.729z"/>
		<path fill="#FFFFFF" d="M143.789,93.611l-0.585,3.104h0.239l2.775-3.104h2.07l-3.359,3.301c0.734,0.24,1.125,1.005,1.395,2.115
			c0.195,0.705,0.345,1.425,0.555,1.89h-1.725c-0.18-0.375-0.315-1.095-0.51-1.755c-0.315-0.99-0.66-1.395-1.44-1.395h-0.195
			l-0.6,3.148h-1.71l1.395-7.305H143.789L143.789,93.611z"/>
		<path fill="#FFFFFF" d="M147.963,98.066c0-2.476,1.725-4.619,4.23-4.619c1.965,0,2.984,1.41,2.984,3.015
			c0,2.49-1.725,4.62-4.229,4.62C149.104,101.082,147.963,99.807,147.963,98.066z M153.378,96.479c0-0.75-0.345-1.682-1.41-1.682
			c-1.395,0-2.204,1.859-2.204,3.227c0,1.004,0.524,1.709,1.424,1.709C152.508,99.732,153.378,97.932,153.378,96.479z"/>
		<path fill="#FFFFFF" d="M162.512,95.188c0,0.99-0.96,1.561-1.71,1.785v0.029c0.75,0.09,1.515,0.602,1.515,1.575
			c0,1.845-2.055,2.489-3.6,2.489c-1.695,0-2.685-0.66-2.685-2.189c0-1.335,0.6-3.811,1.905-4.77c0.584-0.437,1.305-0.66,2.205-0.66
			C161.537,93.447,162.512,94.002,162.512,95.188z M157.893,97.887c-0.045,0.256-0.105,0.586-0.105,0.887
			c0,0.645,0.33,1.063,1.14,1.063c0.9,0,1.62-0.465,1.62-1.2c0-0.72-0.6-0.959-1.305-0.959
			C158.717,97.678,158.207,97.797,157.893,97.887z M158.117,96.747c0.675-0.104,1.47-0.226,2.025-0.511
			c0.375-0.18,0.689-0.465,0.689-0.854c0-0.465-0.375-0.72-0.885-0.72C158.837,94.662,158.372,95.803,158.117,96.747z"/>
	</g>
</g>
</svg>
