<?xml version="1.0" encoding="utf-8"?>
<!-- Generator: Adobe Illustrator 15.1.0, SVG Export Plug-In . SVG Version: 6.00 Build 0)  -->
<!DOCTYPE svg PUBLIC "-//W3C//DTD SVG 1.1//EN" "http://www.w3.org/Graphics/SVG/1.1/DTD/svg11.dtd">
<svg version="1.1" id="Layer_1" xmlns="http://www.w3.org/2000/svg" xmlns:xlink="http://www.w3.org/1999/xlink" x="0px" y="0px"
	 width="16px" height="16px" viewBox="0 0 16 16" enable-background="new 0 0 16 16" xml:space="preserve">
<path d="M9.311,0L8.43,1.992C5.593,1.818,2.818,3.39,1.601,6.147c-1.564,3.541,0.033,7.684,3.567,9.251
	c3.535,1.568,7.668-0.033,9.233-3.574c1.333-3.018,0.365-6.465-2.135-8.391l0.784-1.775L9.311,0z M6.42,12.563
	c-1.969-0.874-2.861-3.188-1.99-5.161C5.301,5.43,7.612,4.535,9.58,5.408c1.97,0.873,2.862,3.188,1.991,5.161
	C10.7,12.541,8.389,13.436,6.42,12.563z"/>
</svg>
