<?xml version="1.0" encoding="utf-8"?>
<!-- Generator: Adobe Illustrator 15.1.0, SVG Export Plug-In . SVG Version: 6.00 Build 0)  -->
<!DOCTYPE svg PUBLIC "-//W3C//DTD SVG 1.1//EN" "http://www.w3.org/Graphics/SVG/1.1/DTD/svg11.dtd">
<svg version="1.1" id="Layer_1" xmlns="http://www.w3.org/2000/svg" xmlns:xlink="http://www.w3.org/1999/xlink" x="0px" y="0px"
	 width="210px" height="56.866px" viewBox="0 0 210 56.866" enable-background="new 0 0 210 56.866" xml:space="preserve">
<path fill="#FFFFFF" d="M23.02,20.507c-1.563-2.456-4.213-3.991-7.168-3.991c-2.344,0-4.343,0.834-5.993,2.5
	c-1.651,1.667-2.476,3.685-2.476,6.053c0,2.369,0.825,4.387,2.476,6.054c1.65,1.667,3.649,2.5,5.993,2.5
	c2.955,0,5.604-1.535,7.168-3.992l6.255,4.035c-2.91,4.562-7.818,7.414-13.423,7.414c-4.386,0-8.121-1.536-11.206-4.65
	C1.563,33.317,0,29.5,0,25.069c0-4.43,1.563-8.201,4.646-11.317c3.084-3.114,6.82-4.693,11.206-4.693
	c5.604,0,10.513,2.851,13.423,7.414L23.02,20.507z"/>
<path fill="#FFFFFF" d="M43.136,18.679v4.349h-2.355v2.786h-4.305v-2.786h-5.825v-4.349l5.647-10.763h4.482v10.763H43.136z
	 M36.5,15.459l-0.784,1.611c-0.507,0.996-0.761,1.533-0.786,1.609H36.5V15.459z"/>
<path fill="#FFFFFF" d="M63.923,19.324h-7.384v-1.096c0.173-2.194-3.563-2.194-3.389,0c0,0.92,1.086,1.842,3.214,2.763
	c5.255,2.457,8.253,5.308,8.253,10.221c0,2.764-0.913,5.132-2.736,7.018c-1.824,1.888-4.17,2.853-7.036,2.853
	c-2.867,0-5.212-0.965-7.036-2.853c-1.825-1.885-2.736-4.254-2.736-7.018v-1.535h7.384v1.535c0,1.272,1.042,2.413,2.389,2.413
	c1.346,0,2.389-1.141,2.389-2.413c0-1.01-1.303-2.193-3.953-3.465h0.044c-5.04-2.281-7.558-5.439-7.558-9.518
	c0-2.588,0.825-4.782,2.519-6.537c1.695-1.754,3.866-2.632,6.56-2.632c2.736,0,4.951,0.833,6.602,2.544
	c1.651,1.667,2.476,3.86,2.476,6.624V19.324z"/>
<polygon fill="#FFFFFF" points="97.194,40.423 89.811,40.423 89.811,28.799 75.042,28.799 75.042,40.423 67.658,40.423 
	67.658,9.717 75.042,9.717 75.042,21.341 89.811,21.341 89.811,9.717 97.194,9.717 "/>
<path fill="#FFFFFF" d="M100.236,25.069c0-4.43,1.563-8.201,4.647-11.317c3.083-3.114,6.82-4.693,11.206-4.693
	c4.387,0,8.123,1.579,11.207,4.693c3.083,3.116,4.647,6.888,4.647,11.317c0,4.431-1.565,8.248-4.647,11.362
	c-3.083,3.114-6.819,4.649-11.207,4.649c-4.386,0-8.123-1.535-11.206-4.649C101.799,33.317,100.236,29.5,100.236,25.069
	 M107.62,25.069c0,2.369,0.825,4.387,2.476,6.054c1.651,1.667,3.649,2.5,5.994,2.5c2.345,0,4.344-0.834,5.994-2.5
	c1.649-1.667,2.476-3.685,2.476-6.054c0-2.368-0.827-4.386-2.476-6.053c-1.65-1.667-3.649-2.5-5.994-2.5
	c-2.345,0-4.343,0.834-5.994,2.5C108.445,20.683,107.62,22.701,107.62,25.069"/>
<path fill="#FFFFFF" d="M142.369,29.895v10.527h-7.384V9.717h8.253c2.736,0,5.081,1.009,7.036,2.983
	c1.956,1.974,2.955,4.342,2.955,7.106s-0.999,5.176-2.955,7.15c-1.955,1.974-4.299,2.938-7.036,2.938H142.369z M142.369,17.174
	v5.263h0.869c1.433,0,2.605-1.184,2.605-2.631c0-1.448-1.172-2.632-2.605-2.632H142.369z"/>
<rect x="154.965" y="32.966" fill="#FFFFFF" width="7.385" height="7.457"/>
<path fill="#FFFFFF" d="M187.847,40.422h-8.948l-6.56-10.088v10.088h-7.383V9.717h10.207c2.823,0,5.168,0.965,7.08,2.851
	c1.954,1.887,2.909,4.3,2.909,7.238c0,3.86-2.171,7.062-5.689,8.464L187.847,40.422z M172.339,17.174v5.263h2.824
	c1.434,0,2.605-1.184,2.605-2.631c0-1.448-1.172-2.632-2.605-2.632H172.339z"/>
<path fill="#FFFFFF" d="M190.019,9.717h7.384v21.055c0,1.624,1.043,2.852,2.606,2.852s2.605-1.228,2.605-2.852V9.717H210v21.055
	c0,2.852-0.957,5.308-2.911,7.326c-1.911,1.974-4.257,2.983-7.08,2.983c-2.822,0-5.169-1.01-7.123-2.983
	c-1.911-2.018-2.867-4.474-2.867-7.326V9.717z"/>
<rect x="116.856" y="6.548" transform="matrix(0.9391 0.3436 -0.3436 0.9391 10.4548 -41.2873)" fill="#FFFFFF" width="9.734" height="4.616"/>
<path fill="#FFFFFF" d="M121.85,9.052c-0.062,0-0.125-0.009-0.189-0.027c-0.355-0.105-0.559-0.478-0.455-0.834
	c0.026-0.092,2.811-9.157,12.269-8.106c0.369,0.041,0.634,0.373,0.593,0.741c-0.04,0.37-0.371,0.639-0.742,0.593
	c-8.354-0.929-10.735,6.82-10.833,7.151C122.408,8.863,122.14,9.052,121.85,9.052"/>
<path fill="#FFFFFF" d="M14.859,51.377c0-0.638,0.151-1.227,0.452-1.767c0.302-0.54,0.716-0.97,1.244-1.288
	c0.527-0.319,1.107-0.478,1.74-0.478c1.05,0,1.946,0.419,2.687,1.26l-0.452,0.458c-0.345-0.354-0.69-0.627-1.037-0.82
	c-0.346-0.194-0.75-0.291-1.21-0.291c-0.491,0-0.945,0.131-1.363,0.391c-0.418,0.261-0.75,0.616-0.994,1.066
	c-0.246,0.449-0.369,0.939-0.369,1.469c0,0.814,0.269,1.504,0.807,2.069c0.538,0.567,1.195,0.85,1.97,0.85
	c0.806,0,1.552-0.383,2.242-1.149l0.471,0.427c-0.375,0.426-0.781,0.755-1.217,0.987c-0.438,0.233-0.948,0.349-1.534,0.349
	c-0.637,0-1.219-0.157-1.747-0.475c-0.527-0.316-0.941-0.744-1.24-1.284C15.01,52.609,14.859,52.019,14.859,51.377"/>
<polygon fill="#FFFFFF" points="25.513,54.748 25.513,48.006 31.125,48.006 31.125,54.748 30.474,54.748 30.474,48.588 
	26.165,48.588 26.165,54.748 "/>
<path fill="#FFFFFF" d="M35.767,51.377c0-0.469,0.088-0.919,0.264-1.35c0.177-0.431,0.417-0.806,0.717-1.127
	c0.302-0.32,0.669-0.577,1.104-0.769c0.435-0.192,0.898-0.287,1.388-0.287c0.651,0,1.241,0.16,1.773,0.48
	c0.532,0.321,0.945,0.752,1.24,1.292c0.294,0.54,0.442,1.127,0.442,1.76c0,0.629-0.148,1.212-0.446,1.75
	c-0.296,0.539-0.713,0.97-1.25,1.295s-1.132,0.487-1.786,0.487c-0.487,0-0.945-0.094-1.376-0.284
	c-0.43-0.188-0.796-0.443-1.098-0.762c-0.302-0.318-0.539-0.694-0.713-1.127C35.854,52.304,35.767,51.851,35.767,51.377
	 M36.464,51.377c0,0.814,0.268,1.504,0.804,2.069c0.536,0.567,1.194,0.85,1.973,0.85c0.491,0,0.947-0.13,1.37-0.391
	c0.421-0.26,0.758-0.614,1.007-1.063c0.25-0.447,0.375-0.936,0.375-1.466c0-0.81-0.271-1.5-0.814-2.069
	c-0.542-0.571-1.196-0.856-1.963-0.856c-0.5,0-0.96,0.131-1.382,0.391c-0.422,0.261-0.755,0.616-1.001,1.066
	C36.587,50.357,36.464,50.848,36.464,51.377"/>
<path fill="#FFFFFF" d="M47.33,56.866v-8.86h0.653v1.505c0.728-1.111,1.653-1.666,2.777-1.666c0.409,0,0.809,0.081,1.198,0.245
	s0.739,0.393,1.049,0.685c0.31,0.293,0.56,0.665,0.75,1.117c0.189,0.452,0.284,0.947,0.284,1.485c0,0.529-0.094,1.021-0.284,1.473
	c-0.19,0.452-0.439,0.825-0.75,1.12s-0.66,0.525-1.049,0.691s-0.789,0.248-1.198,0.248c-1.145,0-2.071-0.538-2.777-1.614v3.571
	H47.33z M47.944,51.391c0,0.555,0.132,1.058,0.397,1.508c0.265,0.449,0.606,0.793,1.023,1.029c0.418,0.237,0.862,0.355,1.331,0.355
	c0.757,0,1.387-0.261,1.889-0.781c0.501-0.521,0.752-1.229,0.752-2.125c0-0.431-0.071-0.83-0.212-1.197
	c-0.142-0.368-0.334-0.676-0.575-0.925c-0.241-0.247-0.522-0.441-0.843-0.581c-0.32-0.14-0.657-0.21-1.01-0.21
	c-0.349,0-0.689,0.072-1.021,0.218c-0.332,0.144-0.625,0.341-0.881,0.59c-0.256,0.25-0.461,0.561-0.617,0.93
	C48.022,50.572,47.944,50.968,47.944,51.391"/>
<polygon fill="#FFFFFF" points="57.868,48.587 57.868,48.006 63.57,48.006 63.57,48.587 61.045,48.587 61.045,54.748 60.4,54.748 
	60.4,48.587 "/>
<polygon fill="#FFFFFF" points="67.837,54.748 67.837,48.006 68.489,48.006 68.489,53.89 73.062,48.006 73.714,48.006 
	73.714,54.748 73.062,54.748 73.062,48.865 68.489,54.748 "/>
<path fill="#FFFFFF" d="M78.813,54.748v-6.742H81.9c0.659,0,1.188,0.149,1.586,0.45c0.398,0.301,0.597,0.704,0.597,1.212
	c0,0.707-0.381,1.22-1.143,1.537c0.446,0.117,0.81,0.319,1.093,0.603c0.283,0.283,0.425,0.649,0.425,1.101
	c0,0.56-0.222,1.006-0.665,1.339c-0.443,0.335-1.027,0.501-1.755,0.501H78.813z M79.466,50.977h2.338c0.482,0,0.872-0.11,1.169-0.33
	c0.297-0.221,0.446-0.534,0.446-0.94c0-0.34-0.138-0.61-0.414-0.814c-0.275-0.203-0.663-0.305-1.162-0.305h-2.377V50.977z
	 M79.466,54.167h2.499c0.564,0,1.01-0.121,1.337-0.361c0.327-0.241,0.491-0.571,0.491-0.988c0-0.396-0.172-0.705-0.514-0.927
	c-0.343-0.222-0.834-0.333-1.476-0.333h-2.338V54.167z"/>
<polygon fill="#FFFFFF" points="89.125,54.748 89.125,48.006 89.777,48.006 89.777,50.996 94.259,50.996 94.259,48.006 
	94.905,48.006 94.905,54.748 94.259,54.748 94.259,51.59 89.777,51.59 89.777,54.748 "/>
<path fill="#FFFFFF" d="M99.546,51.377c0-0.469,0.088-0.919,0.264-1.35s0.416-0.806,0.716-1.127c0.302-0.32,0.67-0.577,1.105-0.769
	c0.435-0.192,0.898-0.287,1.388-0.287c0.65,0,1.241,0.16,1.773,0.48c0.532,0.321,0.945,0.752,1.241,1.292
	c0.294,0.54,0.441,1.127,0.441,1.76c0,0.629-0.148,1.212-0.445,1.75c-0.297,0.539-0.713,0.97-1.25,1.295s-1.132,0.487-1.786,0.487
	c-0.487,0-0.945-0.094-1.376-0.284c-0.43-0.188-0.796-0.443-1.098-0.762c-0.302-0.318-0.539-0.694-0.713-1.127
	S99.546,51.851,99.546,51.377 M100.243,51.377c0,0.814,0.268,1.504,0.804,2.069c0.536,0.567,1.193,0.85,1.973,0.85
	c0.491,0,0.947-0.13,1.37-0.391c0.422-0.26,0.758-0.614,1.007-1.063c0.25-0.447,0.375-0.936,0.375-1.466
	c0-0.81-0.272-1.5-0.814-2.069c-0.542-0.571-1.197-0.856-1.963-0.856c-0.5,0-0.96,0.131-1.382,0.391
	c-0.422,0.261-0.755,0.616-1.001,1.066C100.366,50.357,100.243,50.848,100.243,51.377"/>
<path fill="#FFFFFF" d="M110.651,51.364c0-0.482,0.082-0.939,0.246-1.372c0.164-0.434,0.386-0.808,0.665-1.12
	c0.28-0.314,0.619-0.564,1.018-0.75c0.398-0.185,0.821-0.277,1.269-0.277c0.615,0,1.161,0.155,1.637,0.468
	c0.476,0.313,0.838,0.735,1.088,1.269c0.249,0.534,0.374,1.133,0.374,1.796c0,0.107-0.004,0.196-0.013,0.265h-5.599
	c0.056,0.81,0.339,1.454,0.849,1.935s1.109,0.72,1.799,0.72c0.886,0,1.657-0.351,2.312-1.053l0.452,0.395
	c-0.379,0.409-0.787,0.723-1.224,0.942s-0.959,0.329-1.566,0.329c-0.439,0-0.859-0.086-1.263-0.258
	c-0.403-0.172-0.755-0.41-1.056-0.714c-0.302-0.304-0.542-0.678-0.721-1.123C110.74,52.368,110.651,51.885,110.651,51.364
	 M111.336,51.061h4.908c-0.021-0.35-0.088-0.677-0.2-0.984c-0.112-0.309-0.265-0.586-0.459-0.834
	c-0.194-0.247-0.442-0.443-0.746-0.588c-0.304-0.144-0.643-0.216-1.017-0.216c-0.663,0-1.229,0.25-1.695,0.75
	C111.661,49.688,111.396,50.312,111.336,51.061"/>
<polygon fill="#FFFFFF" points="128.09,54.748 128.09,48.006 133.702,48.006 133.702,54.748 133.05,54.748 133.05,48.588 
	128.742,48.588 128.742,54.748 "/>
<polygon fill="#FFFFFF" points="138.802,54.748 138.802,48.006 139.454,48.006 139.454,53.89 144.026,48.006 144.678,48.006 
	144.678,54.748 144.026,54.748 144.026,48.865 139.454,54.748 "/>
<polygon fill="#FFFFFF" points="148.946,48.587 148.946,48.006 154.648,48.006 154.648,48.587 152.123,48.587 152.123,54.748 
	151.477,54.748 151.477,48.587 "/>
<path fill="#FFFFFF" d="M158.359,52.766c0-0.689,0.271-1.228,0.811-1.614c0.541-0.388,1.254-0.581,2.141-0.581
	c0.771,0,1.516,0.097,2.234,0.29v-0.29c0-0.672-0.195-1.185-0.584-1.537c-0.39-0.354-0.936-0.53-1.637-0.53
	c-0.697,0-1.402,0.181-2.112,0.543l-0.238-0.568c0.839-0.388,1.635-0.582,2.389-0.582c0.926,0,1.636,0.248,2.131,0.743
	c0.461,0.461,0.691,1.096,0.691,1.905v4.204h-0.64v-1.124c-0.267,0.37-0.615,0.678-1.046,0.921c-0.43,0.243-0.94,0.365-1.531,0.365
	c-0.473,0-0.903-0.078-1.29-0.232c-0.389-0.156-0.704-0.398-0.95-0.73C158.482,53.616,158.359,53.222,158.359,52.766
	 M159.063,52.753c0,0.482,0.177,0.859,0.53,1.134c0.353,0.273,0.824,0.409,1.414,0.409c0.702,0,1.302-0.194,1.802-0.584
	c0.499-0.39,0.749-0.886,0.749-1.489v-0.769c-0.775-0.202-1.538-0.303-2.286-0.303c-0.702,0-1.246,0.145-1.632,0.432
	C159.255,51.872,159.063,52.262,159.063,52.753"/>
<polygon fill="#FFFFFF" points="169.148,54.748 169.148,48.006 169.8,48.006 169.8,50.996 174.283,50.996 174.283,48.006 
	174.928,48.006 174.928,54.748 174.283,54.748 174.283,51.59 169.8,51.59 169.8,54.748 "/>
<polygon fill="#FFFFFF" points="180.028,54.748 180.028,48.006 180.679,48.006 180.679,53.89 185.252,48.006 185.904,48.006 
	185.904,54.748 185.252,54.748 185.252,48.865 180.679,54.748 "/>
<path fill="#FFFFFF" d="M190.545,51.364c0-0.482,0.082-0.939,0.245-1.372c0.164-0.434,0.386-0.808,0.665-1.12
	c0.28-0.314,0.619-0.564,1.018-0.75c0.398-0.185,0.821-0.277,1.27-0.277c0.615,0,1.161,0.155,1.636,0.468
	c0.477,0.313,0.839,0.735,1.089,1.269c0.25,0.534,0.375,1.133,0.375,1.796c0,0.107-0.005,0.196-0.013,0.265h-5.6
	c0.056,0.81,0.339,1.454,0.849,1.935c0.512,0.48,1.11,0.72,1.799,0.72c0.888,0,1.658-0.351,2.313-1.053l0.452,0.395
	c-0.38,0.409-0.787,0.723-1.224,0.942c-0.438,0.22-0.96,0.329-1.566,0.329c-0.439,0-0.86-0.086-1.262-0.258
	c-0.403-0.172-0.756-0.41-1.057-0.714c-0.302-0.304-0.542-0.678-0.721-1.123C190.634,52.368,190.545,51.885,190.545,51.364
	 M191.23,51.061h4.908c-0.021-0.35-0.088-0.677-0.2-0.984c-0.111-0.309-0.266-0.586-0.459-0.834
	c-0.193-0.247-0.441-0.443-0.745-0.588c-0.305-0.144-0.643-0.216-1.018-0.216c-0.663,0-1.229,0.25-1.695,0.75
	C191.554,49.688,191.291,50.312,191.23,51.061"/>
</svg>
