<?xml version="1.0" encoding="utf-8"?>
<!-- Generator: Adobe Illustrator 15.1.0, SVG Export Plug-In . SVG Version: 6.00 Build 0)  -->
<!DOCTYPE svg PUBLIC "-//W3C//DTD SVG 1.1//EN" "http://www.w3.org/Graphics/SVG/1.1/DTD/svg11.dtd">
<svg version="1.1" id="Layer_1" xmlns="http://www.w3.org/2000/svg" xmlns:xlink="http://www.w3.org/1999/xlink" x="0px" y="0px"
	 width="16px" height="16px" viewBox="0 0 16 16" enable-background="new 0 0 16 16" xml:space="preserve">
<g>
	<path fill="#FF6D00" d="M5.434,0.423l1.322,2.729c2.254-0.577,4.684,0.489,5.737,2.662c1.053,2.172,0.386,4.741-1.462,6.154
		l1.323,2.729c3.334-2.166,4.617-6.521,2.838-10.191C13.412,0.834,9.198-0.855,5.434,0.423z"/>
	<g>
		<path fill="#1379B7" d="M3.157,9.23c-0.492-1.934,0.215-3.995,1.8-5.207L3.635,1.295c-3.058,1.985-4.383,5.809-3.213,9.261
			L3.157,9.23z"/>
		<path fill="#1379B7" d="M4.03,11.029l-2.735,1.327c1.985,3.056,5.808,4.383,9.26,3.212L9.232,12.84
			C7.299,13.334,5.243,12.614,4.03,11.029z"/>
	</g>
</g>
</svg>
