<?xml version="1.0" encoding="UTF-8"?>
<svg width="504px" height="372px" viewBox="0 0 504 372" version="1.1" xmlns="http://www.w3.org/2000/svg" xmlns:xlink="http://www.w3.org/1999/xlink">
    <!-- Generator: Sketch 46.1 (44463) - http://www.bohemiancoding.com/sketch -->
    <title>Artboard</title>
    <desc>Created with Sketch.</desc>
    <defs></defs>
    <g id="Page-1" stroke="none" stroke-width="1" fill="none" fill-rule="evenodd">
        <g id="Artboard">
            <rect id="Rectangle" fill="#FFF2E9" x="-70" y="-2" width="596" height="417"></rect>
            <g id="build-1" transform="translate(310.000000, 62.000000)" fill-rule="nonzero">
                <polyline id="Shape" fill="#A4A6BB" points="128.517 125.278 128.517 129.418 125.263 131.28 125.263 127.135 128.517 125.278"></polyline>
                <polyline id="Shape" fill="#C2C4C7" points="76.692 98.433 76.693 102.571 124.955 130.46 124.955 126.314 76.692 98.433"></polyline>
                <polyline id="Shape" fill="#545861" points="76.692 99.024 79.926 97.154 128.209 125.048 124.955 126.904 76.692 99.024"></polyline>
                <polyline id="Shape" fill="#35373C" points="5.113 136.784 5.113 140.922 8.368 142.782 8.368 138.64 5.113 136.784"></polyline>
                <polyline id="Shape" fill="#C2C4C7" points="80.73 97.155 80.73 101.293 8.947 142.76 8.947 138.617 80.73 97.155"></polyline>
                <polyline id="Shape" fill="#545861" points="80.15 96.468 76.917 94.598 5.113 136.074 8.368 137.93 80.151 96.468"></polyline>
                <polyline id="Shape" fill="#5D412B" points="125.406 40.907 125.406 177.914 60.076 215.662 60.076 78.63 125.406 40.907"></polyline>
                <polyline id="Shape" fill="#73513A" points="59.504 77.573 59.504 214.602 28.62 196.753 28.62 194.681 17.75 188.4 15.967 189.44 15.962 189.44 15.962 189.436 11.509 186.861 11.505 49.857 59.505 77.574"></polyline>
                <polyline id="Shape" fill="#1D2024" points="11.504 50.492 76.857 12.784 124.835 40.487 59.504 78.209 11.504 50.492"></polyline>
                <polyline id="Shape" fill="#35373C" points="74.137 9.92 119.797 36.285 119.797 31.479 74.136 5.113 74.138 9.92"></polyline>
                <path d="M74.268,5.113 L74.27,9.92 L10.226,46.9 L10.226,42.092 L74.268,5.113 M128.152,31.959 L128.152,39.414 L60.075,78.74 L60.075,71.268 L128.152,31.96" id="Shape" fill="#1D2024"></path>
                <polyline id="Shape" fill="#35373C" points="6.391 39.629 6.392 47.084 60.245 78.198 60.245 70.726 6.391 39.629"></polyline>
                <path d="M14.637,39.515 L74.517,4.938 L120.178,31.304 L60.296,65.88 L14.636,39.515 M74.483,0 L6.39,39.298 L60.244,70.395 L128.321,31.087 L74.482,0" id="Shape" fill="#545861"></path>
                <polyline id="Shape" fill="#626E64" points="73.614 10.227 17.894 42.399 59.393 66.362 115.113 34.189 73.613 10.227"></polyline>
                <polyline id="Shape" fill="#6E7A6F" points="74.171 15.34 26.842 42.67 59.936 61.78 107.265 34.451 74.17 15.34"></polyline>
                <polyline id="Shape" fill="#A4A6BB" points="59.495 164.907 59.495 169.047 56.241 170.907 56.241 166.765 59.495 164.907"></polyline>
                <polyline id="Shape" fill="#35373C" points="8.947 138.062 8.947 142.202 56.924 169.922 56.924 165.779 8.947 138.062"></polyline>
                <polyline id="Shape" fill="#545861" points="8.947 138.652 12.181 136.784 60.177 164.512 56.924 166.37 8.947 138.652"></polyline>
                <polyline id="Shape" fill="#35373C" points="56.24 166.186 56.24 170.325 59.495 172.186 59.495 168.042 56.241 166.186"></polyline>
                <polyline id="Shape" fill="#1D2024" points="131.859 126.557 131.859 130.696 60.075 172.163 60.075 168.019 131.859 126.557"></polyline>
                <polyline id="Shape" fill="#545861" points="131.278 127.147 128.043 125.278 56.241 166.753 59.495 168.609 131.278 127.147"></polyline>
                <polyline id="Shape" fill="#F0A550" points="11.508 187.478 11.504 144.454 59.501 171.954 59.504 215.219 28.621 197.371 28.621 195.299 17.749 189.017 15.961 190.057 11.508 187.477"></polyline>
                <polyline id="Shape" fill="#DA8436" points="60.078 214.84 60.075 171.574 125.404 134.227 125.409 177.094 60.078 214.84"></polyline>
                <path d="M65.188,205.448 L65.188,200.842 L72.143,196.866 L72.143,201.43 L65.188,205.448 M92.031,190.107 L92.031,185.503 L98.985,181.526 L98.986,186.091 L92.031,190.107 M79.248,182.437 L79.248,177.833 L86.202,173.856 L86.202,178.419 L79.248,182.437" id="Shape" fill="#B36F30"></path>
                <polyline id="Shape" fill="#F0A550" points="61.353 190.107 61.353 185.5 68.308 181.526 68.309 186.088 61.353 190.108"></polyline>
                <polyline id="Shape" fill="#B36F30" points="102.256 179.88 102.256 175.276 109.209 171.299 109.21 175.864 102.256 179.881"></polyline>
                <polyline id="Shape" fill="#F0A550" points="72.857 192.664 72.857 188.059 79.812 184.082 79.812 188.646 72.857 192.664"></polyline>
                <polyline id="Shape" fill="#B36F30" points="115.038 147.92 115.038 143.315 121.99 139.34 121.991 143.903 115.038 147.92"></polyline>
                <path d="M116.316,176.045 L116.316,171.44 L123.269,167.464 L123.269,172.026 L116.316,176.046 M98.421,160.704 L98.421,156.098 L105.374,152.124 L105.374,156.686 L98.421,160.704" id="Shape" fill="#F0A550"></path>
                <path d="M95.865,170.93 L95.865,166.326 L102.818,162.351 L102.819,166.913 L95.865,170.931 M67.744,176.045 L67.744,171.44 L74.698,167.464 L74.698,172.026 L67.744,176.046" id="Shape" fill="#B36F30"></path>
                <polyline id="Shape" fill="#DA8436" points="55.525 190.107 55.526 185.5 48.573 181.526 48.571 186.088 55.525 190.108"></polyline>
                <path d="M19.737,158.149 L19.737,153.544 L12.783,149.567 L12.782,154.132 L19.737,158.149 M33.797,177.323 L33.798,172.717 L26.843,168.742 L26.843,173.305 L33.797,177.323 M42.744,201.612 L42.744,197.007 L35.791,193.031 L35.789,197.595 L42.744,201.612" id="Shape" fill="#F2BA70"></path>
                <polyline id="Shape" fill="#DA8436" points="42.743 170.93 42.743 166.326 35.789 162.351 35.789 166.913 42.743 170.931"></polyline>
                <polyline id="Shape" fill="#F2BA70" points="51.69 192.664 51.692 188.059 44.738 184.082 44.737 188.646 51.69 192.664"></polyline>
                <polyline id="Shape" fill="#CAD5D7" points="33.233 163.629 33.233 184.737 56.05 197.91 56.05 176.804 33.234 163.629"></polyline>
                <polyline id="Shape" fill="#1D2024" points="35.024 164.66 35.023 183.699 33.233 184.734 33.237 163.629 35.024 164.66"></polyline>
                <polyline id="Shape" fill="#545861" points="33.233 185.118 35.023 184.082 56.053 196.226 56.053 198.294 33.233 185.118"></polyline>
                <polyline id="Shape" fill="#35373C" points="100.217 65.196 100.217 86.304 92.03 91.031 92.03 69.923 100.217 65.196"></polyline>
                <polyline id="Shape" fill="#1D2024" points="89.474 67.753 89.474 88.848 91.262 89.883 91.262 68.775 89.474 67.753"></polyline>
                <polyline id="Shape" fill="#545861" points="89.474 68.653 97.664 63.918 99.449 64.948 91.262 69.675 89.474 68.653"></polyline>
                <path d="M99.387,66.474 L99.387,74.994 L93.308,78.504 L93.308,69.984 L99.388,66.474 M99.387,76.701 L99.387,85.221 L93.308,88.733 L93.308,80.21 L99.388,76.7" id="Shape" fill="#E2E2EB"></path>
                <polyline id="Shape" fill="#35373C" points="118.112 53.69 118.112 74.798 109.925 79.526 109.925 58.418 118.112 53.691"></polyline>
                <polyline id="Shape" fill="#1D2024" points="108.647 57.526 108.647 78.62 110.435 79.657 110.435 58.548 108.647 57.526"></polyline>
                <polyline id="Shape" fill="#545861" points="108.647 58.427 116.836 53.691 118.622 54.722 110.435 59.45 108.647 58.427"></polyline>
                <path d="M117.28,56.247 L117.28,64.767 L111.203,68.278 L111.203,59.758 L117.281,56.248 M117.28,66.474 L117.28,74.994 L111.203,78.506 L111.203,69.985 L117.281,66.475" id="Shape" fill="#E2E2EB"></path>
                <polyline id="Shape" fill="#35373C" points="82.322 75.423 82.322 96.53 74.135 101.257 74.135 80.15 82.322 75.423"></polyline>
                <polyline id="Shape" fill="#1D2024" points="71.579 79.258 71.58 100.352 73.368 101.387 73.368 80.28 71.578 79.258"></polyline>
                <polyline id="Shape" fill="#545861" points="71.579 78.88 79.769 74.144 81.555 75.176 73.368 79.903 71.578 78.881"></polyline>
                <path d="M80.216,76.701 L80.216,85.221 L74.136,88.731 L74.136,80.211 L80.216,76.701 M80.216,86.928 L80.216,95.448 L74.136,98.958 L74.136,90.438 L80.216,86.928" id="Shape" fill="#E2E2EB"></path>
                <polyline id="Shape" fill="#35373C" points="100.217 98.433 100.217 119.54 92.03 124.268 92.03 103.16 100.217 98.434"></polyline>
                <polyline id="Shape" fill="#1D2024" points="89.474 102.268 89.474 123.363 91.262 124.4 91.262 103.29 89.474 102.268"></polyline>
                <polyline id="Shape" fill="#545861" points="89.474 101.89 97.664 97.155 99.449 98.186 91.262 102.912 89.474 101.89"></polyline>
                <path d="M99.387,100.99 L99.387,109.51 L93.308,113.022 L93.308,104.5 L99.388,100.99 M99.387,111.216 L99.387,119.736 L93.308,123.247 L93.308,114.727 L99.388,111.217" id="Shape" fill="#E2E2EB"></path>
                <polyline id="Shape" fill="#35373C" points="118.112 88.206 118.112 109.314 109.925 114.042 109.925 92.935 118.112 88.206"></polyline>
                <polyline id="Shape" fill="#1D2024" points="108.647 92.041 108.647 113.137 110.435 114.171 110.435 93.064 108.647 92.041"></polyline>
                <polyline id="Shape" fill="#545861" points="108.647 91.663 116.836 86.928 118.622 87.957 110.435 92.686 108.647 91.663"></polyline>
                <path d="M117.28,90.763 L117.28,99.283 L111.203,102.793 L111.203,94.273 L117.281,90.763 M117.28,99.711 L117.28,108.231 L111.203,111.743 L111.203,103.222 L117.281,99.712" id="Shape" fill="#E2E2EB"></path>
                <polyline id="Shape" fill="#35373C" points="82.322 108.66 82.322 129.768 74.135 134.495 74.135 113.388 82.322 108.66"></polyline>
                <polyline id="Shape" fill="#1D2024" points="71.579 112.495 71.579 133.59 73.367 134.624 73.367 113.518 71.579 112.495"></polyline>
                <polyline id="Shape" fill="#545861" points="71.579 113.395 79.769 108.66 81.554 109.689 73.367 114.417 71.579 113.395"></polyline>
                <path d="M80.213,111.216 L80.213,119.736 L74.135,123.247 L74.135,114.727 L80.213,111.217 M80.213,121.443 L80.213,129.963 L74.135,133.475 L74.135,124.954 L80.213,121.444" id="Shape" fill="#E2E2EB"></path>
                <polyline id="Shape" fill="#35373C" points="82.322 167.464 82.322 188.571 74.135 193.299 74.135 172.191 82.322 167.464"></polyline>
                <polyline id="Shape" fill="#1D2024" points="71.579 171.299 71.579 192.393 73.367 193.43 73.367 172.322 71.579 171.299"></polyline>
                <polyline id="Shape" fill="#545861" points="71.579 170.922 79.769 166.186 81.554 167.217 73.367 171.945 71.579 170.922"></polyline>
                <path d="M80.214,168.742 L80.214,177.264 L74.135,180.774 L74.135,172.253 L80.215,168.743 M80.214,178.97 L80.214,187.49 L74.135,191 L74.135,182.48 L80.215,178.97" id="Shape" fill="#E2E2EB"></path>
                <polyline id="Shape" fill="#35373C" points="100.217 157.237 100.217 178.344 92.03 183.071 92.03 161.964 100.217 157.237"></polyline>
                <polyline id="Shape" fill="#1D2024" points="89.474 161.072 89.474 182.168 91.262 183.202 91.262 162.095 89.474 161.072"></polyline>
                <polyline id="Shape" fill="#545861" points="89.474 160.694 97.664 155.959 99.449 156.989 91.262 161.716 89.474 160.694"></polyline>
                <path d="M99.387,158.515 L99.387,167.035 L93.308,170.546 L93.308,162.026 L99.388,158.516 M99.387,168.742 L99.387,177.262 L93.308,180.772 L93.308,172.252 L99.388,168.742" id="Shape" fill="#E2E2EB"></path>
                <polyline id="Shape" fill="#35373C" points="118.112 145.732 118.112 166.84 109.925 171.567 109.925 150.461 118.112 145.732"></polyline>
                <polyline id="Shape" fill="#1D2024" points="108.647 149.567 108.647 170.662 110.435 171.697 110.435 150.59 108.647 149.567"></polyline>
                <polyline id="Shape" fill="#545861" points="108.647 150.467 116.836 145.732 118.622 146.761 110.435 151.49 108.647 150.467"></polyline>
                <path d="M117.28,148.289 L117.28,156.809 L111.203,160.319 L111.203,151.799 L117.281,148.289 M117.28,158.515 L117.28,167.035 L111.203,170.547 L111.203,162.026 L117.281,158.516" id="Shape" fill="#E2E2EB"></path>
                <polyline id="Shape" fill="#35373C" points="39.624 76.701 39.624 97.809 47.812 102.536 47.812 81.43 39.624 76.7"></polyline>
                <polyline id="Shape" fill="#1D2024" points="50.36 80.536 50.36 101.63 48.571 102.666 48.571 81.559 50.36 80.536"></polyline>
                <polyline id="Shape" fill="#545861" points="49.6 80.159 41.411 75.423 39.624 76.453 47.812 81.182 49.6 80.159"></polyline>
                <path d="M40.902,77.98 L40.902,86.5 L46.982,90.01 L46.982,81.49 L40.902,77.98 M40.902,88.206 L40.902,96.726 L46.982,100.236 L46.982,91.716 L40.902,88.206" id="Shape" fill="#E2E2EB"></path>
                <polyline id="Shape" fill="#35373C" points="21.73 66.474 21.73 87.581 29.916 92.31 29.916 71.2 21.729 66.474"></polyline>
                <polyline id="Shape" fill="#1D2024" points="31.185 69.03 31.185 90.126 29.398 91.162 29.398 70.052 31.185 69.031"></polyline>
                <polyline id="Shape" fill="#545861" points="31.703 69.932 23.513 65.196 21.729 66.228 29.916 70.954 31.703 69.932"></polyline>
                <path d="M23.008,67.753 L23.008,76.273 L29.088,79.786 L29.088,71.264 L23.008,67.753 M23.008,77.98 L23.008,86.5 L29.088,90.01 L29.088,81.49 L23.008,77.98" id="Shape" fill="#E2E2EB"></path>
                <polyline id="Shape" fill="#35373C" points="39.624 109.938 39.624 131.045 47.812 135.774 47.812 114.665 39.624 109.938"></polyline>
                <polyline id="Shape" fill="#1D2024" points="50.36 113.773 50.36 134.869 48.571 135.904 48.571 114.796 50.36 113.773"></polyline>
                <polyline id="Shape" fill="#545861" points="49.6 114.673 41.411 109.938 39.624 110.968 47.812 115.696 49.6 114.673"></polyline>
                <path d="M40.902,112.495 L40.902,121.015 L46.982,124.527 L46.982,116.005 L40.902,112.495 M40.902,122.722 L40.902,131.242 L46.982,134.752 L46.982,126.232 L40.902,122.722" id="Shape" fill="#E2E2EB"></path>
                <polyline id="Shape" fill="#35373C" points="21.73 99.711 21.73 120.819 29.916 125.547 29.916 104.44 21.729 99.711"></polyline>
                <polyline id="Shape" fill="#1D2024" points="31.185 103.546 31.185 124.642 29.398 125.676 29.398 104.569 31.185 103.546"></polyline>
                <polyline id="Shape" fill="#545861" points="31.703 103.168 23.513 98.433 21.729 99.463 29.916 104.191 31.703 103.168"></polyline>
                <path d="M23.008,102.268 L23.008,110.788 L29.088,114.298 L29.088,105.778 L23.008,102.268 M23.008,112.495 L23.008,121.015 L29.088,124.527 L29.088,116.005 L23.008,112.495" id="Shape" fill="#E2E2EB"></path>
                <polyline id="Shape" fill="#35373C" points="29.277 159.43 29.277 194.862 18.405 188.58 16.622 189.619 16.617 189.619 16.617 189.615 16.622 152.124 29.277 159.429"></polyline>
                <polyline id="Shape" fill="#1D2024" points="18.405 153.155 18.405 188.584 16.617 189.619 16.62 152.124 18.405 153.155"></polyline>
                <polyline id="Shape" fill="#E2E2EB" points="19.173 155.959 19.173 179.829 27.793 184.805 27.793 160.937 19.173 155.959"></polyline>
                <polyline id="Shape" fill="#121414" points="20.106 156.497 20.106 179.287 19.173 179.827 19.175 155.959 20.106 156.497"></polyline>
                <polyline id="Shape" fill="#353837" points="19.173 179.51 20.106 178.97 27.796 183.409 27.796 184.488 19.173 179.51"></polyline>
                <polyline id="Shape" fill="#C2C4C7" points="74.135 20.382 80.593 24.111 80.593 21.626 74.135 17.896 74.135 20.382"></polyline>
                <path d="M73.798,17.897 L73.798,20.382 L65.188,25.354 L65.188,22.868 L73.798,17.897 M84.831,21.732 L84.831,25.587 L74.135,31.772 L74.135,27.906 L84.831,21.732" id="Shape" fill="#A4A6BB"></path>
                <polyline id="Shape" fill="#C2C4C7" points="63.91 21.732 63.91 25.587 74.603 31.772 74.603 27.906 63.91 21.732"></polyline>
                <path d="M68.174,21.623 L74.631,17.894 L81.089,21.624 L74.631,25.351 L68.174,21.623 Z M74.612,15.34 L63.91,21.51 L74.603,27.685 L85.3,21.511 L74.612,15.341 L74.612,15.34 Z" id="Shape" fill="#EBEBE7"></path>
                <polyline id="Shape" fill="#9093A4" points="74.606 20.454 70.3 22.94 74.605 25.425 78.91 22.94 74.605 20.454"></polyline>
                <polyline id="Shape" fill="#BEC0CF" points="106.724 20.454 106.724 34.212 94.586 41.526 94.586 27.762 106.724 20.454"></polyline>
                <polyline id="Shape" fill="#D6D8DD" points="83.083 20.454 83.083 34.21 95.332 41.288 95.332 27.525 83.082 20.454"></polyline>
                <polyline id="Shape" fill="#F3F2EF" points="83.083 20.09 95.224 12.784 107.469 19.853 95.332 27.161 83.082 20.089"></polyline>
                <polyline id="Shape" fill="#BEC0CF" points="95.491 37.072 95.491 40.995 92.031 43.082 92.031 39.157 95.491 37.072"></polyline>
                <polyline id="Shape" fill="#D6D8DD" points="88.195 37.072 88.195 40.997 91.689 43.015 91.689 39.091 88.195 37.072"></polyline>
                <polyline id="Shape" fill="#F3F2EF" points="88.195 37.878 91.658 35.794 95.15 37.81 91.689 39.895 88.195 37.878"></polyline>
                <polyline id="Shape" fill="#5D412B" points="54.204 168.742 54.204 181.164 43.459 187.368 54.204 168.742"></polyline>
                <polyline id="Shape" fill="#73513A" points="10.684 144.454 0 162.922 43.48 188.027 54.226 169.402 10.684 144.454"></polyline>
                <path d="M14.518,145.732 L3.835,164.199 L7.189,166.136 L17.863,147.633 L14.518,145.732 M20.91,149.567 L10.226,168.034 L13.58,169.971 L24.24,151.495 L20.91,149.567 M28.578,153.402 L17.895,171.87 L21.249,173.807 L31.906,155.333 L28.578,153.403 M34.969,157.237 L24.286,175.704 L27.64,177.64 L38.297,159.169 L34.969,157.237 M41.361,161.072 L30.677,179.54 L34.031,181.477 L44.705,163.005 L41.361,161.073 M47.75,164.907 L37.068,183.373 L40.42,185.31 L51.077,166.843 L47.751,164.907" id="Shape" fill="#FFFCF2"></path>
                <polyline id="Shape" fill="#35373C" points="14.06 127.835 14.06 148.942 50.035 169.715 50.035 148.607 14.06 127.835"></polyline>
                <polyline id="Shape" fill="#1D2024" points="53.124 147.01 53.124 168.106 49.85 169.998 49.85 148.889 53.124 147.01"></polyline>
                <polyline id="Shape" fill="#545861" points="53.31 147.339 17.33 126.557 14.06 128.447 50.034 149.218 53.309 147.338"></polyline>
                <path d="M107.69,247.587 C104.672,247.587 101.65,246.92 99.346,245.589 C94.726,242.921 94.701,238.605 99.292,235.936 C101.582,234.606 104.596,233.938 107.613,233.938 C110.626,233.938 113.643,234.603 115.953,235.936 C120.559,238.596 120.583,242.93 116.009,245.589 C113.714,246.922 110.704,247.587 107.69,247.587" id="Shape" fill="#98A4AD"></path>
                <polyline id="Shape" fill="#589351" points="107.37 237.222 112.585 240.234 112.585 238.228 107.368 235.216 107.37 237.222"></polyline>
                <path d="M107.93,235.216 L107.93,237.222 L100.977,241.239 L100.977,239.232 L107.93,235.216 M116.005,237.773 L116.005,240.887 L107.368,245.88 L107.368,242.761 L116.005,237.773" id="Shape" fill="#315D48"></path>
                <polyline id="Shape" fill="#589351" points="98.421 237.773 98.422 240.887 107.058 245.88 107.058 242.761 98.421 237.773"></polyline>
                <path d="M101.865,237.734 L107.078,234.722 L112.295,237.734 L107.078,240.744 L101.865,237.734 Z M107.065,232.66 L98.421,237.642 L107.058,242.63 L115.695,237.642 L107.065,232.66 Z" id="Shape" fill="#9FC850"></path>
                <polyline id="Shape" fill="#1A1E15" points="107.01 237.773 103.534 239.783 107.009 241.79 110.487 239.781 107.011 237.773"></polyline>
                <polyline id="Shape" fill="#2A311E" points="109.415 205.814 109.414 238.998 107.368 240.182 107.368 206.997 109.415 205.814"></polyline>
                <polyline id="Shape" fill="#434A2D" points="104.812 205.814 104.812 238.998 106.858 240.182 106.858 206.997 104.812 205.814"></polyline>
                <polyline id="Shape" fill="#4F5536" points="104.812 205.716 106.861 204.536 108.905 205.716 106.858 206.898 104.812 205.716"></polyline>
                <polyline id="Shape" fill="#2A311E" points="114.526 219.876 114.526 222.204 112.481 223.388 112.481 221.058 114.526 219.876"></polyline>
                <polyline id="Shape" fill="#434A2D" points="107.368 218.598 107.37 220.928 112.367 223.815 112.367 221.485 107.368 218.598"></polyline>
                <polyline id="Shape" fill="#4F5536" points="107.368 218.5 109.416 217.32 114.413 220.205 112.367 221.386 107.368 218.5"></polyline>
                <polyline id="Shape" fill="#2A311E" points="114.526 214.763 114.526 220.85 112.481 222.034 112.481 215.944 114.526 214.763"></polyline>
                <polyline id="Shape" fill="#434A2D" points="109.925 214.763 109.925 220.85 111.971 222.034 111.971 215.944 109.925 214.763"></polyline>
                <polyline id="Shape" fill="#4F5536" points="109.925 214.666 111.974 213.485 114.016 214.665 111.971 215.847 109.925 214.666"></polyline>
                <polyline id="Shape" fill="#434A2D" points="100.977 216.041 100.977 218.369 103.025 219.552 103.025 217.222 100.977 216.042"></polyline>
                <polyline id="Shape" fill="#2A311E" points="107.253 214.763 107.253 217.091 102.256 219.979 102.256 217.649 107.253 214.763"></polyline>
                <polyline id="Shape" fill="#4F5536" points="108.023 214.664 105.975 213.484 100.977 216.37 103.025 217.551 108.023 214.664"></polyline>
                <polyline id="Shape" fill="#434A2D" points="100.977 212.206 100.977 216.641 103.025 217.823 103.025 213.387 100.977 212.207"></polyline>
                <polyline id="Shape" fill="#2A311E" points="104.3 212.206 104.3 216.641 102.256 217.823 102.256 213.387 104.301 212.207"></polyline>
                <polyline id="Shape" fill="#4F5536" points="105.07 212.109 103.023 210.928 100.977 212.109 103.025 213.29 105.07 212.109"></polyline>
                <path d="M127.596,196.757 C127.596,207.286 119.06,215.817 108.538,215.817 C98.011,215.817 89.474,207.286 89.474,196.757 C89.474,195.225 89.655,193.735 90.003,192.305 C92.001,183.921 99.545,177.691 108.538,177.691 C109.963,177.691 111.354,177.845 112.687,178.148 C121.217,180.043 127.596,187.653 127.596,196.758" id="Shape" fill="#4B7036"></path>
                <path d="M122.796,193.657 C122.796,202.859 115.336,210.321 106.136,210.321 C96.928,210.321 89.474,202.859 89.474,193.657 C89.474,193.201 89.494,192.75 89.532,192.305 C91.53,183.921 99.074,177.691 108.068,177.691 C109.493,177.691 110.883,177.845 112.217,178.148 C118.415,180.571 122.797,186.602 122.797,193.658" id="Shape" fill="#5D9942"></path>
                <path d="M103.237,190.964 C103.270706,192.531345 102.453817,193.994273 101.101796,194.787838 C99.749775,195.581402 98.074225,195.581402 96.7222038,194.787838 C95.3701827,193.994273 94.5532937,192.531345 94.587,190.964 C94.6375891,188.611605 96.5590616,186.731011 98.912,186.731011 C101.264938,186.731011 103.186411,188.611605 103.237,190.964" id="Shape" fill="#76BA4B"></path>
                <path d="M109.6,207.572 C109.6,212.779 105.38,216.997 100.177,216.997 C97.2899825,216.997266 94.562124,215.674208 92.7749332,213.406871 C90.9877423,211.139533 90.3384231,208.178101 91.013,205.371 C92.1326106,200.731414 96.5436827,197.661089 101.283333,198.22234 C106.022984,198.783591 109.594963,202.799237 109.6,207.572" id="Shape" fill="#4B7036"></path>
                <path d="M107.228,206.04 C107.157887,210.539678 103.490224,214.150637 98.99,214.150637 C94.4897763,214.150637 90.822113,210.539678 90.752,206.04 C90.752,205.814 90.762,205.59 90.782,205.37 C91.9827214,200.366443 96.9746048,197.250689 101.997,198.37 C105.153531,199.605635 107.229578,202.65024 107.227,206.04" id="Shape" fill="#5D9942"></path>
                <path d="M97.585,204.12 C97.6012082,204.895042 97.1968084,205.618194 96.5279898,206.010157 C95.8591712,206.40212 95.0306256,206.401539 94.3623575,206.008638 C93.6940895,205.615738 93.2907046,204.892019 93.308,204.117 C93.3336897,202.953964 94.2841591,202.024692 95.4474786,202.025236 C96.6107981,202.02578 97.560398,202.955941 97.585,204.119" id="Shape" fill="#76BA4B"></path>
                <path d="M119.994,212.13 C119.999631,214.567463 118.601758,216.79048 116.402518,217.84148 C114.203278,218.89248 111.595495,218.583735 109.702479,217.048239 C107.809464,215.512742 106.969342,213.024761 107.544,210.656 C108.290082,207.544612 111.246192,205.483623 114.423621,205.859554 C117.601049,206.235486 119.99459,208.92941 119.994,212.129" id="Shape" fill="#4B7036"></path>
                <path d="M118.406,211.103 C118.444013,213.099792 117.400491,214.961388 115.677276,215.970919 C113.954061,216.980449 111.819939,216.980449 110.096724,215.970919 C108.373509,214.961388 107.329987,213.099792 107.368,211.103 C107.368,210.951 107.375,210.803 107.388,210.656 C108.191187,207.302708 111.536743,205.214518 114.902,205.966 C117.016758,206.792941 118.407833,208.83231 118.406,211.103" id="Shape" fill="#5D9942"></path>
                <path d="M111.514,211.083 C111.514,211.873 110.872,212.514 110.079,212.514 C109.287852,212.514 108.6465,211.872648 108.6465,211.0815 C108.6465,210.290352 109.287852,209.649 110.079,209.649 C110.872,209.649 111.514,210.291 111.514,211.083" id="Shape" fill="#76BA4B"></path>
                <polyline id="Shape" fill="#98A4AD" points="138.035 241.55 122.707 232.7 153.771 214.763 169.123 223.628 138.035 241.551"></polyline>
                <polyline id="Shape" fill="#D3D4CE" points="153.383 205.425 154.913 204.536 167.9 212.036 166.371 212.923 153.383 205.425"></polyline>
                <polyline id="Shape" fill="#7A7B7A" points="166.333 224.219 166.371 213.313 153.383 205.814 153.401 216.751 166.333 224.219"></polyline>
                <polyline id="Shape" fill="#C3C3C0" points="166.165 223.999 167.695 223.111 167.732 212.206 166.204 213.093 166.165 223.999"></polyline>
                <polyline id="Shape" fill="#D3D4CE" points="127.82 221 140.796 228.494 167.116 213.321 154.117 205.814 127.82 221"></polyline>
                <polyline id="Shape" fill="#C3C3C0" points="166.92 213.485 140.602 228.645 140.602 230.432 166.9 215.246 166.92 213.485"></polyline>
                <polyline id="Shape" fill="#C3C3C0" points="140.796 230.423 127.82 222.93 127.82 221.155 140.796 228.651 140.796 230.423"></polyline>
                <polyline id="Shape" fill="#D3D4CE" points="126.541 222.044 128.071 221.154 141.057 228.654 139.527 229.544 126.541 222.044"></polyline>
                <polyline id="Shape" fill="#ADACAC" points="139.49 239.558 139.528 228.653 126.541 221.155 126.558 232.09 139.491 239.558"></polyline>
                <polyline id="Shape" fill="#C3C3C0" points="139.323 240.618 140.852 239.729 140.889 228.825 139.36 229.713 139.323 240.618"></polyline>
            </g>
            <g id="square-1" transform="translate(51.000000, 159.000000)" fill-rule="nonzero">
                <polyline id="Shape" fill="#315D48" points="166.173 84 166.173 87.32 83 135.351 83 132.021 166.173 84"></polyline>
                <polyline id="Shape" fill="#589351" points="0 84 0.001 87.319 83.291 135.418 83.291 132.088 0 84"></polyline>
                <polyline id="Shape" fill="#9FC850" points="0 84.014 83.184 36 166.464 84.081 83.291 132.102 0 84.014"></polyline>
                <path d="M142.251,89.676 C139.89,89.676 137.527,89.155 135.724,88.114 C132.109,86.026 132.089,82.651 135.682,80.563 C137.473,79.522 139.83,79 142.192,79 C144.549,79 146.91,79.52 148.717,80.563 C152.32,82.643 152.339,86.034 148.759,88.114 C146.965,89.156 144.609,89.676 142.251,89.676" id="Shape" fill="#6C883B"></path>
                <polyline id="Shape" fill="#589351" points="142.001 81.569 146.08 83.925 146.08 82.355 142 80 142.001 81.569"></polyline>
                <path d="M141.439,80 L141.44,81.569 L136,84.71 L136,83.141 L141.439,80 M148.756,82 L148.756,84.436 L142,88.342 L142,85.901 L148.756,82" id="Shape" fill="#315D48"></path>
                <polyline id="Shape" fill="#589351" points="135 82 135.001 84.436 141.757 88.342 141.757 85.901 135 82"></polyline>
                <path d="M137.694,81.968 L141.773,79.613 L145.853,81.968 L141.773,84.323 L137.694,81.968 Z M141.762,78 L135,81.897 L141.757,85.799 L148.513,81.897 L141.762,78 Z" id="Shape" fill="#9FC850"></path>
                <polyline id="Shape" fill="#1A1E15" points="141.72 82 139 83.571 141.719 85.141 144.439 83.571 141.72 82"></polyline>
                <polyline id="Shape" fill="#2A311E" points="143.602 57 143.602 82.958 142 83.884 142 57.925 143.602 57"></polyline>
                <polyline id="Shape" fill="#434A2D" points="140 57 140 82.958 141.6 83.884 141.6 57.925 140 57"></polyline>
                <polyline id="Shape" fill="#4F5536" points="140 57.923 141.602 57 143.202 57.923 141.6 58.848 140 57.923"></polyline>
                <polyline id="Shape" fill="#2A311E" points="147.601 68 147.6 69.821 146 70.746 146 68.924 147.601 68"></polyline>
                <polyline id="Shape" fill="#434A2D" points="142 67 142.001 68.821 145.912 71.08 145.912 69.258 142 67"></polyline>
                <polyline id="Shape" fill="#4F5536" points="142 66.923 143.603 66 147.513 68.257 145.912 69.181 142 66.923"></polyline>
                <polyline id="Shape" fill="#2A311E" points="147.601 64 147.6 68.762 146 69.688 146 64.924 147.601 64"></polyline>
                <polyline id="Shape" fill="#434A2D" points="144 64 144 68.762 145.601 69.688 145.601 64.924 144 64"></polyline>
                <polyline id="Shape" fill="#4F5536" points="144 63.924 145.602 63 147.202 63.924 145.601 64.848 144 63.924"></polyline>
                <polyline id="Shape" fill="#434A2D" points="136 65 136 66.821 137.601 67.746 137.601 65.924 136 65"></polyline>
                <polyline id="Shape" fill="#2A311E" points="141.91 64 141.91 65.821 138 68.08 138 66.258 141.91 64"></polyline>
                <polyline id="Shape" fill="#4F5536" points="141.511 63.924 139.909 63 136 65.258 137.601 66.182 141.511 63.924"></polyline>
                <polyline id="Shape" fill="#434A2D" points="136 62 136 65.468 137.601 66.394 137.601 62.924 136 62"></polyline>
                <polyline id="Shape" fill="#2A311E" points="139.601 62 139.6 65.468 138 66.394 138 62.924 139.601 62"></polyline>
                <polyline id="Shape" fill="#4F5536" points="139.202 61.924 137.599 61 136 61.924 137.601 62.848 139.202 61.924"></polyline>
                <path d="M157.824,49.915 C157.824,58.151 151.146,64.824 142.914,64.824 C134.678,64.824 128,58.151 128,49.915 C128,48.715 128.141,47.551 128.413,46.431 C129.975,39.874 135.877,35 142.914,35 C144.028,35 145.117,35.121 146.16,35.358 C152.834,36.84 157.824,42.793 157.824,49.915" id="Shape" fill="#4B7036"></path>
                <path d="M154.07,47.49 C154.07,54.688 148.233,60.525 141.035,60.525 C133.832,60.525 128,54.688 128,47.49 C128,47.133 128.015,46.779 128.046,46.431 C129.608,39.874 135.51,35 142.547,35 C143.661,35 144.75,35.121 145.793,35.358 C150.78718,37.3115409 154.072735,42.1273374 154.07,47.49" id="Shape" fill="#5D9942"></path>
                <path d="M138.767,45.383 C138.78802,46.6056722 138.147766,47.7445717 137.092265,48.3620564 C136.036764,48.9795412 134.730236,48.9795412 133.674735,48.3620564 C132.619234,47.7445717 131.97898,46.6056722 132,45.383 C132.031737,43.5370189 133.537246,42.05717 135.3835,42.05717 C137.229754,42.05717 138.735263,43.5370189 138.767,45.383" id="Shape" fill="#76BA4B"></path>
                <path d="M143.746,58.374 C143.746,60.329176 142.969309,62.204273 141.586791,63.5867912 C140.204273,64.9693094 138.329176,65.746 136.374,65.746 C134.115705,65.7465204 131.981754,64.7119315 130.583458,62.9386113 C129.185162,61.165291 128.676799,58.8488952 129.204,56.653 C130.080318,53.0237127 133.530938,50.6220763 137.238648,51.0608722 C140.946359,51.4996681 143.741054,54.6404179 143.746,58.374" id="Shape" fill="#4B7036"></path>
                <path d="M141.89,57.176 C141.901714,59.5489926 140.608669,61.7365212 138.524061,62.8703817 C136.439453,64.0042421 133.900438,63.9010478 131.914722,62.6017553 C129.929005,61.3024627 128.81775,59.0172151 129.022,56.653 C129.961746,52.7383174 133.867585,50.3008957 137.797,51.177 C140.266426,52.1431225 141.891064,54.5243104 141.89,57.176" id="Shape" fill="#5D9942"></path>
                <path d="M134.347,55.674 C134.346448,56.5979724 133.596972,57.3465523 132.673,57.346 C131.749028,57.3454477 131.000448,56.5959724 131.001,55.672 C131.001357,55.0742947 131.320559,54.5221828 131.838366,54.2236395 C132.356173,53.9250962 132.993917,53.9254774 133.511366,54.2246395 C134.028815,54.5238016 134.347357,55.0762947 134.347,55.674" id="Shape" fill="#76BA4B"></path>
                <path d="M150.879,61.94 C150.904348,63.7214628 149.968468,65.3785573 148.429762,66.2766865 C146.891056,67.1748156 144.987944,67.1748156 143.449238,66.2766865 C141.910532,65.3785573 140.974652,63.7214628 141,61.94 C141.038426,59.2393947 143.238621,57.0702834 145.9395,57.0702834 C148.640379,57.0702834 150.840574,59.2393947 150.879,61.94" id="Shape" fill="#4B7036"></path>
                <path d="M149.635,61.136 C149.643003,62.7255434 148.777037,64.1909504 147.380771,64.9506558 C145.984504,65.7103611 144.283747,65.6415022 142.953467,64.7714065 C141.623186,63.9013108 140.878521,62.3706937 141.015,60.787 C141.644302,58.1641191 144.261507,56.531204 146.894,57.119 C148.547965,57.7654617 149.636126,59.3601868 149.635,61.136" id="Shape" fill="#5D9942"></path>
                <path d="M145.242,61.121 C145.242,61.7395589 144.740559,62.241 144.122,62.241 C143.503441,62.241 143.002,61.7395589 143.002,61.121 C143.002,60.5024411 143.503441,60.0010001 144.122,60.0010001 C144.740559,60.0010001 145.242,60.5024411 145.242,61.121" id="Shape" fill="#76BA4B"></path>
                <path d="M81.253,54.676 C78.891,54.676 76.528,54.154 74.723,53.113 C71.109,51.026 71.09,47.65 74.682,45.563 C76.472,44.522 78.83,44 81.192,44 C83.55,44 85.911,44.52 87.717,45.563 C91.32,47.643 91.339,51.033 87.76,53.113 C85.965,54.156 83.61,54.676 81.253,54.676" id="Shape" fill="#6C883B"></path>
                <polyline id="Shape" fill="#589351" points="81 46.57 85.08 48.926 85.08 47.356 81 45 81 46.57"></polyline>
                <path d="M81.44,45 L81.44,46.57 L76,49.711 L76,48.141 L81.44,45 M87.757,48 L87.757,50.436 L81,54.343 L81,51.902 L87.757,48" id="Shape" fill="#315D48"></path>
                <polyline id="Shape" fill="#589351" points="75 48 75 50.436 81.756 54.343 81.756 51.902 75 48"></polyline>
                <path d="M77.693,47.969 L81.773,45.613 L85.853,47.969 L81.773,50.324 L77.693,47.969 Z M81.761,44 L75,47.897 L81.756,51.799 L88.513,47.897 L81.761,44 Z" id="Shape" fill="#9FC850"></path>
                <polyline id="Shape" fill="#1A1E15" points="81.72 47 79 48.571 81.72 50.141 84.44 48.571 81.72 47"></polyline>
                <polyline id="Shape" fill="#2A311E" points="82.601 23 82.601 48.958 81 49.883 81 23.924 82.601 23"></polyline>
                <polyline id="Shape" fill="#434A2D" points="80 23 80 48.958 81.601 49.883 81.601 23.924 80 23"></polyline>
                <polyline id="Shape" fill="#4F5536" points="80 22.924 81.602 22 83.202 22.924 81.601 23.848 80 22.924"></polyline>
                <polyline id="Shape" fill="#2A311E" points="86.601 34 86.601 35.821 85 36.747 85 34.925 86.601 34"></polyline>
                <polyline id="Shape" fill="#434A2D" points="81 32 81 33.821 84.911 36.08 84.911 34.258 81 32"></polyline>
                <polyline id="Shape" fill="#4F5536" points="81 31.924 82.602 31 86.512 33.257 84.911 34.182 81 31.924"></polyline>
                <polyline id="Shape" fill="#2A311E" points="86.601 29 86.601 33.762 85 34.688 85 29.924 86.601 29"></polyline>
                <polyline id="Shape" fill="#434A2D" points="84 29 84 33.762 85.601 34.688 85.601 29.924 84 29"></polyline>
                <polyline id="Shape" fill="#4F5536" points="84 28.924 85.602 28 87.202 28.924 85.601 29.848 84 28.924"></polyline>
                <polyline id="Shape" fill="#434A2D" points="76 31 76.001 32.821 77.601 33.747 77.601 31.925 76 31"></polyline>
                <polyline id="Shape" fill="#2A311E" points="81.911 29 81.911 30.821 78 33.081 78 31.259 81.911 29"></polyline>
                <polyline id="Shape" fill="#4F5536" points="81.512 28.923 79.91 28 76 30.257 77.601 31.182 81.512 28.923"></polyline>
                <polyline id="Shape" fill="#434A2D" points="76 27 76.001 30.469 77.601 31.394 77.601 27.925 76 27"></polyline>
                <polyline id="Shape" fill="#2A311E" points="79.601 27 79.601 30.469 78 31.394 78 27.925 79.601 27"></polyline>
                <polyline id="Shape" fill="#4F5536" points="79.202 26.923 77.6 26 76 26.923 77.601 27.848 79.202 26.923"></polyline>
                <path d="M96.824,14.915 C96.824,23.151 90.145,29.825 81.914,29.825 C73.678,29.825 67,23.151 67,14.915 C67,13.716 67.14,12.551 67.413,11.433 C68.975,4.875 74.878,0 81.914,0 C83.028,0 84.117,0.121 85.161,0.358 C91.834,1.84 96.824,7.793 96.824,14.915" id="Shape" fill="#4B7036"></path>
                <path d="M94.069,12.491 C94.069,19.688 88.232,25.525 81.034,25.525 C73.832,25.525 68,19.688 68,12.491 C68,12.133 68.015,11.78 68.045,11.433 C69.607,4.875 75.51,0 82.546,0 C83.66,0 84.749,0.121 85.793,0.358 C90.7867605,2.31245533 94.071745,7.12839504 94.069,12.491" id="Shape" fill="#5D9942"></path>
                <path d="M78.768,10.383 C78.768,12.2519316 77.2529316,13.767 75.384,13.767 C73.5150684,13.767 72,12.2519316 72,10.383 C72,9.48559933 72.3565594,8.62496846 72.9912113,7.99050414 C73.6258632,7.35603981 74.4865994,6.99973473 75.384,7 C76.2814006,6.99973473 77.1421368,7.35603981 77.7767887,7.99050414 C78.4114406,8.62496846 78.768,9.48559933 78.768,10.383" id="Shape" fill="#76BA4B"></path>
                <path d="M82.747,23.375 C82.747,27.4472716 79.4457716,30.7485 75.3735,30.7485 C71.3012284,30.7485 68,27.4472716 68,23.375 C68,19.3027284 71.3012284,16.0015 75.3735,16.0015 C79.4457716,16.0015 82.747,19.3027284 82.747,23.375" id="Shape" fill="#4B7036"></path>
                <path d="M80.89,22.176 C80.9310401,24.5056376 79.7116849,26.6760909 77.7007217,27.8529181 C75.6897585,29.0297454 73.2002415,29.0297454 71.1892783,27.8529181 C69.1783151,26.6760909 67.9589599,24.5056376 68,22.176 C68,21.999 68.008,21.825 68.023,21.653 C68.9622746,17.7379781 72.8684871,15.3003234 76.798,16.177 C79.2668498,17.1436736 80.8909439,19.5246463 80.89,22.176" id="Shape" fill="#5D9942"></path>
                <path d="M73.346,20.673 C73.3456428,21.2707054 73.0264407,21.8228173 72.508634,22.1213606 C71.9908274,22.4199039 71.3530833,22.4195227 70.8356339,22.1203606 C70.3181846,21.8211985 69.9996427,21.2687054 70,20.671 C70.0003573,20.0732947 70.3195594,19.5211828 70.837366,19.2226395 C71.3551727,18.9240962 71.9929167,18.9244774 72.510366,19.2236395 C73.0278154,19.5228016 73.3463573,20.0752947 73.346,20.673" id="Shape" fill="#76BA4B"></path>
                <path d="M90.878,27.939 C90.8781786,29.7033561 89.9370709,31.3337837 88.409183,32.2161165 C86.8812951,33.0984492 84.9987495,33.0986398 83.470683,32.2166165 C81.9426165,31.3345931 81.0011786,29.7043561 81.001,27.94 C81.0008214,26.1756439 81.9419291,24.5452163 83.469817,23.6628835 C84.9977049,22.7805508 86.8802505,22.7803602 88.408317,23.6623835 C89.9363835,24.5444069 90.8778214,26.1746439 90.878,27.939" id="Shape" fill="#4B7036"></path>
                <path d="M89.636,27.136 C89.5854525,29.4845579 87.6671018,31.3620645 85.318,31.3620645 C82.9688982,31.3620645 81.0505475,29.4845579 81,27.136 C81,27.017 81.006,26.901 81.016,26.786 C81.644838,24.1632579 84.2617455,22.5302507 86.894,23.118 C88.5481484,23.7649646 89.6365328,25.3598328 89.636,27.136" id="Shape" fill="#5D9942"></path>
                <path d="M84.242,26.121 C84.242,26.7401112 83.7401112,27.242 83.121,27.242 C82.5018888,27.242 82,26.7401112 82,26.121 C82,25.5018888 82.5018888,25 83.121,25 C83.7401112,25 84.242,25.5018888 84.242,26.121" id="Shape" fill="#76BA4B"></path>
                <path d="M21.252,89.676 C18.891,89.676 16.528,89.155 14.725,88.114 C11.109,86.026 11.09,82.65 14.682,80.563 C16.472,79.522 18.832,79 21.192,79 C23.55,79 25.911,79.52 27.717,80.563 C31.32,82.643 31.339,86.033 27.76,88.114 C25.965,89.156 23.61,89.676 21.252,89.676" id="Shape" fill="#6C883B"></path>
                <polyline id="Shape" fill="#589351" points="21 81.57 25.08 83.926 25.08 82.356 21 80 21 81.57"></polyline>
                <path d="M21.439,80 L21.439,81.57 L16,84.711 L16,83.141 L21.439,80 M27.756,82 L27.756,84.436 L21,88.343 L21,85.902 L27.756,82" id="Shape" fill="#315D48"></path>
                <polyline id="Shape" fill="#589351" points="15 82 15 84.436 21.757 88.343 21.757 85.902 15 82"></polyline>
                <path d="M17.694,81.969 L21.773,79.613 L25.853,81.969 L21.773,84.324 L17.694,81.969 L17.694,81.969 Z M21.762,78 L15,81.898 L21.757,85.799 L28.513,81.898 L21.762,78 Z" id="Shape" fill="#9FC850"></path>
                <polyline id="Shape" fill="#1A1E15" points="21.72 81 19 82.571 21.72 84.141 24.44 82.571 21.72 81"></polyline>
                <polyline id="Shape" fill="#2A311E" points="22.601 57 22.601 82.958 21 83.884 21 57.924 22.601 57"></polyline>
                <polyline id="Shape" fill="#434A2D" points="20 57 20 82.958 21.6 83.884 21.6 57.924 20 57"></polyline>
                <polyline id="Shape" fill="#4F5536" points="20 56.924 21.602 56 23.201 56.924 21.6 57.848 20 56.924"></polyline>
                <polyline id="Shape" fill="#2A311E" points="26.601 68 26.601 69.821 25 70.746 25 68.924 26.601 68"></polyline>
                <polyline id="Shape" fill="#434A2D" points="21 67 21 68.821 24.911 71.08 24.911 69.258 21 67"></polyline>
                <polyline id="Shape" fill="#4F5536" points="21 66.924 22.602 66 26.512 68.258 24.911 69.182 21 66.924"></polyline>
                <polyline id="Shape" fill="#2A311E" points="26.601 64 26.601 68.763 25 69.688 25 64.925 26.601 64"></polyline>
                <polyline id="Shape" fill="#434A2D" points="24 64 24 68.763 25.601 69.688 25.601 64.925 24 64"></polyline>
                <polyline id="Shape" fill="#4F5536" points="24 63.924 25.602 63 27.202 63.924 25.601 64.849 24 63.924"></polyline>
                <polyline id="Shape" fill="#434A2D" points="16 65 16 66.821 17.601 67.747 17.601 65.925 16 65"></polyline>
                <polyline id="Shape" fill="#2A311E" points="20.91 64 20.91 65.82 17 68.08 17 66.258 20.91 64"></polyline>
                <polyline id="Shape" fill="#4F5536" points="21.511 63.924 19.909 63 16 65.257 17.601 66.182 21.511 63.924"></polyline>
                <polyline id="Shape" fill="#434A2D" points="16 62 16 65.469 17.601 66.394 17.601 62.925 16 62"></polyline>
                <polyline id="Shape" fill="#2A311E" points="18.6 62 18.6 65.469 17 66.394 17 62.925 18.6 62"></polyline>
                <polyline id="Shape" fill="#4F5536" points="19.201 61.923 17.599 61 16 61.923 17.601 62.848 19.201 61.923"></polyline>
                <path d="M36.825,49.914 C36.825,58.15 30.146,64.824 21.915,64.824 C13.679,64.824 7,58.15 7,49.914 C7,48.715 7.141,47.551 7.413,46.432 C8.976,39.874 14.878,35 21.915,35 C23.029,35 24.118,35.121 25.161,35.357 C31.834,36.84 36.825,42.792 36.825,49.914" id="Shape" fill="#4B7036"></path>
                <path d="M34.069,47.49 C34.069,54.687 28.233,60.524 21.035,60.524 C13.832,60.524 8,54.687 8,47.49 C8,47.132 8.015,46.779 8.045,46.432 C9.608,39.874 15.51,35 22.547,35 C23.661,35 24.75,35.121 25.793,35.357 C30.7867605,37.3114553 34.071745,42.127395 34.069,47.49" id="Shape" fill="#5D9942"></path>
                <path d="M18.767,45.383 C18.7673573,46.5916295 18.1228913,47.7086398 17.076366,48.313264 C16.0298408,48.9178881 14.7402485,48.9182693 13.693366,48.314264 C12.6464835,47.7102586 12.0013572,46.5936295 12.001,45.385 C12.0006427,44.1763705 12.6451088,43.0593602 13.691634,42.4547361 C14.7381592,41.8501119 16.0277515,41.8497307 17.074634,42.4537361 C18.1215165,43.0577414 18.7666427,44.1743705 18.767,45.383" id="Shape" fill="#76BA4B"></path>
                <path d="M22.746,57.375 C22.7461437,60.2173145 21.1124746,62.8066076 18.5470175,64.0302012 C15.9815603,65.2537949 12.9412157,64.8937706 10.7324886,63.1048389 C8.52376148,61.3159073 7.54001993,58.4166719 8.204,55.653 C9.08036527,52.02353 12.5312753,49.6218667 16.2391436,50.0609362 C19.9470118,50.5000057 22.7415576,53.6412286 22.746,57.375" id="Shape" fill="#4B7036"></path>
                <path d="M20.891,56.176 C20.8470496,59.7044399 17.9742136,62.5417146 14.4455,62.5417146 C10.9167864,62.5417146 8.0439504,59.7044399 8,56.176 C8,56 8.008,55.826 8.023,55.653 C8.96319638,51.7387229 12.8688948,49.3018342 16.798,50.178 C19.2672694,51.1437594 20.8919334,53.5245887 20.891,56.176" id="Shape" fill="#5D9942"></path>
                <path d="M13.346,55.673 C13.360672,56.2806406 13.0448235,56.8484912 12.5208392,57.1565217 C11.9968548,57.4645522 11.3470744,57.464358 10.8232742,57.1560145 C10.299474,56.847671 9.98396489,56.2796317 9.999,55.672 C10.021475,54.7636905 10.7644005,54.039137 11.6729879,54.0394085 C12.5815754,54.03968 13.3240677,54.7646773 13.346,55.673" id="Shape" fill="#76BA4B"></path>
                <path d="M30.879,61.939 C30.879,64.6667344 28.6677344,66.878 25.94,66.878 C23.2122656,66.878 21.001,64.6667344 21.001,61.939 C21.001,59.2112656 23.2122656,57 25.94,57 C28.6677344,57 30.879,59.2112656 30.879,61.939" id="Shape" fill="#4B7036"></path>
                <path d="M29.635,61.136 C29.6426548,62.7254385 28.7764831,64.1905752 27.3801961,64.9500198 C25.9839091,65.7094645 24.2832884,65.6404137 22.9531681,64.7702681 C21.6230477,63.9001225 20.8785102,62.3695858 21.015,60.786 C21.6447803,58.1639367 24.260941,56.5313954 26.893,57.118 C28.5471484,57.7649646 29.6355328,59.3598328 29.635,61.136" id="Shape" fill="#5D9942"></path>
                <path d="M24.242,60.12 C24.242,60.7391112 23.7401112,61.241 23.121,61.241 C22.5018888,61.241 22,60.7391112 22,60.12 C22,59.5008888 22.5018888,58.999 23.121,58.999 C23.7401112,58.999 24.242,59.5008888 24.242,60.12" id="Shape" fill="#76BA4B"></path>
                <path d="M105.866,68.758 C119.166,76.438 119.236,88.883 106.022,96.562 C92.808,104.242 71.322,104.242 58.022,96.562 C44.721,88.883 44.651,76.438 57.865,68.759 C71.079,61.08 92.565,61.08 105.865,68.759" id="Shape" fill="#E1DA8A"></path>
                <path d="M112.734,83.934 C112.244,87.987 109.319,91.965 103.978,95.069 C92.137,101.944 72.885,101.944 60.97,95.069 C55.552,91.929 52.58,87.921 52.082,83.821 C51.462,78.921 54.377,73.909 60.829,70.156 C72.669,63.281 91.921,63.281 103.837,70.156 C110.373,73.937 113.344,78.997 112.734,83.934" id="Shape" fill="#728BB9"></path>
                <path d="M112.652,84.412 C112.162,88.465 109.237,92.442 103.896,95.547 C92.055,102.422 72.803,102.422 60.888,95.547 C55.47,92.406 52.499,88.399 52,84.299 C52.48,80.245 55.405,76.267 60.747,73.164 C72.587,66.279 91.839,66.279 103.755,73.164 C109.181,76.296 112.153,80.311 112.652,84.412" id="Shape" fill="#99B9D6"></path>
                <path d="M84.252,125.676 C81.891,125.676 79.528,125.154 77.725,124.113 C74.109,122.025 74.09,118.65 77.682,116.563 C79.472,115.522 81.831,115 84.192,115 C86.549,115 88.911,115.52 90.717,116.563 C94.32,118.643 94.339,122.033 90.76,124.113 C88.965,125.156 86.61,125.676 84.252,125.676" id="Shape" fill="#6C883B"></path>
                <polyline id="Shape" fill="#589351" points="84 117.569 88.08 119.924 88.08 118.354 84 116 84 117.569"></polyline>
                <path d="M84.439,116 L84.439,117.569 L79,120.709 L79,119.14 L84.439,116 M90.757,118 L90.757,120.435 L84,124.341 L84,121.9 L90.757,118" id="Shape" fill="#315D48"></path>
                <polyline id="Shape" fill="#589351" points="77 118 77 120.435 83.756 124.341 83.756 121.9 77 118"></polyline>
                <path d="M79.694,118.968 L83.773,116.614 L87.853,118.968 L83.773,121.323 L79.694,118.968 Z M83.761,115 L77,118.898 L83.756,122.798 L90.513,118.898 L83.761,115 Z" id="Shape" fill="#9FC850"></path>
                <polyline id="Shape" fill="#1A1E15" points="84.72 118 82 119.57 84.72 121.14 87.44 119.57 84.72 118"></polyline>
                <polyline id="Shape" fill="#2A311E" points="85.601 94 85.601 119.958 84 120.883 84 94.924 85.601 94"></polyline>
                <polyline id="Shape" fill="#434A2D" points="83 94 83.001 119.958 84.601 120.883 84.601 94.924 83 94"></polyline>
                <polyline id="Shape" fill="#4F5536" points="83 93.923 84.603 93 86.202 93.923 84.601 94.847 83 93.923"></polyline>
                <polyline id="Shape" fill="#2A311E" points="89.601 104 89.601 105.821 88 106.746 88 104.923 89.601 104"></polyline>
                <polyline id="Shape" fill="#434A2D" points="84 103 84 104.821 87.911 107.08 87.911 105.257 84 103"></polyline>
                <polyline id="Shape" fill="#4F5536" points="84 102.923 85.602 102 89.512 104.257 87.911 105.18 84 102.923"></polyline>
                <polyline id="Shape" fill="#2A311E" points="89.601 100 89.601 104.762 88 105.688 88 100.924 89.601 100"></polyline>
                <polyline id="Shape" fill="#434A2D" points="87 100 87 104.762 88.601 105.688 88.601 100.924 87 100"></polyline>
                <polyline id="Shape" fill="#4F5536" points="87 99.923 88.602 99 90.202 99.923 88.601 100.847 87 99.923"></polyline>
                <polyline id="Shape" fill="#434A2D" points="79 102 79 103.822 80.601 104.746 80.601 102.924 79 102"></polyline>
                <polyline id="Shape" fill="#2A311E" points="83.911 100 83.911 101.822 80 104.08 80 102.258 83.911 100"></polyline>
                <polyline id="Shape" fill="#4F5536" points="84.512 99.924 82.91 99 79 101.258 80.601 102.182 84.512 99.924"></polyline>
                <polyline id="Shape" fill="#434A2D" points="79 98 79 101.469 80.601 102.395 80.601 98.924 79 98"></polyline>
                <polyline id="Shape" fill="#2A311E" points="81.601 98 81.601 101.469 80 102.395 80 98.924 81.601 98"></polyline>
                <polyline id="Shape" fill="#4F5536" points="82.202 97.924 80.6 97 79 97.924 80.601 98.848 82.202 97.924"></polyline>
                <path d="M99.825,85.915 C99.825,94.152 93.146,100.825 84.914,100.825 C76.679,100.825 70,94.152 70,85.915 C70,84.715 70.141,83.551 70.413,82.432 C71.976,75.874 77.878,71 84.914,71 C86.029,71 87.117,71.121 88.16,71.358 C94.834,72.84 99.825,78.793 99.825,85.915" id="Shape" fill="#4B7036"></path>
                <path d="M96.069,83.491 C96.069,90.689 90.232,96.526 83.035,96.526 C75.832,96.526 70,90.689 70,83.491 C70,83.133 70.015,82.78 70.045,82.432 C71.608,75.874 77.51,71 84.546,71 C85.661,71 86.749,71.121 87.792,71.358 C92.7865205,73.3116738 96.0721467,78.1279723 96.069,83.491" id="Shape" fill="#5D9942"></path>
                <path d="M80.767,81.384 C80.7668214,82.5933441 80.121479,83.7107288 79.074067,84.3152461 C78.0266551,84.9197635 76.7363003,84.9195729 75.6890669,84.3147461 C74.6418336,83.7099194 73.9968213,82.5923441 73.997,81.383 C73.9971786,80.173656 74.6425211,79.0562713 75.689933,78.451754 C76.737345,77.8472367 78.0276997,77.8474273 79.074933,78.452254 C80.1221663,79.0570807 80.7671786,80.174656 80.767,81.384" id="Shape" fill="#76BA4B"></path>
                <path d="M85.746,94.374 C85.7454477,98.4459955 82.4439955,101.746552 78.372,101.746 C74.3000045,101.745448 70.9994477,98.4439955 71,94.372 C71.0003573,91.7378808 72.4059733,89.3040449 74.687366,87.9872947 C76.9687588,86.6705445 79.7793305,86.6709257 82.060366,87.9882947 C84.3414015,89.3056637 85.7463573,91.7398808 85.746,94.374" id="Shape" fill="#4B7036"></path>
                <path d="M83.89,93.176 C83.8972257,95.5458582 82.6032795,97.7285049 80.5206677,98.8594373 C78.4380559,99.9903697 75.9027879,99.8871226 73.919033,98.5905901 C71.935278,97.2940577 70.823096,95.013423 71.023,92.652 C71.9627254,88.7373836 75.8687971,86.300262 79.798,87.177 C82.2675834,88.1427525 83.8920692,90.5242994 83.89,93.176" id="Shape" fill="#5D9942"></path>
                <path d="M76.346,91.674 C76.346,92.5979724 75.5969724,93.347 74.673,93.347 C73.7490276,93.347 73,92.5979724 73,91.674 C73,90.7500276 73.7490276,90.001 74.673,90.001 C75.5969724,90.001 76.346,90.7500276 76.346,91.674" id="Shape" fill="#76BA4B"></path>
                <path d="M93.879,98.941 C93.8784642,100.705892 92.9364103,102.336434 91.407701,103.218416 C89.8789917,104.100398 87.9958743,104.099826 86.4677009,103.216916 C84.9395275,102.334006 83.998464,100.702892 83.999,98.938 C83.9998285,96.2097134 86.2122134,93.9986718 88.9405,93.9995002 C91.6687866,94.0003286 93.8798283,96.2127134 93.879,98.941" id="Shape" fill="#4B7036"></path>
                <path d="M92.635,98.137 C92.6336691,99.7203693 91.7656443,101.175954 90.3732225,101.929759 C88.9808007,102.683563 87.2874492,102.614611 85.9609243,101.750093 C84.6343994,100.885575 83.8875927,99.3642355 84.015,97.786 C84.6447803,95.1639367 87.260941,93.5313954 89.893,94.118 C91.547122,94.7655579 92.6353824,96.3606412 92.635,98.137" id="Shape" fill="#5D9942"></path>
                <path d="M87.242,97.121 C87.2416428,97.5214948 87.0276513,97.8913766 86.680634,98.0913146 C86.3336167,98.2912525 85.9062939,98.2908713 85.5596339,98.0903146 C85.212974,97.8897578 84.9996427,97.5194948 85,97.119 C85.0005523,96.4998888 85.5028888,95.9984478 86.122,95.9990001 C86.7411112,95.9995524 87.2425522,96.5018888 87.242,97.121" id="Shape" fill="#76BA4B"></path>
                <polyline id="Shape" fill="#6C883B" points="119.322 74.955 95 60.935 107.012 54 131.315 68.031 119.322 74.955"></polyline>
                <polyline id="Shape" fill="#D3D4CE" points="107.356 46.696 106.16 46 96 51.867 97.196 52.562 107.356 46.696"></polyline>
                <polyline id="Shape" fill="#7A7B7A" points="97.029 61.396 97 52.866 107.16 47 107.146 55.555 97.029 61.396"></polyline>
                <polyline id="Shape" fill="#C3C3C0" points="97.225 61.225 96.029 60.531 96 52 97.196 52.695 97.225 61.225"></polyline>
                <polyline id="Shape" fill="#D3D4CE" points="127.743 58.879 117.591 64.741 97 52.871 107.168 47 127.743 58.879"></polyline>
                <path d="M97,53 L117.591,64.861 L117.591,66.258 L97.016,54.379 L97,53 M118,66.25 L128.152,60.389 L128.152,59 L118,64.863 L118,66.25" id="Shape" fill="#C3C3C0"></path>
                <polyline id="Shape" fill="#D3D4CE" points="129.357 58.696 128.161 58 118 63.867 119.197 64.561 129.357 58.696"></polyline>
                <polyline id="Shape" fill="#ADACAC" points="119.028 73.396 119 64.865 129.16 59 129.146 67.554 119.028 73.396"></polyline>
                <polyline id="Shape" fill="#C3C3C0" points="119.225 73.225 118.03 72.53 118 64 119.197 64.694 119.225 73.225"></polyline>
            </g>
            <g id="tree-1" transform="translate(218.000000, 254.000000)" fill-rule="nonzero">
                <path d="M27.05,102.412 C22.63,102.412 18.21,101.434 14.836,99.485 C8.072,95.575 8.036,89.255 14.757,85.344 C18.108,83.394 22.518,82.417 26.937,82.417 C31.347,82.417 35.767,83.393 39.145,85.344 C45.885,89.239 45.922,95.59 39.224,99.484 C35.867,101.438 31.459,102.412 27.05,102.412" id="Shape" fill="#98A4AD"></path>
                <polyline id="Shape" fill="#589351" points="26.92 87.662 34.552 92.072 34.552 89.132 26.92 84.722 26.92 87.662"></polyline>
                <path d="M26.92,84.722 L26.92,87.662 L16.74,93.542 L16.74,90.602 L26.92,84.722 M39.529,89 L39.529,93.56 L26.889,100.876 L26.889,96.305 L39.529,88.999" id="Shape" fill="#315D48"></path>
                <polyline id="Shape" fill="#589351" points="14.247 89 14.247 93.56 26.889 100.876 26.889 96.305 14.247 88.999"></polyline>
                <path d="M19.287,89.132 L26.92,84.722 L34.552,89.132 L26.92,93.542 L19.287,89.132 L19.287,89.132 Z M26.898,81.7 L14.247,89 L26.887,96.305 L39.531,88.999 L26.898,81.699 L26.898,81.7 Z" id="Shape" fill="#9FC850"></path>
                <polyline id="Shape" fill="#1A1E15" points="26.92 87.662 21.831 90.602 26.921 93.542 32.009 90.602 26.92 87.662"></polyline>
                <polyline id="Shape" fill="#2A311E" points="29.978 42.34 29.978 90.953 26.982 92.687 26.982 44.073 29.978 42.34"></polyline>
                <polyline id="Shape" fill="#434A2D" points="23.987 42.34 23.987 90.953 26.982 92.687 26.982 44.073 23.987 42.34"></polyline>
                <polyline id="Shape" fill="#4F5536" points="23.987 42.34 26.984 40.612 29.978 42.34 26.982 44.073 23.987 42.34"></polyline>
                <polyline id="Shape" fill="#2A311E" points="37.295 62.787 37.295 66.197 34.3 67.931 34.3 64.517 37.295 62.787"></polyline>
                <polyline id="Shape" fill="#434A2D" points="26.982 60.289 26.982 63.7 34.3 67.93 34.3 64.516 26.982 60.288"></polyline>
                <polyline id="Shape" fill="#4F5536" points="26.982 60.289 29.979 58.56 37.295 62.787 34.3 64.517 26.982 60.289"></polyline>
                <polyline id="Shape" fill="#2A311E" points="37.295 54.047 37.295 62.965 34.3 64.697 34.3 55.777 37.295 54.047"></polyline>
                <polyline id="Shape" fill="#434A2D" points="31.304 54.047 31.304 62.965 34.3 64.697 34.3 55.777 31.304 54.047"></polyline>
                <polyline id="Shape" fill="#4F5536" points="31.304 54.047 34.301 52.317 37.295 54.047 34.3 55.777 31.304 54.047"></polyline>
                <polyline id="Shape" fill="#434A2D" points="16.67 57.197 16.67 60.609 19.665 62.341 19.665 58.93 16.669 57.198"></polyline>
                <polyline id="Shape" fill="#2A311E" points="26.982 54.7 26.982 58.11 19.665 62.341 19.665 58.93 26.982 54.701"></polyline>
                <polyline id="Shape" fill="#4F5536" points="26.982 54.7 23.985 52.97 16.669 57.197 19.665 58.929 26.982 54.7"></polyline>
                <polyline id="Shape" fill="#434A2D" points="16.67 50.88 16.67 57.377 19.665 59.109 19.665 52.61 16.669 50.88"></polyline>
                <polyline id="Shape" fill="#2A311E" points="22.66 50.88 22.66 57.377 19.665 59.109 19.665 52.61 22.66 50.88"></polyline>
                <polyline id="Shape" fill="#4F5536" points="22.66 50.88 19.663 49.15 16.669 50.88 19.665 52.61 22.66 50.88"></polyline>
                <path d="M56.231,28.394 C56.231,43.818 43.735,56.314 28.335,56.314 C12.925,56.315 0.43,43.819 0.43,28.395 C0.43,26.148 0.692,23.968 1.203,21.873 C4.126,9.59 15.171,0.462 28.334,0.462 C30.419,0.462 32.457,0.689 34.408,1.133 C46.895,3.908 56.231,15.057 56.231,28.394" id="Shape" fill="#4B7036"></path>
                <path d="M49.892,23.853 C49.892,37.333 38.973,48.263 25.506,48.263 C12.029,48.263 1.118,37.333 1.118,23.853 C1.118,23.183 1.146,22.521 1.204,21.872 C4.126,9.59 15.171,0.462 28.334,0.462 C30.419,0.462 32.457,0.689 34.408,1.133 C43.48,4.682 49.892,13.517 49.892,23.853" id="Shape" fill="#5D9942"></path>
                <path d="M21.293,19.536 C21.293,23.036 18.458,25.874 14.961,25.874 C11.4626666,25.8717915 8.62834263,23.0343338 8.63,19.536 C8.63,16.036 11.466,13.199 14.961,13.199 C16.6410546,13.1995303 18.2520732,13.8675065 19.4395823,15.0559533 C20.6270915,16.2444001 21.2937958,17.8559455 21.293,19.536" id="Shape" fill="#76BA4B"></path>
                <path d="M30.023,43.414 C30.023,51.039 23.843,57.219 16.23,57.219 C8.611,57.219 2.431,51.039 2.431,43.414 C2.431,42.301 2.561,41.224 2.813,40.187 C4.259,34.115 9.719,29.602 16.23,29.602 C17.26,29.602 18.267,29.715 19.23,29.934 C25.405,31.306 30.023,36.818 30.023,43.414" id="Shape" fill="#4B7036"></path>
                <path d="M26.889,41.168 C26.889,47.833 21.489,53.238 14.83,53.238 C8.166,53.238 2.772,47.833 2.772,41.168 C2.772,40.837 2.785,40.511 2.813,40.187 C4.259,34.115 9.719,29.602 16.23,29.602 C17.26,29.602 18.267,29.715 19.23,29.934 C23.8524642,31.7445941 26.8924689,36.2035852 26.889,41.168" id="Shape" fill="#5D9942"></path>
                <path d="M12.748,39.033 C12.7491051,40.7629181 11.3479176,42.1663439 9.618,42.168 C7.88808237,42.1663439 6.48689489,40.7629181 6.488,39.033 C6.48744749,37.3036345 7.88863472,35.9011042 9.618,35.9 C11.3473653,35.9011042 12.7485525,37.3036345 12.748,39.033" id="Shape" fill="#76BA4B"></path>
                <path d="M44.489,51.552 C44.489,56.662 40.35,60.8 35.249,60.8 C30.144,60.8 26.007,56.661 26.007,51.552 C26.007,50.807 26.093,50.086 26.262,49.393 C27.231,45.323 30.889,42.301 35.248,42.301 C40.3538055,42.3048646 44.4902101,46.4461936 44.488,51.552" id="Shape" fill="#4B7036"></path>
                <path d="M42.39,50.049 C42.39,54.513 38.773,58.133 34.313,58.133 C29.849,58.133 26.236,54.513 26.236,50.049 C26.236,49.826 26.245,49.607 26.262,49.393 C27.231,45.323 30.889,42.301 35.248,42.301 C35.938,42.301 36.614,42.376 37.259,42.524 C40.3558565,43.7360815 42.3923903,46.7233947 42.389,50.049" id="Shape" fill="#5D9942"></path>
                <path d="M32.917,48.618 C32.9181046,49.7764173 31.9799173,50.7163954 30.8215,50.7175 C29.6630827,50.7186046 28.7231046,49.7804173 28.722,48.622 C28.7212855,47.8726354 29.1204065,47.1798128 29.7690179,46.8045117 C30.4176294,46.4292106 31.2171919,46.4284482 31.8665179,46.8025117 C32.515844,47.1765752 32.9162855,47.8686354 32.917,48.618" id="Shape" fill="#76BA4B"></path>
            </g>
        </g>
    </g>
</svg>