<?xml version="1.0" encoding="UTF-8"?>
<svg width="260px" height="126px" viewBox="0 0 260 126" version="1.1" xmlns="http://www.w3.org/2000/svg" xmlns:xlink="http://www.w3.org/1999/xlink">
    <!-- Generator: Sketch 46.1 (44463) - http://www.bohemiancoding.com/sketch -->
    <title>intelligent</title>
    <desc>Created with Sketch.</desc>
    <defs></defs>
    <g id="Page-1" stroke="none" stroke-width="1" fill="none" fill-rule="evenodd">
        <g id="intelligent" fill-rule="nonzero" fill="#FFFFFF">
            <g id="logo">
                <g id="Group">
                    <polygon id="Shape" points="0.985142393 125.112585 0.985142393 1.27586154 6.61929341 1.27586154 6.61929341 125.110631 0.985142393 125.110631"></polygon>
                    <polygon id="Shape" points="22.220652 125.112585 17.1654193 125.112585 17.1654193 1.27586154 21.4984759 1.27586154 33.3437339 56.6517692 33.3437339 1.27586154 38.3989665 1.27586154 38.3989665 125.110631 33.3437339 125.110631 33.3437339 70.0278 22.220652 23.2820308"></polygon>
                    <polygon id="Shape" points="57.7564258 125.112585 52.1242372 125.112585 52.1242372 5.88107692 44.1783377 5.88107692 44.1783377 1.27586154 65.8455831 1.27586154 65.8455831 5.87912308 57.7564258 5.87912308 57.7564258 125.112585"></polygon>
                    <polygon id="Shape" points="87.5147908 125.112585 71.6249543 125.112585 71.6249543 1.27586154 86.9378349 1.27586154 86.9378349 5.87912308 77.2610677 5.87912308 77.2610677 57.6560462 86.2156588 57.6560462 86.2156588 62.2573538 77.2610677 62.2573538 77.2610677 120.507369 87.5147908 120.507369"></polygon>
                    <polygon id="Shape" points="110.626388 125.112585 94.7365518 125.112585 94.7365518 1.27586154 100.370703 1.27586154 100.370703 120.507369 110.626388 120.507369"></polygon>
                    <polygon id="Shape" points="133.159068 125.112585 117.269231 125.112585 117.269231 1.27586154 122.903382 1.27586154 122.903382 120.507369 133.159068 120.507369"></polygon>
                    <polygon id="Shape" points="139.805835 125.112585 139.805835 1.27586154 145.439986 1.27586154 145.439986 125.110631 139.805835 125.110631"></polygon>
                    <path d="M155.98415,112.310985 L155.98415,13.9348308 C155.98415,8.75713846 156.778936,5.16010769 158.366546,3.14764615 C159.958081,1.13323077 162.723152,0.125046154 166.673533,0.125046154 C170.61999,0.125046154 173.363474,1.13323077 174.905948,3.14764615 C176.44646,5.16010769 177.217697,8.75518462 177.217697,13.9348308 L177.217697,38.8170615 L171.585508,38.8170615 L171.585508,12.9286 C171.585508,9.38236923 171.202833,6.93615385 170.443371,5.59190769 C169.683909,4.24961538 168.404401,3.57749231 166.600923,3.57749231 C164.699324,3.57749231 163.394304,4.24961538 162.685865,5.58995385 C161.971539,6.93029231 161.618301,9.37455385 161.618301,12.9149231 L161.618301,113.616154 C161.618301,117.254215 161.971539,119.698477 162.685865,120.941123 C163.394304,122.189631 164.699324,122.810954 166.600923,122.810954 C168.404401,122.810954 169.685871,122.140785 170.443371,120.804354 C171.202833,119.464015 171.585508,117.072508 171.585508,113.629831 L171.585508,62.2593077 L165.229181,62.2593077 L165.229181,57.658 L177.217697,57.658 L177.217697,112.310985 C177.217697,117.680154 176.44646,121.347523 174.905948,123.313092 C173.363474,125.278662 170.61999,126.2634 166.673533,126.2634 C162.721189,126.2634 159.956118,125.278662 158.366546,123.313092 C156.778936,121.345569 155.98415,117.680154 155.98415,112.310985 Z" id="Shape"></path>
                    <polygon id="Shape" points="203.798879 125.112585 187.909043 125.112585 187.909043 1.27586154 203.221924 1.27586154 203.221924 5.87912308 193.545156 5.87912308 193.545156 57.6560462 202.50171 57.6560462 202.50171 62.2573538 193.545156 62.2573538 193.545156 120.507369 203.800842 120.507369 203.800842 125.112585"></polygon>
                    <polygon id="Shape" points="216.077836 125.112585 211.02064 125.112585 211.02064 1.27586154 215.355659 1.27586154 227.198955 56.6517692 227.198955 1.27586154 232.254188 1.27586154 232.254188 125.110631 227.198955 125.110631 227.198955 70.0278 216.077836 23.2820308"></polygon>
                    <polygon id="Shape" points="251.613609 125.112585 245.981421 125.112585 245.981421 5.88107692 238.035521 5.88107692 238.035521 1.27586154 259.704729 1.27586154 259.704729 5.87912308 251.615572 5.87912308 251.615572 125.112585"></polygon>
                </g>
            </g>
        </g>
    </g>
</svg>