<?xml version="1.0" encoding="utf-8"?>
<!-- Generator: Adobe Illustrator 15.1.0, SVG Export Plug-In . SVG Version: 6.00 Build 0)  -->
<!DOCTYPE svg PUBLIC "-//W3C//DTD SVG 1.1//EN" "http://www.w3.org/Graphics/SVG/1.1/DTD/svg11.dtd">
<svg version="1.1" id="Layer_1" xmlns="http://www.w3.org/2000/svg" xmlns:xlink="http://www.w3.org/1999/xlink" x="0px" y="0px"
	 width="223px" height="60px" viewBox="0 0 223 60" enable-background="new 0 0 223 60" xml:space="preserve">
<g id="sign">
	<path id="n" fill="#FFFFFF" d="M35.709,40.727V25.421h4.34v1.546c1.275-1.638,2.77-1.832,4.483-1.832
		c1.637,0,2.912,0.505,3.828,1.512c0.913,1.01,1.37,2.399,1.37,4.167v9.91h-4.34v-8.537c0-1.011-0.228-1.781-0.685-2.313
		c-0.457-0.534-1.104-0.799-1.942-0.799c-0.838,0-1.499,0.265-1.986,0.799c-0.484,0.532-0.727,1.303-0.727,2.313v8.537h-4.341
		V40.727z"/>
	<path id="n2" fill="#FFFFFF" d="M197.961,40.727V25.421h4.342v1.546c1.274-1.638,2.77-1.832,4.481-1.832
		c1.637,0,2.911,0.505,3.827,1.512c0.912,1.01,1.369,2.399,1.369,4.167v9.91h-4.34v-8.537c0-1.011-0.229-1.781-0.686-2.313
		c-0.457-0.534-1.104-0.799-1.941-0.799c-0.839,0-1.498,0.265-1.986,0.799c-0.483,0.532-0.727,1.303-0.727,2.313v8.537h-4.34V40.727
		z"/>
	<path id="u" fill="#FFFFFF" d="M32.145,25.136v15.306h-4.34v-1.545c-1.275,1.637-2.771,1.83-4.482,1.83
		c-1.637,0-2.913-0.504-3.828-1.512c-0.913-1.012-1.37-2.398-1.37-4.17v-9.909h4.34v8.538c0,1.01,0.228,1.78,0.685,2.313
		c0.457,0.531,1.104,0.801,1.943,0.801c0.839,0,1.499-0.27,1.985-0.801c0.483-0.531,0.727-1.303,0.727-2.313v-8.538H32.145z"/>
	<path id="i" fill="#FFFFFF" d="M53.585,19.882h4.456v3.855h-4.456V19.882z M53.698,25.422h4.343v15.305h-4.343V25.422z"/>
	<path id="t" fill="#FFFFFF" d="M67.293,40.984c-1.43,0-2.529-0.349-3.3-1.043s-1.156-1.879-1.156-3.555v-7.254h-1.828v-3.71h1.829
		v-3.914h4.287v3.914h3.652v3.71h-3.652v6.54c0,0.99,0.52,1.487,1.453,1.487c0.76,0,1.475-0.184,2.141-0.544V40.1
		C69.729,40.689,68.586,40.984,67.293,40.984"/>
	<path id="e" fill="#FFFFFF" d="M81.228,41.07c-2.323,0-4.236-0.737-5.739-2.213c-1.506-1.476-2.256-3.394-2.256-5.754
		c0-2.229,0.712-4.112,2.142-5.654c1.427-1.542,3.235-2.313,5.424-2.313c2.418,0,4.266,0.799,5.542,2.398
		c1.275,1.598,1.914,3.569,1.914,5.911c0,0.229-0.021,0.609-0.059,1.144H77.543c0.211,0.968,0.638,1.712,1.286,2.228
		c0.646,0.514,1.464,0.769,2.455,0.769c1.352,0,2.59-0.521,3.714-1.567l2.484,2.197C85.94,40.118,83.854,41.07,81.228,41.07
		 M77.487,31.875h6.539c-0.134-0.991-0.479-1.78-1.041-2.371c-0.563-0.59-1.291-0.885-2.187-0.885c-0.875,0-1.602,0.291-2.184,0.87
		C78.033,30.073,77.657,30.865,77.487,31.875"/>
	<path id="d" fill="#FFFFFF" d="M97.761,41.012c-1.904,0-3.54-0.715-4.913-2.142c-1.37-1.427-2.056-3.368-2.056-5.825
		c0-2.438,0.682-4.365,2.044-5.784c1.359-1.417,3-2.125,4.925-2.125c1.904,0,3.384,0.314,4.768,1.736v-6.99h4.341v20.845h-4.341
		v-1.375C101.475,40.73,99.722,41.012,97.761,41.012 M96.22,36.145c0.723,0.789,1.606,1.185,2.656,1.185
		c1.048,0,1.928-0.396,2.641-1.185c0.714-0.791,1.07-1.824,1.07-3.1c0-1.236-0.355-2.251-1.07-3.041
		c-0.713-0.791-1.593-1.184-2.641-1.184c-1.049,0-1.932,0.394-2.656,1.184c-0.726,0.79-1.086,1.825-1.086,3.098
		C95.134,34.341,95.494,35.355,96.22,36.145"/>
	<path id="d2" fill="#FFFFFF" d="M125.553,41.012c-1.906,0-3.543-0.715-4.912-2.142c-1.373-1.427-2.059-3.368-2.059-5.825
		c0-2.438,0.682-4.365,2.044-5.784c1.358-1.417,3-2.125,4.927-2.125c1.902,0,3.383,0.314,4.77,1.736v-6.99h4.34v20.845h-4.34v-1.375
		C129.266,40.73,127.514,41.012,125.553,41.012 M124.01,36.145c0.723,0.789,1.606,1.185,2.655,1.185
		c1.047,0,1.926-0.396,2.642-1.185c0.713-0.791,1.068-1.824,1.068-3.1c0-1.236-0.355-2.251-1.068-3.041
		c-0.716-0.791-1.595-1.184-2.642-1.184c-1.049,0-1.933,0.394-2.655,1.184c-0.726,0.79-1.088,1.825-1.088,3.098
		C122.923,34.341,123.284,35.355,124.01,36.145"/>
	<path id="e2" fill="#FFFFFF" d="M145.85,41.07c-2.322,0-4.236-0.737-5.74-2.213s-2.254-3.394-2.254-5.754
		c0-2.229,0.711-4.112,2.142-5.654c1.429-1.542,3.235-2.313,5.426-2.313c2.418,0,4.263,0.799,5.54,2.398
		c1.275,1.598,1.914,3.569,1.914,5.911c0,0.229-0.021,0.609-0.059,1.144h-10.651c0.211,0.968,0.64,1.712,1.286,2.228
		c0.646,0.513,1.465,0.769,2.453,0.769c1.354,0,2.591-0.521,3.715-1.567l2.486,2.197C150.563,40.118,148.477,41.07,145.85,41.07
		 M142.109,31.875h6.537c-0.133-0.991-0.479-1.78-1.041-2.371c-0.562-0.59-1.289-0.885-2.185-0.885c-0.876,0-1.604,0.291-2.185,0.87
		C142.657,30.073,142.279,30.865,142.109,31.875"/>
	<path id="s" fill="#FFFFFF" d="M161.473,41.012c-2.418,0-4.609-0.77-6.568-2.313l1.857-2.856c1.674,1.22,3.283,1.828,4.823,1.828
		c1.218,0,1.828-0.399,1.828-1.198c0-0.096-0.017-0.189-0.043-0.287c-0.028-0.094-0.081-0.18-0.156-0.256s-0.157-0.147-0.241-0.215
		c-0.086-0.064-0.201-0.134-0.345-0.199c-0.144-0.066-0.269-0.123-0.371-0.172c-0.104-0.046-0.252-0.104-0.44-0.17
		c-0.192-0.068-0.354-0.119-0.487-0.158c-0.132-0.037-0.313-0.09-0.541-0.156c-0.229-0.066-0.409-0.119-0.543-0.157
		c-0.647-0.188-1.196-0.386-1.642-0.586c-0.446-0.2-0.92-0.474-1.414-0.828c-0.498-0.351-0.873-0.8-1.129-1.341
		c-0.258-0.547-0.387-1.178-0.387-1.899c0-1.506,0.534-2.69,1.6-3.557c1.064-0.867,2.399-1.3,3.998-1.3
		c2.056,0,3.959,0.591,5.713,1.772l-1.656,2.996c-1.619-0.952-3-1.427-4.143-1.427c-1.064,0-1.598,0.371-1.598,1.114
		c0,0.514,0.875,1.067,2.625,1.656c0.21,0.075,0.372,0.132,0.484,0.171c0.516,0.174,0.953,0.334,1.314,0.486
		c0.361,0.15,0.772,0.361,1.227,0.629c0.459,0.268,0.826,0.546,1.101,0.842c0.274,0.297,0.511,0.672,0.7,1.131
		c0.189,0.455,0.286,0.961,0.286,1.513c0,1.637-0.54,2.868-1.613,3.696C164.637,40.6,163.223,41.012,161.473,41.012"/>
	<path id="i2" fill="#FFFFFF" d="M170.523,19.882h4.568v3.855h-4.568V19.882z M170.637,25.422h4.34v15.305h-4.34V25.422z"/>
	<path id="g" fill="#FFFFFF" d="M185.915,45.354c-2.496,0-4.75-0.533-6.769-1.6l1.483-3.254c1.658,0.932,3.38,1.398,5.168,1.398
		c2.914,0,4.37-1.39,4.37-4.17v-0.205c-0.727,0.633-1.246,1.053-2.031,1.434c-0.771,0.371-1.861,0.514-2.966,0.514
		c-1.885,0-3.487-0.646-4.812-1.941c-1.324-1.295-1.983-3.045-1.983-5.256c0-2.188,0.665-3.925,2-5.21
		c1.331-1.285,2.929-1.926,4.796-1.926c1.905,0,3.514,0.312,4.941,1.653v-1.367h4.341v11.851c0,2.723-0.649,4.729-1.944,6.025
		C191.141,44.668,188.941,45.354,185.915,45.354 M183.773,34.889c0.703,0.655,1.59,0.984,2.654,0.984
		c1.067,0,1.957-0.333,2.67-1.001c0.715-0.666,1.07-1.533,1.07-2.599c0-1.027-0.355-1.875-1.07-2.542
		c-0.714-0.665-1.603-0.998-2.67-0.998c-1.064,0-1.951,0.333-2.654,0.998c-0.707,0.666-1.058,1.532-1.058,2.599
		C182.715,33.378,183.066,34.23,183.773,34.889"/>
	<rect id="dot" x="215.125" y="36.159" fill="#FFFFFF" width="5" height="4.567"/>
</g>
<polygon id="clip" fill="#FFFFFF" points="107.125,13.488 107.125,0.781 -0.875,0.781 -0.875,60.781 107.125,60.781 107.125,48.073 
	11.166,48.073 11.166,13.488 "/>
</svg>
