<?xml version="1.0" encoding="utf-8"?>
<!-- Generator: Adobe Illustrator 15.1.0, SVG Export Plug-In . SVG Version: 6.00 Build 0)  -->
<!DOCTYPE svg PUBLIC "-//W3C//DTD SVG 1.1//EN" "http://www.w3.org/Graphics/SVG/1.1/DTD/svg11.dtd">
<svg version="1.1" id="Layer_1" xmlns="http://www.w3.org/2000/svg" xmlns:xlink="http://www.w3.org/1999/xlink" x="0px" y="0px"
	 width="450px" height="376px" viewBox="0 -117.174 450 376" enable-background="new 0 -117.174 450 376" xml:space="preserve">
<g>
	<g>
		<path fill="#F5F5F5" d="M139.467,3.198c1.95,0.313,3.434,1.015,4.447,1.95c1.328,1.328,1.952,2.966,1.952,4.995
			s-0.622,3.667-1.952,4.995c-1.014,0.936-2.419,1.56-4.447,1.95v-3.278c0.155,0,0.234-0.079,0.313-0.079
			c0.779-0.311,1.327-0.778,1.637-1.326c0.313-0.545,0.547-1.326,0.547-2.419c0-1.794-0.858-3.043-2.497-3.59V3.198z
			 M137.049,17.245v2.186h-3.979v-2.186c-0.859,0-1.718-0.079-2.419-0.156V13.89c0.703,0.234,1.482,0.313,2.419,0.313V6.086
			c-0.938,0-1.795,0.077-2.419,0.312V3.198c0.781-0.077,1.56-0.155,2.419-0.234V1.17h3.979v1.794
			c0.936,0.079,1.718,0.158,2.421,0.234v3.199c-0.625-0.234-1.485-0.312-2.421-0.312v8.115c0.936,0,1.718-0.079,2.421-0.39v3.276
			C138.767,17.166,137.983,17.245,137.049,17.245z M130.651,17.087c-1.952-0.39-3.434-1.014-4.371-1.95
			c-1.325-1.327-2.03-3.043-2.03-4.995c0-2.107,0.703-3.825,2.107-5.072c1.016-0.938,2.419-1.562,4.292-1.873v3.199
			c-0.548,0.157-0.936,0.39-1.249,0.703c-0.78,0.701-1.172,1.716-1.172,3.12c0,1.873,0.782,3.122,2.421,3.667v3.201H130.651z"/>
		<path fill="#F5F5F5" d="M166.623,19.429h-4.371l-1.796-4.136h-4.058v-3.12h2.732l-2.732-6.632V1.17h2.187L166.623,19.429z
			 M156.4,15.295h-3.98l-1.716,4.136h-4.292l7.881-18.259h2.105v4.371V5.462l-2.73,6.711h2.73v3.122H156.4z"/>
		<path fill="#F5F5F5" d="M181.057,12.719l3.902,1.093c-0.625,2.029-1.563,3.512-2.967,4.448c-1.406,0.938-3.199,1.483-5.385,1.483
			c-2.73,0-4.917-0.859-6.633-2.498c-1.717-1.639-2.576-3.902-2.576-6.788c0-3.043,0.859-5.385,2.576-7.101
			c1.795-1.641,4.058-2.498,6.867-2.498c2.497,0,4.449,0.701,6.008,2.027c0.938,0.782,1.639,1.875,2.107,3.356l-4.057,0.86
			c-0.234-0.938-0.779-1.717-1.48-2.263c-0.782-0.547-1.718-0.782-2.812-0.782c-1.482,0-2.652,0.469-3.59,1.406
			c-0.938,1.015-1.405,2.575-1.405,4.682c0,2.342,0.468,3.98,1.328,4.995c0.938,0.936,2.107,1.404,3.589,1.404
			c1.093,0,2.028-0.311,2.809-0.938C180.121,14.982,180.666,14.046,181.057,12.719z"/>
		<path fill="#F5F5F5" d="M205.949,19.429h-4.45l-1.716-4.136h-4.058v-3.12h2.731l-2.731-6.632V1.17h2.186L205.949,19.429z
			 M195.727,15.295h-3.979l-1.718,4.136h-4.292l7.881-18.259h2.107v4.371V5.462l-2.729,6.711h2.729V15.295z"/>
		<path fill="#F5F5F5" d="M216.873,1.17h7.881v15.139h1.795v7.101h-3.434v-3.981h-6.242v-3.12h3.823V4.213h-3.823V1.17z
			 M210.786,1.17h6.087v3.043h-2.185c0,5.539-0.548,9.598-1.641,12.096h3.825v3.122h-6.477v3.981h-3.354v-7.103h1.716
			c0.858-1.483,1.404-3.354,1.639-5.385c0.313-2.029,0.39-4.682,0.39-7.802V1.17z"/>
		<polygon fill="#F5F5F5" points="229.281,19.429 229.281,1.17 233.339,1.17 233.339,8.349 241.297,8.349 241.297,1.17 
			245.356,1.17 245.356,19.429 241.297,19.429 241.297,11.469 233.339,11.469 233.339,19.429 		"/>
		<path fill="#F5F5F5" d="M257.996,8.505h1.17c1.483,0,2.653,0.156,3.746,0.469c1.015,0.39,1.871,1.014,2.574,1.95
			c0.625,0.858,1.015,1.875,1.015,3.124c0,1.17-0.39,2.263-1.091,3.12c-0.703,0.938-1.483,1.483-2.419,1.796
			c-0.859,0.311-2.109,0.469-3.825,0.469h-1.17v-3.124c1.093,0,1.873,0,2.34-0.155c0.546-0.079,0.938-0.313,1.326-0.703
			c0.392-0.469,0.626-0.936,0.626-1.483c0-0.859-0.313-1.404-0.938-1.873c-0.625-0.39-1.793-0.546-3.354-0.546V8.505L257.996,8.505z
			 M268.84,1.17h4.058v18.259h-4.058V1.17z M249.648,1.17h4.056v7.335h4.292v3.043h-0.156h-4.136v4.761h3.979h0.313v3.122h-8.348
			V1.17L249.648,1.17z"/>
		<polygon fill="#F5F5F5" points="277.112,19.429 277.112,1.17 292.098,1.17 292.098,4.292 281.247,4.292 281.247,8.271 
			291.313,8.271 291.313,11.393 281.247,11.393 281.247,16.309 292.485,16.309 292.485,19.429 		"/>
		<path fill="#F5F5F5" d="M316.674,12.719l3.981,1.093c-0.627,2.029-1.64,3.512-3.046,4.448c-1.402,0.938-3.196,1.483-5.381,1.483
			c-2.655,0-4.84-0.859-6.558-2.498c-1.715-1.639-2.574-3.902-2.574-6.788c0-3.043,0.859-5.385,2.574-7.101
			c1.718-1.641,3.979-2.498,6.867-2.498c2.42,0,4.447,0.701,6.008,2.027c0.86,0.782,1.563,1.875,2.03,3.356l-4.06,0.859
			c-0.232-0.938-0.699-1.718-1.479-2.263c-0.703-0.548-1.639-0.782-2.731-0.782c-1.483,0-2.732,0.469-3.668,1.406
			c-0.938,1.015-1.406,2.575-1.406,4.682c0,2.342,0.469,3.981,1.406,4.995c0.936,0.936,2.105,1.404,3.591,1.404
			c1.091,0,2.026-0.311,2.809-0.938C315.817,14.982,316.363,14.046,316.674,12.719z"/>
		<polygon fill="#F5F5F5" points="324.167,1.17 327.988,1.17 327.988,13.343 336.183,1.17 340.236,1.17 340.236,19.429 
			336.417,19.429 336.417,7.49 328.302,19.429 324.167,19.429 		"/>
		<path fill="#F5F5F5" d="M357.327,12.719l3.904,1.093c-0.546,2.029-1.563,3.512-2.967,4.448c-1.402,0.938-3.2,1.483-5.383,1.483
			c-2.655,0-4.919-0.859-6.633-2.498c-1.717-1.639-2.574-3.902-2.574-6.788c0-3.043,0.857-5.385,2.651-7.101
			c1.718-1.641,3.98-2.498,6.79-2.498c2.493,0,4.522,0.701,6.006,2.027c0.938,0.782,1.641,1.875,2.109,3.356l-4.058,0.859
			c-0.234-0.938-0.703-1.718-1.483-2.263c-0.78-0.548-1.718-0.782-2.732-0.782c-1.56,0-2.731,0.469-3.665,1.406
			c-0.938,1.015-1.406,2.575-1.406,4.682c0,2.342,0.469,3.981,1.406,4.995c0.856,0.936,2.105,1.404,3.508,1.404
			c1.095,0,2.029-0.311,2.809-0.938C356.394,14.982,356.939,14.046,357.327,12.719z"/>
		<polygon fill="#F5F5F5" points="368.644,19.429 368.644,4.292 362.634,4.292 362.634,1.17 378.632,1.17 378.632,4.292 
			372.699,4.292 372.699,19.429 		"/>
		<polygon fill="#F5F5F5" points="381.283,19.429 381.283,1.17 396.263,1.17 396.263,4.292 385.341,4.292 385.341,8.271 
			395.486,8.271 395.486,11.393 385.341,11.393 385.341,16.309 396.655,16.309 396.655,19.429 		"/>
		<polygon fill="#F5F5F5" points="400.013,19.429 400.013,1.17 406.096,1.17 409.766,13.577 413.431,1.17 419.518,1.17 
			419.518,19.429 415.774,19.429 415.774,5.072 411.717,19.429 407.813,19.429 403.836,5.072 403.836,19.429 		"/>
		<path fill="#F5F5F5" d="M432.004,8.505h1.17c1.483,0,2.729,0.156,3.746,0.469c1.015,0.39,1.871,1.014,2.574,1.95
			c0.701,0.858,1.013,1.875,1.013,3.124c0,1.17-0.312,2.263-1.091,3.12c-0.701,0.938-1.481,1.483-2.342,1.796
			c-0.859,0.311-2.185,0.469-3.9,0.469h-1.17v-3.124c1.17,0,1.95,0,2.42-0.155c0.466-0.079,0.935-0.313,1.324-0.703
			c0.392-0.469,0.548-0.936,0.548-1.483c0-0.859-0.313-1.404-0.938-1.873c-0.625-0.39-1.718-0.546-3.354-0.546V8.505L432.004,8.505z
			 M442.849,1.17h4.058v18.259h-4.058V1.17z M423.656,1.17h4.134v7.335h4.214v3.043h-0.079h-4.135v4.761h3.979h0.234v3.122h-8.348
			V1.17L423.656,1.17z"/>
		<g>
			<g>
				<polygon opacity="0.5" fill="#C2C5C7" points="79.695,8.505 93.665,0 101.545,0 88.825,8.505 				"/>
				<polygon opacity="0.5" fill="#ECEDEE" points="88.825,8.505 101.545,0 101.545,113.535 88.825,140.53 				"/>
				<polygon opacity="0.5" fill="#C2C5C7" points="88.825,140.53 101.545,113.535 132.991,113.535 125.343,140.53 				"/>
				<polygon opacity="0.5" fill="#ECEDEE" points="125.343,140.53 132.991,113.535 132.991,122.741 125.343,151.223 				"/>
				<path fill="#FFFFFF" d="M79.695,151.223c0-3.512,0-7.023,0-10.614c0-22.002,0-44.008,0-66.091c0-21.927,0-44.009,0-66.013
					c3.122,0.077,6.165,0.077,9.208,0.077c0,21.927,0,44.01,0,65.937c-0.079,22.083-0.079,44.089-0.079,66.091
					c6.086,0,12.173,0,18.258,0c6.086,0,12.173-0.079,18.257-0.079c0,3.593,0,7.182,0,10.693c-6.086,0-12.171,0-18.257,0
					c-6.085,0-12.172,0-18.258,0C85.782,151.223,82.739,151.223,79.695,151.223z"/>
				<path opacity="0.5" fill="#ECEDEE" d="M94.133,28.637c0,20.911,0,42.058,0,62.969c0.857,3.122,3.589-1.092,3.512-4.681
					c0-20.445-0.079-40.89-0.079-61.331C96.629,21.927,93.899,24.736,94.133,28.637z"/>
				<path opacity="0.5" fill="#ECEDEE" d="M105.682,123.366c5.772,0,13.965-0.079,17.398,0c3.433,0.078,2.186,3.666-1.328,3.666
					l-16.776-0.156C101,126.876,102.402,123.132,105.682,123.366z"/>
			</g>
			<g>
				<rect x="254.484" y="28.013" opacity="0.5" fill="#ECEDEE" width="93.713" height="92.621"/>
				<path opacity="0.5" fill="#D7D9DB" d="M303.798,106.904v-6.478c3.67,0,7.103-0.859,10.302-2.653
					c3.12-1.795,5.618-4.292,7.412-7.648c1.873-3.274,2.811-6.786,2.811-10.609c0-5.933-2.109-10.926-6.088-15.139
					c-4.058-4.137-8.894-6.244-14.437-6.244V51.5c8.037,0,14.748,2.965,20.133,8.817c4.841,5.385,7.259,11.706,7.259,19.039
					c0,7.335-2.575,13.813-7.726,19.271C318.392,104.171,311.76,106.904,303.798,106.904L303.798,106.904z M371.139,52.905h6.709
					v9.051c2.343-3.356,4.763-5.775,7.261-7.336c3.432-2.028,7.022-3.12,10.769-3.12c2.572,0,4.993,0.546,7.333,1.563
					c2.26,0.936,4.139,2.263,5.541,3.979c1.483,1.639,2.729,4.06,3.823,7.102c2.26-4.135,5.072-7.257,8.427-9.364
					c3.435-2.187,7.021-3.278,11.001-3.278c3.591,0,6.787,0.937,9.595,2.81c2.813,1.794,4.918,4.37,6.244,7.648
					c1.327,3.277,2.03,8.272,2.03,14.826v28.793h-6.945V76.782c0-5.62-0.392-9.521-1.172-11.628
					c-0.778-2.107-2.185-3.824-4.135-5.073c-1.951-1.326-4.29-1.952-7.021-1.952c-3.278,0-6.319,0.936-9.051,2.888
					c-2.652,1.952-4.681,4.526-5.93,7.726c-1.249,3.277-1.875,8.662-1.875,16.151v20.68h-6.709V78.572
					c0-6.318-0.469-10.688-1.249-12.95c-0.779-2.264-2.105-4.06-4.134-5.465c-1.952-1.404-4.292-2.028-7.024-2.028
					c-3.12,0-6.006,0.936-8.739,2.811c-2.73,1.873-4.759,4.448-6.085,7.648c-1.251,3.199-1.954,8.038-1.954,14.669v22.318h-6.709
					V52.905L371.139,52.905z M56.987,52.905v52.672h-6.711v-9.051c-2.809,3.432-6.007,6.008-9.52,7.726
					c-3.354,1.637-6.944,2.572-10.923,2.652v-6.165c3.745-0.078,7.257-1.014,10.534-2.811c3.354-1.871,5.928-4.447,7.646-7.646
					c1.796-3.199,2.732-6.788,2.732-10.767c0-6.088-2.029-11.237-6.007-15.297c-4.06-4.136-8.975-6.165-14.825-6.165h-0.079V51.5
					c4.135,0.079,7.881,1.015,11.235,2.81c3.512,1.794,6.555,4.604,9.208,8.271v-9.675H56.987L56.987,52.905z M303.798,51.5v6.633
					c-5.614,0-10.455,2.107-14.513,6.244c-4.054,4.215-6.01,9.208-6.01,15.139c0,3.823,0.86,7.335,2.735,10.609
					c1.872,3.356,4.289,5.854,7.412,7.648c3.197,1.794,6.633,2.653,10.375,2.653v6.478c-8.111,0-14.667-2.733-19.815-8.274
					c-5.072-5.458-7.646-11.937-7.646-19.271c0-7.259,2.417-13.577,7.255-18.963C288.896,54.463,295.605,51.5,303.798,51.5
					L303.798,51.5z M126.203,52.905h6.867v24.578c0,6.01,0.311,10.146,0.936,12.407c1.014,3.199,2.809,5.775,5.54,7.646
					c2.731,1.873,6.007,2.809,9.754,2.809c3.825,0,7.023-0.936,9.6-2.729c2.651-1.872,4.448-4.214,5.461-7.255
					c0.703-2.031,1.016-6.323,1.016-12.878V52.905h6.945v25.827c0,7.258-0.858,12.718-2.576,16.386
					c-1.639,3.668-4.215,6.557-7.648,8.663c-3.356,2.105-7.646,3.122-12.797,3.122c-5.072,0-9.364-1.017-12.797-3.122
					c-3.433-2.106-6.008-4.995-7.725-8.74c-1.718-3.746-2.575-9.285-2.575-16.776V52.905L126.203,52.905z M238.409,63.829
					l-5.305,3.356c-4.681-6.165-11.002-9.287-19.038-9.287c-6.4,0-11.784,2.107-15.997,6.242c-4.214,4.136-6.321,9.129-6.321,14.981
					c0,3.902,0.938,7.489,2.888,10.924c1.952,3.356,4.604,6.01,8.036,7.881c3.435,1.797,7.179,2.811,11.471,2.811
					c7.726,0,14.047-3.121,18.962-9.287l5.305,3.513c-2.573,3.823-5.851,6.712-10.062,8.818c-4.295,2.105-9.133,3.122-14.516,3.122
					c-8.35,0-15.216-2.653-20.678-7.96c-5.541-5.309-8.272-11.706-8.272-19.273c0-5.151,1.25-9.833,3.825-14.204
					c2.574-4.369,6.086-7.802,10.612-10.221c4.449-2.5,9.519-3.746,15.06-3.746c3.434,0,6.79,0.545,10.067,1.637
					c3.274,1.093,6.007,2.419,8.27,4.136C234.898,58.989,236.771,61.176,238.409,63.829z M29.835,106.904c-0.234,0-0.469,0-0.703,0
					c-7.414,0-13.812-2.733-19.12-8.116c-5.225-5.384-7.88-12.018-7.88-19.743c0-7.567,2.655-14.046,8.038-19.43
					c5.307-5.383,11.706-8.115,19.197-8.115c0.156,0,0.312,0,0.469,0v6.554c-3.746,0-7.18,0.938-10.38,2.811
					c-3.199,1.873-5.773,4.448-7.646,7.803c-1.873,3.356-2.808,6.945-2.808,10.614c0,3.744,0.938,7.332,2.808,10.689
					c1.952,3.356,4.448,6.008,7.726,7.881c3.201,1.874,6.634,2.888,10.301,2.888l0,0V106.904z"/>
				<path fill="#FFFFFF" d="M301.458,101.596v-6.397c3.746,0,7.18-0.937,10.302-2.732c3.12-1.795,5.617-4.29,7.49-7.645
					c1.793-3.279,2.732-6.792,2.732-10.615c0-5.931-2.03-10.924-6.09-15.061c-4.058-4.213-8.815-6.241-14.435-6.241V46.27
					c8.115,0,14.826,2.888,20.133,8.818c4.839,5.307,7.256,11.628,7.256,18.963s-2.574,13.812-7.646,19.275
					C316.05,98.866,309.496,101.596,301.458,101.596L301.458,101.596z M368.876,47.596h6.711v9.13
					c2.342-3.356,4.761-5.853,7.256-7.414c3.436-2.029,7.022-3.043,10.769-3.043c2.575,0,4.992,0.469,7.259,1.482
					c2.34,1.015,4.211,2.342,5.614,3.981c1.486,1.639,2.735,4.058,3.826,7.103c2.264-4.06,5.072-7.259,8.427-9.364
					c3.436-2.187,7.022-3.201,10.923-3.201c3.669,0,6.866,0.859,9.675,2.732s4.84,4.369,6.242,7.726
					c1.327,3.279,2.03,8.193,2.03,14.749v28.793h-6.944V71.477c0-5.62-0.391-9.521-1.171-11.628
					c-0.858-2.107-2.263-3.823-4.213-5.071c-1.95-1.328-4.215-1.952-6.945-1.952c-3.275,0-6.318,0.938-9.051,2.888
					c-2.732,1.952-4.681,4.526-6.006,7.727c-1.249,3.276-1.875,8.659-1.875,16.23v20.6h-6.709V73.269
					c0-6.32-0.392-10.612-1.172-12.952c-0.78-2.264-2.187-4.058-4.135-5.463c-1.952-1.325-4.296-2.028-7.021-2.028
					c-3.122,0-6.087,0.938-8.82,2.809c-2.73,1.952-4.681,4.449-6.006,7.648c-1.328,3.199-1.952,8.115-1.952,14.673v22.314h-6.711
					V47.596L368.876,47.596z M54.726,47.596v52.672h-6.711v-9.053c-2.809,3.436-6.007,6.012-9.596,7.805
					c-3.277,1.639-6.945,2.497-10.847,2.574v-6.163c3.667,0,7.178-0.936,10.534-2.81c3.277-1.873,5.851-4.447,7.646-7.648
					c1.796-3.12,2.732-6.787,2.732-10.768c0-6.087-2.029-11.159-6.086-15.295c-3.98-4.058-8.896-6.166-14.825-6.166l0,0v-6.476
					c4.136,0,7.881,0.938,11.235,2.731c3.511,1.873,6.554,4.604,9.208,8.271v-9.677h6.711V47.596z M301.458,46.27v6.635
					c-5.618,0-10.455,2.028-14.437,6.241c-4.054,4.137-6.086,9.132-6.086,15.061c0,3.823,0.938,7.336,2.813,10.615
					c1.791,3.354,4.292,5.85,7.412,7.645c3.12,1.796,6.554,2.732,10.298,2.732v6.397c-8.035,0-14.671-2.73-19.739-8.27
					c-5.152-5.464-7.649-11.94-7.649-19.275c0-7.257,2.42-13.577,7.258-18.963C286.634,49.158,293.343,46.27,301.458,46.27
					L301.458,46.27z M123.94,47.596h6.789v24.58c0,6.01,0.389,10.146,1.015,12.407c0.938,3.199,2.809,5.777,5.541,7.648
					c2.731,1.871,6.009,2.809,9.753,2.809s6.945-0.938,9.601-2.729c2.651-1.875,4.447-4.216,5.46-7.18
					c0.703-2.031,1.015-6.399,1.015-12.955v-24.58h6.868v25.829c0,7.256-0.782,12.72-2.498,16.39
					c-1.717,3.743-4.215,6.552-7.648,8.657c-3.433,2.109-7.646,3.122-12.797,3.122s-9.441-1.013-12.875-3.122
					c-3.434-2.105-6.008-4.993-7.648-8.657c-1.718-3.75-2.574-9.366-2.574-16.858V47.596L123.94,47.596z M236.069,58.522
					l-5.229,3.356c-4.68-6.165-11-9.287-19.038-9.287c-6.399,0-11.784,2.107-15.997,6.244c-4.292,4.135-6.397,9.13-6.397,15.059
					c0,3.823,1.015,7.414,2.964,10.845c1.952,3.356,4.605,6.01,8.039,7.883c3.356,1.874,7.179,2.81,11.394,2.81
					c7.802,0,14.123-3.12,19.04-9.286l5.226,3.513c-2.42,3.821-5.774,6.709-10.064,8.814c-4.215,2.109-9.051,3.122-14.436,3.122
					c-8.349,0-15.215-2.651-20.756-7.879c-5.46-5.309-8.194-11.785-8.194-19.354c0-5.07,1.249-9.831,3.825-14.202
					c2.576-4.368,6.087-7.802,10.613-10.223c4.447-2.497,9.44-3.667,14.979-3.667c3.512,0,6.868,0.469,10.146,1.562
					c3.201,1.093,5.931,2.497,8.193,4.137C232.636,53.684,234.511,55.869,236.069,58.522z M27.572,101.596c-0.234,0-0.469,0-0.703,0
					c-7.491,0-13.812-2.73-19.117-8.115C2.526,88.097-0.129,81.543-0.129,73.74c0-7.571,2.655-14.048,7.959-19.431
					c5.306-5.384,11.784-8.039,19.196-8.039c0.234,0,0.39,0,0.545,0v6.477c-3.746,0-7.256,0.938-10.457,2.81
					c-3.199,1.875-5.697,4.449-7.57,7.806c-1.951,3.354-2.887,6.945-2.887,10.689c0,3.668,0.938,7.259,2.887,10.614
					c1.873,3.432,4.448,6.006,7.648,7.958c3.199,1.873,6.711,2.81,10.378,2.81l0,0V101.596z"/>
			</g>
		</g>
	</g>
</g>
</svg>
