<svg version="1.1" id="Layer_1" xmlns="http://www.w3.org/2000/svg" xmlns:xlink="http://www.w3.org/1999/xlink" x="0px" y="0px"
	 width="240px" height="80.652px" viewBox="0 0 240 80.652" enable-background="new 0 0 240 80.652" xml:space="preserve">
<g>
	<g>
		<path fill="#1B1C20" d="M74.322,1.663c1.04,0.167,1.831,0.541,2.372,1.04c0.708,0.708,1.041,1.582,1.041,2.664
			c0,1.082-0.332,1.956-1.041,2.664c-0.541,0.499-1.29,0.832-2.372,1.04V7.323c0.083,0,0.125-0.042,0.167-0.042
			c0.416-0.166,0.708-0.415,0.873-0.707c0.167-0.291,0.292-0.707,0.292-1.29c0-0.957-0.458-1.623-1.332-1.915V1.663z M73.032,9.154
			v1.166H70.91V9.154c-0.458,0-0.916-0.042-1.29-0.083V7.365c0.375,0.125,0.791,0.167,1.29,0.167V3.203
			c-0.5,0-0.957,0.041-1.29,0.166V1.663c0.417-0.041,0.832-0.083,1.29-0.125V0.581h2.122v0.957c0.499,0.042,0.916,0.084,1.291,0.125
			v1.706c-0.333-0.125-0.792-0.166-1.291-0.166v4.328c0.499,0,0.916-0.042,1.291-0.208V9.07C73.948,9.112,73.531,9.154,73.032,9.154
			z M69.62,9.07c-1.041-0.208-1.831-0.541-2.331-1.04c-0.707-0.708-1.083-1.623-1.083-2.664c0-1.124,0.375-2.04,1.124-2.705
			c0.542-0.5,1.29-0.833,2.289-0.999v1.706c-0.292,0.084-0.499,0.208-0.666,0.375c-0.416,0.374-0.625,0.915-0.625,1.664
			c0,0.999,0.417,1.665,1.291,1.956V9.07z"/>
		<path fill="#1B1C20" d="M88.805,10.319h-2.331l-0.958-2.206h-2.164V6.449h1.457l-1.457-3.537V0.581h1.166L88.805,10.319z
			 M83.353,8.114H81.23l-0.915,2.206h-2.289l4.203-9.738h1.123v2.331V2.87l-1.456,3.579h1.456V8.114z"/>
		<path fill="#1B1C20" d="M96.503,6.74l2.081,0.583c-0.333,1.082-0.833,1.873-1.582,2.372c-0.75,0.5-1.706,0.791-2.872,0.791
			c-1.456,0-2.622-0.458-3.537-1.332c-0.916-0.874-1.374-2.081-1.374-3.62c0-1.623,0.458-2.872,1.374-3.787
			c0.957-0.875,2.164-1.332,3.662-1.332c1.332,0,2.373,0.374,3.204,1.081c0.5,0.417,0.874,1,1.124,1.79L96.42,3.745
			c-0.125-0.5-0.416-0.916-0.79-1.207c-0.417-0.292-0.916-0.417-1.499-0.417c-0.791,0-1.415,0.25-1.915,0.75
			c-0.5,0.541-0.749,1.373-0.749,2.497c0,1.249,0.249,2.123,0.708,2.664c0.5,0.499,1.124,0.749,1.914,0.749
			c0.583,0,1.082-0.166,1.498-0.5C96.004,7.947,96.295,7.448,96.503,6.74z"/>
		<path fill="#1B1C20" d="M109.779,10.319h-2.373l-0.916-2.206h-2.164V6.449h1.457l-1.457-3.537V0.581h1.166L109.779,10.319z
			 M104.327,8.114h-2.122l-0.916,2.206H99l4.203-9.738h1.124v2.331V2.87l-1.456,3.579h1.456V8.114z"/>
		<path fill="#1B1C20" d="M115.605,0.581h4.203v8.074h0.957v3.787h-1.831v-2.123h-3.329V8.655h2.039V2.204h-2.039V0.581z
			 M112.359,0.581h3.246v1.623h-1.165c0,2.954-0.292,5.119-0.875,6.451h2.04v1.665h-3.454v2.123h-1.789V8.655h0.915
			c0.458-0.791,0.749-1.789,0.874-2.872c0.167-1.082,0.208-2.497,0.208-4.161V0.581z"/>
		<polygon fill="#1B1C20" points="122.222,10.319 122.222,0.581 124.387,0.581 124.387,4.41 128.631,4.41 128.631,0.581 
			130.796,0.581 130.796,10.319 128.631,10.319 128.631,6.074 124.387,6.074 124.387,10.319 		"/>
		<path fill="#1B1C20" d="M137.537,4.493h0.624c0.791,0,1.415,0.083,1.998,0.25c0.541,0.208,0.998,0.541,1.373,1.04
			c0.333,0.458,0.541,1,0.541,1.666c0,0.624-0.208,1.207-0.582,1.664c-0.375,0.5-0.791,0.791-1.29,0.958
			c-0.458,0.166-1.125,0.25-2.04,0.25h-0.624V8.655c0.583,0,0.999,0,1.248-0.083c0.291-0.042,0.5-0.167,0.707-0.375
			c0.209-0.25,0.334-0.499,0.334-0.791c0-0.458-0.167-0.749-0.5-0.999c-0.333-0.208-0.956-0.291-1.789-0.291V4.493L137.537,4.493z
			 M143.321,0.581h2.164v9.738h-2.164V0.581z M133.085,0.581h2.163v3.912h2.289v1.623h-0.083h-2.206v2.539h2.122h0.167v1.665h-4.452
			V0.581z"/>
		<polygon fill="#1B1C20" points="147.733,10.319 147.733,0.581 155.724,0.581 155.724,2.246 149.938,2.246 149.938,4.368 
			155.307,4.368 155.307,6.033 149.938,6.033 149.938,8.655 155.931,8.655 155.931,10.319 		"/>
		<path fill="#1B1C20" d="M168.832,6.74l2.123,0.583c-0.334,1.082-0.874,1.873-1.624,2.372c-0.748,0.5-1.705,0.791-2.87,0.791
			c-1.416,0-2.581-0.458-3.497-1.332c-0.915-0.874-1.373-2.081-1.373-3.62c0-1.623,0.458-2.872,1.373-3.787
			c0.916-0.875,2.122-1.332,3.662-1.332c1.291,0,2.372,0.374,3.204,1.081c0.459,0.417,0.834,1,1.083,1.79l-2.165,0.458
			c-0.124-0.5-0.373-0.916-0.789-1.207c-0.375-0.292-0.874-0.417-1.457-0.417c-0.791,0-1.457,0.25-1.956,0.75
			c-0.5,0.541-0.75,1.373-0.75,2.497c0,1.249,0.25,2.123,0.75,2.664c0.499,0.499,1.123,0.749,1.915,0.749
			c0.582,0,1.081-0.166,1.498-0.5C168.375,7.947,168.666,7.448,168.832,6.74z"/>
		<polygon fill="#1B1C20" points="172.828,0.581 174.866,0.581 174.866,7.073 179.237,0.581 181.399,0.581 181.399,10.319 
			179.361,10.319 179.361,3.952 175.033,10.319 172.828,10.319 		"/>
		<path fill="#1B1C20" d="M190.514,6.74l2.082,0.583c-0.292,1.082-0.834,1.873-1.582,2.372c-0.749,0.5-1.707,0.791-2.871,0.791
			c-1.416,0-2.623-0.458-3.538-1.332c-0.915-0.874-1.373-2.081-1.373-3.62c0-1.623,0.458-2.872,1.415-3.787
			c0.916-0.875,2.122-1.332,3.62-1.332c1.331,0,2.413,0.374,3.204,1.081c0.5,0.417,0.874,1,1.125,1.79l-2.165,0.458
			c-0.124-0.5-0.375-0.916-0.79-1.207c-0.416-0.292-0.916-0.417-1.457-0.417c-0.832,0-1.457,0.25-1.956,0.75
			c-0.499,0.541-0.749,1.373-0.749,2.497c0,1.249,0.25,2.123,0.749,2.664c0.458,0.499,1.124,0.749,1.872,0.749
			c0.583,0,1.082-0.166,1.498-0.5C190.016,7.947,190.307,7.448,190.514,6.74z"/>
		<polygon fill="#1B1C20" points="196.549,10.319 196.549,2.246 193.344,2.246 193.344,0.581 201.876,0.581 201.876,2.246 
			198.712,2.246 198.712,10.319 		"/>
		<polygon fill="#1B1C20" points="203.29,10.319 203.29,0.581 211.28,0.581 211.28,2.246 205.454,2.246 205.454,4.368 
			210.865,4.368 210.865,6.033 205.454,6.033 205.454,8.655 211.489,8.655 211.489,10.319 		"/>
		<polygon fill="#1B1C20" points="213.279,10.319 213.279,0.581 216.524,0.581 218.48,7.198 220.436,0.581 223.682,0.581 
			223.682,10.319 221.685,10.319 221.685,2.662 219.521,10.319 217.439,10.319 215.318,2.662 215.318,10.319 		"/>
		<path fill="#1B1C20" d="M230.341,4.493h0.624c0.791,0,1.456,0.083,1.998,0.25c0.541,0.208,0.998,0.541,1.373,1.04
			c0.374,0.458,0.54,1,0.54,1.666c0,0.624-0.166,1.207-0.582,1.664c-0.374,0.5-0.79,0.791-1.249,0.958
			c-0.458,0.166-1.165,0.25-2.08,0.25h-0.624V8.655c0.624,0,1.04,0,1.291-0.083c0.248-0.042,0.498-0.167,0.706-0.375
			c0.209-0.25,0.292-0.499,0.292-0.791c0-0.458-0.167-0.749-0.5-0.999c-0.333-0.208-0.916-0.291-1.789-0.291V4.493L230.341,4.493z
			 M236.125,0.581h2.164v9.738h-2.164V0.581z M225.889,0.581h2.205v3.912h2.247v1.623h-0.042h-2.205v2.539h2.122h0.125v1.665h-4.452
			V0.581z"/>
		<g>
			<g>
				<polygon fill-rule="evenodd" clip-rule="evenodd" fill="#C2C5C7" points="42.444,4.493 49.894,-0.043 54.097,-0.043 
					47.313,4.493 				"/>
				<polygon fill-rule="evenodd" clip-rule="evenodd" fill="#ECEDEE" points="47.313,4.493 54.097,-0.043 54.097,60.509 
					47.313,74.906 				"/>
				<polygon fill-rule="evenodd" clip-rule="evenodd" fill="#C2C5C7" points="47.313,74.906 54.097,60.509 70.868,60.509 
					66.789,74.906 				"/>
				<polygon fill-rule="evenodd" clip-rule="evenodd" fill="#ECEDEE" points="66.789,74.906 70.868,60.509 70.868,65.419 
					66.789,80.609 				"/>
				<path fill="#E50004" d="M42.444,80.609c0-1.873,0-3.746,0-5.661c0-11.734,0-23.471,0-35.248c0-11.694,0-23.472,0-35.207
					c1.665,0.041,3.288,0.041,4.911,0.041c0,11.694,0,23.472,0,35.166c-0.042,11.777-0.042,23.514-0.042,35.248
					c3.246,0,6.492,0,9.738,0s6.492-0.042,9.737-0.042c0,1.916,0,3.83,0,5.703c-3.246,0-6.491,0-9.737,0s-6.492,0-9.738,0
					C45.69,80.609,44.067,80.609,42.444,80.609z"/>
				<path fill-rule="evenodd" clip-rule="evenodd" fill="#C2C5C7" d="M50.144,15.23c0,11.153,0,22.431,0,33.583
					c0.457,1.665,1.914-0.582,1.873-2.496c0-10.904-0.042-21.807-0.042-32.71C51.475,11.651,50.019,13.149,50.144,15.23z"/>
				<path fill-rule="evenodd" clip-rule="evenodd" fill="#ECEDEE" d="M56.303,65.752c3.079,0,7.448-0.042,9.279,0
					c1.831,0.042,1.166,1.955-0.708,1.955l-8.947-0.083C53.806,67.624,54.554,65.627,56.303,65.752z"/>
			</g>
			<g>
				<rect x="135.664" y="14.897" fill-rule="evenodd" clip-rule="evenodd" fill="#ECEDEE" width="49.98" height="49.398"/>
				<path fill="#D7D9DB" d="M161.965,56.972v-3.455c1.957,0,3.788-0.458,5.494-1.415c1.664-0.957,2.996-2.289,3.953-4.079
					c0.999-1.746,1.499-3.619,1.499-5.658c0-3.164-1.125-5.827-3.247-8.074c-2.164-2.206-4.743-3.33-7.699-3.33v-3.537
					c4.286,0,7.865,1.581,10.737,4.702c2.582,2.872,3.871,6.243,3.871,10.154c0,3.912-1.373,7.367-4.12,10.278
					C169.748,55.514,166.211,56.972,161.965,56.972L161.965,56.972z M197.88,28.173h3.578V33c1.249-1.79,2.54-3.08,3.872-3.912
					c1.83-1.082,3.745-1.664,5.743-1.664c1.372,0,2.663,0.291,3.911,0.833c1.206,0.499,2.207,1.207,2.955,2.122
					c0.791,0.874,1.456,2.165,2.039,3.787c1.206-2.205,2.705-3.87,4.494-4.994c1.832-1.166,3.745-1.748,5.868-1.748
					c1.915,0,3.62,0.499,5.117,1.498c1.5,0.957,2.623,2.331,3.33,4.079c0.708,1.748,1.083,4.412,1.083,7.907v15.356h-3.704V40.907
					c0-2.997-0.209-5.078-0.625-6.201c-0.415-1.124-1.165-2.04-2.205-2.706c-1.041-0.707-2.288-1.041-3.745-1.041
					c-1.748,0-3.371,0.499-4.827,1.54c-1.415,1.041-2.497,2.414-3.163,4.12c-0.666,1.748-0.999,4.62-0.999,8.614v11.029h-3.578
					v-14.4c0-3.37-0.251-5.7-0.667-6.907c-0.415-1.207-1.123-2.165-2.204-2.914c-1.042-0.749-2.29-1.082-3.747-1.082
					c-1.664,0-3.203,0.499-4.661,1.499c-1.456,0.999-2.538,2.372-3.245,4.079c-0.667,1.706-1.042,4.287-1.042,7.823v11.903h-3.578
					V28.173z M30.333,28.173v28.091h-3.579v-4.827c-1.498,1.83-3.204,3.204-5.077,4.12c-1.789,0.873-3.704,1.372-5.826,1.415v-3.288
					c1.997-0.042,3.87-0.541,5.618-1.499c1.789-0.998,3.162-2.372,4.078-4.078c0.958-1.706,1.457-3.62,1.457-5.742
					c0-3.247-1.082-5.993-3.204-8.158c-2.165-2.206-4.787-3.288-7.907-3.288h-0.042v-3.495c2.205,0.042,4.203,0.541,5.992,1.498
					c1.873,0.957,3.496,2.456,4.911,4.411v-5.16H30.333L30.333,28.173z M161.965,27.424v3.537c-2.995,0-5.576,1.124-7.74,3.33
					c-2.163,2.248-3.205,4.911-3.205,8.074c0,2.039,0.459,3.912,1.458,5.658c0.998,1.79,2.288,3.122,3.953,4.079
					c1.706,0.957,3.538,1.415,5.534,1.415v3.455c-4.327,0-7.823-1.458-10.569-4.413c-2.705-2.911-4.078-6.366-4.078-10.278
					c0-3.871,1.289-7.241,3.869-10.113C154.017,29.004,157.596,27.424,161.965,27.424L161.965,27.424z M67.248,28.173h3.662v13.108
					c0,3.205,0.166,5.411,0.499,6.617c0.541,1.706,1.498,3.08,2.955,4.078c1.457,0.999,3.204,1.498,5.202,1.498
					c2.04,0,3.746-0.499,5.12-1.456c1.414-0.998,2.372-2.247,2.912-3.869c0.375-1.083,0.542-3.372,0.542-6.868V28.173h3.704v13.774
					c0,3.871-0.458,6.783-1.374,8.739c-0.874,1.956-2.248,3.497-4.079,4.62c-1.79,1.123-4.078,1.665-6.825,1.665
					c-2.705,0-4.994-0.542-6.825-1.665s-3.204-2.664-4.12-4.661c-0.916-1.998-1.373-4.952-1.373-8.947V28.173L67.248,28.173z
					 M127.091,33.999l-2.83,1.79c-2.496-3.288-5.867-4.953-10.153-4.953c-3.413,0-6.285,1.124-8.532,3.329
					c-2.247,2.206-3.371,4.869-3.371,7.99c0,2.081,0.5,3.994,1.54,5.826c1.041,1.79,2.455,3.205,4.286,4.203
					c1.832,0.958,3.829,1.499,6.118,1.499c4.12,0,7.491-1.665,10.112-4.953l2.83,1.873c-1.372,2.039-3.121,3.58-5.367,4.703
					c-2.29,1.123-4.87,1.665-7.741,1.665c-4.453,0-8.115-1.415-11.028-4.245c-2.955-2.831-4.412-6.243-4.412-10.279
					c0-2.747,0.667-5.244,2.04-7.575c1.373-2.33,3.246-4.161,5.66-5.451c2.373-1.333,5.077-1.998,8.032-1.998
					c1.831,0,3.621,0.291,5.369,0.873c1.747,0.583,3.203,1.29,4.41,2.206C125.219,31.418,126.217,32.584,127.091,33.999z
					 M15.852,56.972c-0.125,0-0.25,0-0.375,0c-3.954,0-7.366-1.458-10.197-4.329c-2.787-2.871-4.203-6.409-4.203-10.529
					c0-4.036,1.416-7.491,4.287-10.362c2.83-2.871,6.243-4.328,10.238-4.328c0.083,0,0.166,0,0.25,0v3.495
					c-1.998,0-3.829,0.5-5.536,1.499c-1.706,0.999-3.079,2.372-4.078,4.161c-0.999,1.79-1.498,3.704-1.498,5.661
					c0,1.997,0.5,3.91,1.498,5.701c1.041,1.79,2.372,3.204,4.12,4.203c1.707,0.999,3.538,1.54,5.494,1.54l0,0V56.972z"/>
				<path fill="#E50004" d="M160.717,54.141v-3.412c1.998,0,3.829-0.499,5.494-1.457c1.664-0.957,2.996-2.288,3.995-4.077
					c0.956-1.749,1.457-3.622,1.457-5.661c0-3.163-1.083-5.826-3.248-8.032c-2.164-2.247-4.701-3.329-7.698-3.329v-3.538
					c4.328,0,7.907,1.54,10.737,4.703c2.581,2.83,3.87,6.201,3.87,10.113c0,3.912-1.373,7.366-4.078,10.28
					C168.499,52.685,165.004,54.141,160.717,54.141L160.717,54.141z M196.673,25.342h3.579v4.869c1.249-1.79,2.539-3.121,3.87-3.954
					c1.832-1.082,3.745-1.623,5.743-1.623c1.373,0,2.663,0.25,3.871,0.791c1.248,0.541,2.247,1.249,2.995,2.123
					c0.792,0.874,1.458,2.164,2.04,3.788c1.207-2.165,2.706-3.871,4.495-4.994c1.831-1.166,3.745-1.707,5.825-1.707
					c1.957,0,3.662,0.458,5.16,1.457s2.581,2.33,3.329,4.12c0.708,1.749,1.083,4.37,1.083,7.866v15.356h-3.704V38.078
					c0-2.997-0.208-5.078-0.624-6.201c-0.458-1.124-1.207-2.039-2.247-2.705c-1.04-0.708-2.248-1.041-3.704-1.041
					c-1.747,0-3.371,0.5-4.827,1.54c-1.457,1.041-2.497,2.414-3.204,4.121c-0.666,1.747-0.999,4.618-0.999,8.656v10.986h-3.579
					V39.034c0-3.371-0.209-5.66-0.624-6.908c-0.416-1.207-1.166-2.164-2.205-2.913c-1.042-0.707-2.291-1.082-3.746-1.082
					c-1.665,0-3.246,0.5-4.704,1.498c-1.456,1.041-2.496,2.373-3.203,4.079c-0.708,1.706-1.041,4.328-1.041,7.825v11.901h-3.579
					V25.342z M29.127,25.342v28.091h-3.579v-4.828c-1.498,1.832-3.204,3.206-5.118,4.162c-1.748,0.874-3.704,1.332-5.785,1.373
					v-3.287c1.956,0,3.828-0.499,5.618-1.498c1.748-0.999,3.121-2.372,4.078-4.079c0.958-1.664,1.457-3.62,1.457-5.743
					c0-3.246-1.082-5.951-3.246-8.157c-2.123-2.164-4.745-3.288-7.907-3.288l0,0v-3.454c2.206,0,4.203,0.5,5.992,1.457
					c1.873,0.999,3.496,2.455,4.911,4.411v-5.161H29.127L29.127,25.342z M160.717,24.635v3.538c-2.996,0-5.576,1.082-7.699,3.329
					c-2.163,2.206-3.246,4.87-3.246,8.032c0,2.039,0.5,3.912,1.499,5.661c0.956,1.789,2.289,3.12,3.954,4.077
					c1.664,0.958,3.495,1.457,5.492,1.457v3.412c-4.286,0-7.824-1.456-10.528-4.41c-2.747-2.914-4.079-6.368-4.079-10.28
					c0-3.87,1.291-7.241,3.871-10.113C152.81,26.175,156.389,24.635,160.717,24.635L160.717,24.635z M66.041,25.342h3.621v13.109
					c0,3.205,0.207,5.411,0.541,6.617c0.5,1.706,1.498,3.081,2.955,4.079s3.205,1.498,5.202,1.498s3.704-0.5,5.12-1.456
					c1.414-1,2.372-2.248,2.912-3.829c0.375-1.083,0.541-3.413,0.541-6.909V25.342h3.663v13.775c0,3.87-0.417,6.784-1.332,8.741
					c-0.916,1.996-2.248,3.494-4.079,4.617c-1.831,1.125-4.078,1.665-6.825,1.665s-5.036-0.54-6.867-1.665
					c-1.831-1.123-3.204-2.663-4.079-4.617c-0.916-2-1.373-4.995-1.373-8.991V25.342L66.041,25.342z M125.843,31.169l-2.788,1.79
					c-2.497-3.288-5.867-4.953-10.154-4.953c-3.413,0-6.285,1.124-8.532,3.33c-2.289,2.205-3.412,4.869-3.412,8.031
					c0,2.039,0.541,3.954,1.581,5.784c1.041,1.79,2.456,3.205,4.287,4.204c1.79,0.999,3.829,1.498,6.077,1.498
					c4.161,0,7.532-1.664,10.154-4.952l2.788,1.873c-1.291,2.038-3.08,3.578-5.368,4.701c-2.248,1.125-4.827,1.665-7.699,1.665
					c-4.453,0-8.115-1.414-11.07-4.202c-2.912-2.831-4.37-6.285-4.37-10.322c0-2.704,0.666-5.243,2.04-7.574
					c1.374-2.33,3.246-4.161,5.66-5.452c2.372-1.332,5.035-1.956,7.989-1.956c1.873,0,3.663,0.25,5.411,0.833
					c1.707,0.583,3.163,1.332,4.37,2.206C124.011,28.589,125.011,29.754,125.843,31.169z M14.645,54.141c-0.125,0-0.25,0-0.375,0
					c-3.995,0-7.366-1.456-10.196-4.328c-2.787-2.871-4.203-6.367-4.203-10.528c0-4.038,1.416-7.492,4.245-10.363
					c2.83-2.871,6.285-4.287,10.238-4.287c0.125,0,0.208,0,0.291,0v3.454c-1.998,0-3.87,0.5-5.577,1.498
					c-1.706,1-3.038,2.373-4.037,4.163c-1.041,1.789-1.54,3.704-1.54,5.701c0,1.956,0.5,3.871,1.54,5.661
					c0.999,1.83,2.372,3.203,4.079,4.244c1.706,0.999,3.579,1.498,5.535,1.498l0,0V54.141z"/>
			</g>
		</g>
	</g>
	<g>
		<path fill="#1B1C20" d="M74.322,1.663c1.04,0.167,1.831,0.541,2.372,1.04c0.708,0.708,1.041,1.582,1.041,2.664
			c0,1.082-0.332,1.956-1.041,2.664c-0.541,0.499-1.29,0.832-2.372,1.04V7.323c0.083,0,0.125-0.042,0.167-0.042
			c0.416-0.166,0.708-0.415,0.873-0.707c0.167-0.291,0.292-0.707,0.292-1.29c0-0.957-0.458-1.623-1.332-1.915V1.663z M73.032,9.154
			v1.166H70.91V9.154c-0.458,0-0.916-0.042-1.29-0.083V7.365c0.375,0.125,0.791,0.167,1.29,0.167V3.203
			c-0.5,0-0.957,0.041-1.29,0.166V1.663c0.417-0.041,0.832-0.083,1.29-0.125V0.581h2.122v0.957c0.499,0.042,0.916,0.084,1.291,0.125
			v1.706c-0.333-0.125-0.792-0.166-1.291-0.166v4.328c0.499,0,0.916-0.042,1.291-0.208V9.07C73.948,9.112,73.531,9.154,73.032,9.154
			z M69.62,9.07c-1.041-0.208-1.831-0.541-2.331-1.04c-0.707-0.708-1.083-1.623-1.083-2.664c0-1.124,0.375-2.04,1.124-2.705
			c0.542-0.5,1.29-0.833,2.289-0.999v1.706c-0.292,0.084-0.499,0.208-0.666,0.375c-0.416,0.374-0.625,0.915-0.625,1.664
			c0,0.999,0.417,1.665,1.291,1.956V9.07z"/>
		<path fill="#1B1C20" d="M88.805,10.319h-2.331l-0.958-2.206h-2.164V6.449h1.457l-1.457-3.537V0.581h1.166L88.805,10.319z
			 M83.353,8.114H81.23l-0.915,2.206h-2.289l4.203-9.738h1.123v2.331V2.87l-1.456,3.579h1.456V8.114z"/>
		<path fill="#1B1C20" d="M96.503,6.74l2.081,0.583c-0.333,1.082-0.833,1.873-1.582,2.372c-0.75,0.5-1.706,0.791-2.872,0.791
			c-1.456,0-2.622-0.458-3.537-1.332c-0.916-0.874-1.374-2.081-1.374-3.62c0-1.623,0.458-2.872,1.374-3.787
			c0.957-0.875,2.164-1.332,3.662-1.332c1.332,0,2.373,0.374,3.204,1.081c0.5,0.417,0.874,1,1.124,1.79L96.42,3.745
			c-0.125-0.5-0.416-0.916-0.79-1.207c-0.417-0.292-0.916-0.417-1.499-0.417c-0.791,0-1.415,0.25-1.915,0.75
			c-0.5,0.541-0.749,1.373-0.749,2.497c0,1.249,0.249,2.123,0.708,2.664c0.5,0.499,1.124,0.749,1.914,0.749
			c0.583,0,1.082-0.166,1.498-0.5C96.004,7.947,96.295,7.448,96.503,6.74z"/>
		<path fill="#1B1C20" d="M109.779,10.319h-2.373l-0.916-2.206h-2.164V6.449h1.457l-1.457-3.537V0.581h1.166L109.779,10.319z
			 M104.327,8.114h-2.122l-0.916,2.206H99l4.203-9.738h1.124v2.331V2.87l-1.456,3.579h1.456V8.114z"/>
		<path fill="#1B1C20" d="M115.605,0.581h4.203v8.074h0.957v3.787h-1.831v-2.123h-3.329V8.655h2.039V2.204h-2.039V0.581z
			 M112.359,0.581h3.246v1.623h-1.165c0,2.954-0.292,5.119-0.875,6.451h2.04v1.665h-3.454v2.123h-1.789V8.655h0.915
			c0.458-0.791,0.749-1.789,0.874-2.872c0.167-1.082,0.208-2.497,0.208-4.161V0.581z"/>
		<polygon fill="#1B1C20" points="122.222,10.319 122.222,0.581 124.387,0.581 124.387,4.41 128.631,4.41 128.631,0.581 
			130.796,0.581 130.796,10.319 128.631,10.319 128.631,6.074 124.387,6.074 124.387,10.319 		"/>
		<path fill="#1B1C20" d="M137.537,4.493h0.624c0.791,0,1.415,0.083,1.998,0.25c0.541,0.208,0.998,0.541,1.373,1.04
			c0.333,0.458,0.541,1,0.541,1.666c0,0.624-0.208,1.207-0.582,1.664c-0.375,0.5-0.791,0.791-1.29,0.958
			c-0.458,0.166-1.125,0.25-2.04,0.25h-0.624V8.655c0.583,0,0.999,0,1.248-0.083c0.291-0.042,0.5-0.167,0.707-0.375
			c0.209-0.25,0.334-0.499,0.334-0.791c0-0.458-0.167-0.749-0.5-0.999c-0.333-0.208-0.956-0.291-1.789-0.291V4.493L137.537,4.493z
			 M143.321,0.581h2.164v9.738h-2.164V0.581z M133.085,0.581h2.163v3.912h2.289v1.623h-0.083h-2.206v2.539h2.122h0.167v1.665h-4.452
			V0.581z"/>
		<polygon fill="#1B1C20" points="147.733,10.319 147.733,0.581 155.724,0.581 155.724,2.246 149.938,2.246 149.938,4.368 
			155.307,4.368 155.307,6.033 149.938,6.033 149.938,8.655 155.931,8.655 155.931,10.319 		"/>
		<path fill="#1B1C20" d="M168.832,6.74l2.123,0.583c-0.334,1.082-0.874,1.873-1.624,2.372c-0.748,0.5-1.705,0.791-2.87,0.791
			c-1.416,0-2.581-0.458-3.497-1.332c-0.915-0.874-1.373-2.081-1.373-3.62c0-1.623,0.458-2.872,1.373-3.787
			c0.916-0.875,2.122-1.332,3.662-1.332c1.291,0,2.372,0.374,3.204,1.081c0.459,0.417,0.834,1,1.083,1.79l-2.165,0.458
			c-0.124-0.5-0.373-0.916-0.789-1.207c-0.375-0.292-0.874-0.417-1.457-0.417c-0.791,0-1.457,0.25-1.956,0.75
			c-0.5,0.541-0.75,1.373-0.75,2.497c0,1.249,0.25,2.123,0.75,2.664c0.499,0.499,1.123,0.749,1.915,0.749
			c0.582,0,1.081-0.166,1.498-0.5C168.375,7.947,168.666,7.448,168.832,6.74z"/>
		<polygon fill="#1B1C20" points="172.828,0.581 174.866,0.581 174.866,7.073 179.237,0.581 181.399,0.581 181.399,10.319 
			179.361,10.319 179.361,3.952 175.033,10.319 172.828,10.319 		"/>
		<path fill="#1B1C20" d="M190.514,6.74l2.082,0.583c-0.292,1.082-0.834,1.873-1.582,2.372c-0.749,0.5-1.707,0.791-2.871,0.791
			c-1.416,0-2.623-0.458-3.538-1.332c-0.915-0.874-1.373-2.081-1.373-3.62c0-1.623,0.458-2.872,1.415-3.787
			c0.916-0.875,2.122-1.332,3.62-1.332c1.331,0,2.413,0.374,3.204,1.081c0.5,0.417,0.874,1,1.125,1.79l-2.165,0.458
			c-0.124-0.5-0.375-0.916-0.79-1.207c-0.416-0.292-0.916-0.417-1.457-0.417c-0.832,0-1.457,0.25-1.956,0.75
			c-0.499,0.541-0.749,1.373-0.749,2.497c0,1.249,0.25,2.123,0.749,2.664c0.458,0.499,1.124,0.749,1.872,0.749
			c0.583,0,1.082-0.166,1.498-0.5C190.016,7.947,190.307,7.448,190.514,6.74z"/>
		<polygon fill="#1B1C20" points="196.549,10.319 196.549,2.246 193.344,2.246 193.344,0.581 201.876,0.581 201.876,2.246 
			198.712,2.246 198.712,10.319 		"/>
		<polygon fill="#1B1C20" points="203.29,10.319 203.29,0.581 211.28,0.581 211.28,2.246 205.454,2.246 205.454,4.368 
			210.865,4.368 210.865,6.033 205.454,6.033 205.454,8.655 211.489,8.655 211.489,10.319 		"/>
		<polygon fill="#1B1C20" points="213.279,10.319 213.279,0.581 216.524,0.581 218.48,7.198 220.436,0.581 223.682,0.581 
			223.682,10.319 221.685,10.319 221.685,2.662 219.521,10.319 217.439,10.319 215.318,2.662 215.318,10.319 		"/>
		<path fill="#1B1C20" d="M230.341,4.493h0.624c0.791,0,1.456,0.083,1.998,0.25c0.541,0.208,0.998,0.541,1.373,1.04
			c0.374,0.458,0.54,1,0.54,1.666c0,0.624-0.166,1.207-0.582,1.664c-0.374,0.5-0.79,0.791-1.249,0.958
			c-0.458,0.166-1.165,0.25-2.08,0.25h-0.624V8.655c0.624,0,1.04,0,1.291-0.083c0.248-0.042,0.498-0.167,0.706-0.375
			c0.209-0.25,0.292-0.499,0.292-0.791c0-0.458-0.167-0.749-0.5-0.999c-0.333-0.208-0.916-0.291-1.789-0.291V4.493L230.341,4.493z
			 M236.125,0.581h2.164v9.738h-2.164V0.581z M225.889,0.581h2.205v3.912h2.247v1.623h-0.042h-2.205v2.539h2.122h0.125v1.665h-4.452
			V0.581z"/>
		<g>
			<g>
				<polygon fill-rule="evenodd" clip-rule="evenodd" fill="#C2C5C7" points="42.444,4.493 49.894,-0.043 54.097,-0.043 
					47.313,4.493 				"/>
				<polygon fill-rule="evenodd" clip-rule="evenodd" fill="#ECEDEE" points="47.313,4.493 54.097,-0.043 54.097,60.509 
					47.313,74.906 				"/>
				<polygon fill-rule="evenodd" clip-rule="evenodd" fill="#C2C5C7" points="47.313,74.906 54.097,60.509 70.868,60.509 
					66.789,74.906 				"/>
				<polygon fill-rule="evenodd" clip-rule="evenodd" fill="#ECEDEE" points="66.789,74.906 70.868,60.509 70.868,65.419 
					66.789,80.609 				"/>
				<path fill="#E50004" d="M42.444,80.609c0-1.873,0-3.746,0-5.661c0-11.734,0-23.471,0-35.248c0-11.694,0-23.472,0-35.207
					c1.665,0.041,3.288,0.041,4.911,0.041c0,11.694,0,23.472,0,35.166c-0.042,11.777-0.042,23.514-0.042,35.248
					c3.246,0,6.492,0,9.738,0s6.492-0.042,9.737-0.042c0,1.916,0,3.83,0,5.703c-3.246,0-6.491,0-9.737,0s-6.492,0-9.738,0
					C45.69,80.609,44.067,80.609,42.444,80.609z"/>
				<path fill-rule="evenodd" clip-rule="evenodd" fill="#C2C5C7" d="M50.144,15.23c0,11.153,0,22.431,0,33.583
					c0.457,1.665,1.914-0.582,1.873-2.496c0-10.904-0.042-21.807-0.042-32.71C51.475,11.651,50.019,13.149,50.144,15.23z"/>
				<path fill-rule="evenodd" clip-rule="evenodd" fill="#ECEDEE" d="M56.303,65.752c3.079,0,7.448-0.042,9.279,0
					c1.831,0.042,1.166,1.955-0.708,1.955l-8.947-0.083C53.806,67.624,54.554,65.627,56.303,65.752z"/>
			</g>
			<g>
				<rect x="135.664" y="14.897" fill-rule="evenodd" clip-rule="evenodd" fill="#ECEDEE" width="49.98" height="49.398"/>
				<path fill="#D7D9DB" d="M161.965,56.972v-3.455c1.957,0,3.788-0.458,5.494-1.415c1.664-0.957,2.996-2.289,3.953-4.079
					c0.999-1.746,1.499-3.619,1.499-5.658c0-3.164-1.125-5.827-3.247-8.074c-2.164-2.206-4.743-3.33-7.699-3.33v-3.537
					c4.286,0,7.865,1.581,10.737,4.702c2.582,2.872,3.871,6.243,3.871,10.154c0,3.912-1.373,7.367-4.12,10.278
					C169.748,55.514,166.211,56.972,161.965,56.972L161.965,56.972z M197.88,28.173h3.578V33c1.249-1.79,2.54-3.08,3.872-3.912
					c1.83-1.082,3.745-1.664,5.743-1.664c1.372,0,2.663,0.291,3.911,0.833c1.206,0.499,2.207,1.207,2.955,2.122
					c0.791,0.874,1.456,2.165,2.039,3.787c1.206-2.205,2.705-3.87,4.494-4.994c1.832-1.166,3.745-1.748,5.868-1.748
					c1.915,0,3.62,0.499,5.117,1.498c1.5,0.957,2.623,2.331,3.33,4.079c0.708,1.748,1.083,4.412,1.083,7.907v15.356h-3.704V40.907
					c0-2.997-0.209-5.078-0.625-6.201c-0.415-1.124-1.165-2.04-2.205-2.706c-1.041-0.707-2.288-1.041-3.745-1.041
					c-1.748,0-3.371,0.499-4.827,1.54c-1.415,1.041-2.497,2.414-3.163,4.12c-0.666,1.748-0.999,4.62-0.999,8.614v11.029h-3.578
					v-14.4c0-3.37-0.251-5.7-0.667-6.907c-0.415-1.207-1.123-2.165-2.204-2.914c-1.042-0.749-2.29-1.082-3.747-1.082
					c-1.664,0-3.203,0.499-4.661,1.499c-1.456,0.999-2.538,2.372-3.245,4.079c-0.667,1.706-1.042,4.287-1.042,7.823v11.903h-3.578
					V28.173z M30.333,28.173v28.091h-3.579v-4.827c-1.498,1.83-3.204,3.204-5.077,4.12c-1.789,0.873-3.704,1.372-5.826,1.415v-3.288
					c1.997-0.042,3.87-0.541,5.618-1.499c1.789-0.998,3.162-2.372,4.078-4.078c0.958-1.706,1.457-3.62,1.457-5.742
					c0-3.247-1.082-5.993-3.204-8.158c-2.165-2.206-4.787-3.288-7.907-3.288h-0.042v-3.495c2.205,0.042,4.203,0.541,5.992,1.498
					c1.873,0.957,3.496,2.456,4.911,4.411v-5.16H30.333L30.333,28.173z M161.965,27.424v3.537c-2.995,0-5.576,1.124-7.74,3.33
					c-2.163,2.248-3.205,4.911-3.205,8.074c0,2.039,0.459,3.912,1.458,5.658c0.998,1.79,2.288,3.122,3.953,4.079
					c1.706,0.957,3.538,1.415,5.534,1.415v3.455c-4.327,0-7.823-1.458-10.569-4.413c-2.705-2.911-4.078-6.366-4.078-10.278
					c0-3.871,1.289-7.241,3.869-10.113C154.017,29.004,157.596,27.424,161.965,27.424L161.965,27.424z M67.248,28.173h3.662v13.108
					c0,3.205,0.166,5.411,0.499,6.617c0.541,1.706,1.498,3.08,2.955,4.078c1.457,0.999,3.204,1.498,5.202,1.498
					c2.04,0,3.746-0.499,5.12-1.456c1.414-0.998,2.372-2.247,2.912-3.869c0.375-1.083,0.542-3.372,0.542-6.868V28.173h3.704v13.774
					c0,3.871-0.458,6.783-1.374,8.739c-0.874,1.956-2.248,3.497-4.079,4.62c-1.79,1.123-4.078,1.665-6.825,1.665
					c-2.705,0-4.994-0.542-6.825-1.665s-3.204-2.664-4.12-4.661c-0.916-1.998-1.373-4.952-1.373-8.947V28.173L67.248,28.173z
					 M127.091,33.999l-2.83,1.79c-2.496-3.288-5.867-4.953-10.153-4.953c-3.413,0-6.285,1.124-8.532,3.329
					c-2.247,2.206-3.371,4.869-3.371,7.99c0,2.081,0.5,3.994,1.54,5.826c1.041,1.79,2.455,3.205,4.286,4.203
					c1.832,0.958,3.829,1.499,6.118,1.499c4.12,0,7.491-1.665,10.112-4.953l2.83,1.873c-1.372,2.039-3.121,3.58-5.367,4.703
					c-2.29,1.123-4.87,1.665-7.741,1.665c-4.453,0-8.115-1.415-11.028-4.245c-2.955-2.831-4.412-6.243-4.412-10.279
					c0-2.747,0.667-5.244,2.04-7.575c1.373-2.33,3.246-4.161,5.66-5.451c2.373-1.333,5.077-1.998,8.032-1.998
					c1.831,0,3.621,0.291,5.369,0.873c1.747,0.583,3.203,1.29,4.41,2.206C125.219,31.418,126.217,32.584,127.091,33.999z
					 M15.852,56.972c-0.125,0-0.25,0-0.375,0c-3.954,0-7.366-1.458-10.197-4.329c-2.787-2.871-4.203-6.409-4.203-10.529
					c0-4.036,1.416-7.491,4.287-10.362c2.83-2.871,6.243-4.328,10.238-4.328c0.083,0,0.166,0,0.25,0v3.495
					c-1.998,0-3.829,0.5-5.536,1.499c-1.706,0.999-3.079,2.372-4.078,4.161c-0.999,1.79-1.498,3.704-1.498,5.661
					c0,1.997,0.5,3.91,1.498,5.701c1.041,1.79,2.372,3.204,4.12,4.203c1.707,0.999,3.538,1.54,5.494,1.54l0,0V56.972z"/>
				<path fill="#E50004" d="M160.717,54.141v-3.412c1.998,0,3.829-0.499,5.494-1.457c1.664-0.957,2.996-2.288,3.995-4.077
					c0.956-1.749,1.457-3.622,1.457-5.661c0-3.163-1.083-5.826-3.248-8.032c-2.164-2.247-4.701-3.329-7.698-3.329v-3.538
					c4.328,0,7.907,1.54,10.737,4.703c2.581,2.83,3.87,6.201,3.87,10.113c0,3.912-1.373,7.366-4.078,10.28
					C168.499,52.685,165.004,54.141,160.717,54.141L160.717,54.141z M196.673,25.342h3.579v4.869c1.249-1.79,2.539-3.121,3.87-3.954
					c1.832-1.082,3.745-1.623,5.743-1.623c1.373,0,2.663,0.25,3.871,0.791c1.248,0.541,2.247,1.249,2.995,2.123
					c0.792,0.874,1.458,2.164,2.04,3.788c1.207-2.165,2.706-3.871,4.495-4.994c1.831-1.166,3.745-1.707,5.825-1.707
					c1.957,0,3.662,0.458,5.16,1.457s2.581,2.33,3.329,4.12c0.708,1.749,1.083,4.37,1.083,7.866v15.356h-3.704V38.078
					c0-2.997-0.208-5.078-0.624-6.201c-0.458-1.124-1.207-2.039-2.247-2.705c-1.04-0.708-2.248-1.041-3.704-1.041
					c-1.747,0-3.371,0.5-4.827,1.54c-1.457,1.041-2.497,2.414-3.204,4.121c-0.666,1.747-0.999,4.618-0.999,8.656v10.986h-3.579
					V39.034c0-3.371-0.209-5.66-0.624-6.908c-0.416-1.207-1.166-2.164-2.205-2.913c-1.042-0.707-2.291-1.082-3.746-1.082
					c-1.665,0-3.246,0.5-4.704,1.498c-1.456,1.041-2.496,2.373-3.203,4.079c-0.708,1.706-1.041,4.328-1.041,7.825v11.901h-3.579
					V25.342z M29.127,25.342v28.091h-3.579v-4.828c-1.498,1.832-3.204,3.206-5.118,4.162c-1.748,0.874-3.704,1.332-5.785,1.373
					v-3.287c1.956,0,3.828-0.499,5.618-1.498c1.748-0.999,3.121-2.372,4.078-4.079c0.958-1.664,1.457-3.62,1.457-5.743
					c0-3.246-1.082-5.951-3.246-8.157c-2.123-2.164-4.745-3.288-7.907-3.288l0,0v-3.454c2.206,0,4.203,0.5,5.992,1.457
					c1.873,0.999,3.496,2.455,4.911,4.411v-5.161H29.127L29.127,25.342z M160.717,24.635v3.538c-2.996,0-5.576,1.082-7.699,3.329
					c-2.163,2.206-3.246,4.87-3.246,8.032c0,2.039,0.5,3.912,1.499,5.661c0.956,1.789,2.289,3.12,3.954,4.077
					c1.664,0.958,3.495,1.457,5.492,1.457v3.412c-4.286,0-7.824-1.456-10.528-4.41c-2.747-2.914-4.079-6.368-4.079-10.28
					c0-3.87,1.291-7.241,3.871-10.113C152.81,26.175,156.389,24.635,160.717,24.635L160.717,24.635z M66.041,25.342h3.621v13.109
					c0,3.205,0.207,5.411,0.541,6.617c0.5,1.706,1.498,3.081,2.955,4.079s3.205,1.498,5.202,1.498s3.704-0.5,5.12-1.456
					c1.414-1,2.372-2.248,2.912-3.829c0.375-1.083,0.541-3.413,0.541-6.909V25.342h3.663v13.775c0,3.87-0.417,6.784-1.332,8.741
					c-0.916,1.996-2.248,3.494-4.079,4.617c-1.831,1.125-4.078,1.665-6.825,1.665s-5.036-0.54-6.867-1.665
					c-1.831-1.123-3.204-2.663-4.079-4.617c-0.916-2-1.373-4.995-1.373-8.991V25.342L66.041,25.342z M125.843,31.169l-2.788,1.79
					c-2.497-3.288-5.867-4.953-10.154-4.953c-3.413,0-6.285,1.124-8.532,3.33c-2.289,2.205-3.412,4.869-3.412,8.031
					c0,2.039,0.541,3.954,1.581,5.784c1.041,1.79,2.456,3.205,4.287,4.204c1.79,0.999,3.829,1.498,6.077,1.498
					c4.161,0,7.532-1.664,10.154-4.952l2.788,1.873c-1.291,2.038-3.08,3.578-5.368,4.701c-2.248,1.125-4.827,1.665-7.699,1.665
					c-4.453,0-8.115-1.414-11.07-4.202c-2.912-2.831-4.37-6.285-4.37-10.322c0-2.704,0.666-5.243,2.04-7.574
					c1.374-2.33,3.246-4.161,5.66-5.452c2.372-1.332,5.035-1.956,7.989-1.956c1.873,0,3.663,0.25,5.411,0.833
					c1.707,0.583,3.163,1.332,4.37,2.206C124.011,28.589,125.011,29.754,125.843,31.169z M14.645,54.141c-0.125,0-0.25,0-0.375,0
					c-3.995,0-7.366-1.456-10.196-4.328c-2.787-2.871-4.203-6.367-4.203-10.528c0-4.038,1.416-7.492,4.245-10.363
					c2.83-2.871,6.285-4.287,10.238-4.287c0.125,0,0.208,0,0.291,0v3.454c-1.998,0-3.87,0.5-5.577,1.498
					c-1.706,1-3.038,2.373-4.037,4.163c-1.041,1.789-1.54,3.704-1.54,5.701c0,1.956,0.5,3.871,1.54,5.661
					c0.999,1.83,2.372,3.203,4.079,4.244c1.706,0.999,3.579,1.498,5.535,1.498l0,0V54.141z"/>
			</g>
		</g>
	</g>
</g>
</svg>
