<?xml version="1.0" encoding="utf-8"?>
<!-- Generator: Adobe Illustrator 15.1.0, SVG Export Plug-In . SVG Version: 6.00 Build 0)  -->
<!DOCTYPE svg PUBLIC "-//W3C//DTD SVG 1.1//EN" "http://www.w3.org/Graphics/SVG/1.1/DTD/svg11.dtd">
<svg version="1.1" id="Layer_1" xmlns="http://www.w3.org/2000/svg" xmlns:xlink="http://www.w3.org/1999/xlink" x="0px" y="0px"
	 width="180px" height="76.338px" viewBox="0 2.887 180 76.338" enable-background="new 0 2.887 180 76.338" xml:space="preserve">
<g>
	<path fill="#F5F5F5" d="M74.71,44.781h-3.387v12.711h-6.104V27.053h6.104v12.438h2.655l8.069-12.438h7.463L79.268,41.227
		l11.059,16.266h-7.442L74.71,44.781z"/>
	<path fill="#F5F5F5" d="M115.482,45.011c0,3.734-1.18,6.822-3.543,9.261c-2.362,2.439-5.434,3.659-9.209,3.659
		c-3.748,0-6.793-1.219-9.135-3.659c-2.343-2.438-3.514-5.525-3.514-9.261v-5.478c0-3.723,1.167-6.806,3.502-9.251
		c2.334-2.445,5.376-3.669,9.125-3.669c3.775,0,6.852,1.224,9.221,3.669c2.367,2.445,3.553,5.528,3.553,9.251V45.011z
		 M109.378,39.508c0-2.374-0.593-4.322-1.776-5.845c-1.186-1.521-2.814-2.282-4.893-2.282s-3.688,0.758-4.83,2.271
		s-1.714,3.467-1.714,5.854v5.529c0,2.416,0.578,4.386,1.735,5.907c1.156,1.521,2.767,2.282,4.828,2.282
		c2.092,0,3.722-0.761,4.893-2.282s1.756-3.491,1.756-5.907L109.378,39.508L109.378,39.508z"/>
	<path fill="#F5F5F5" d="M126.127,57.491h-6.104V27.053h6.104V57.491z"/>
	<path fill="#F5F5F5" d="M141.055,44.781h-3.387v12.711h-6.104V27.053h6.104v12.438h2.654l8.07-12.438h7.463l-10.242,14.174
		l11.059,16.266h-7.441L141.055,44.781z"/>
	<path fill="#F5F5F5" d="M178.152,44.112h-12.606v8.676h14.739v4.704h-20.844V27.053h20.802v4.704h-14.697v7.651h12.606V44.112
		L178.152,44.112z"/>
</g>
<polygon fill="#F5F5F5" points="0,2.887 2,52.637 12.092,53.427 11.879,2.887 "/>
<path fill="#F5F5F5" d="M54.125,2.887H29.676c-4.184,2.656-10.301,8.029-10.301,16.75c0,15.659,17.205,29.977,26.232,36.412
	l7.518,0.588L54.125,2.887z"/>
<g>
	<path fill="#F5F5F5" d="M3.44,71.264l0.041,0.006l3.29-4.859h1.482l-4.467,6.384l-0.697,3.472h-1.3L2.5,72.705L0.611,66.41H2.1
		L3.44,71.264z"/>
	<path fill="#F5F5F5" d="M6.966,72.536c0.181-1.128,0.595-2.031,1.242-2.711s1.447-1.02,2.399-1.02c0.912,0,1.594,0.354,2.048,1.06
		c0.454,0.706,0.594,1.597,0.423,2.67l-0.02,0.148c-0.185,1.134-0.602,2.036-1.249,2.711s-1.447,1.013-2.399,1.013
		c-0.912,0-1.594-0.353-2.048-1.057c-0.454-0.704-0.592-1.593-0.416-2.667L6.966,72.536z M8.252,72.682
		c-0.13,0.807-0.091,1.455,0.119,1.944c0.21,0.488,0.61,0.732,1.201,0.732c0.551,0,1.02-0.256,1.408-0.768
		c0.388-0.513,0.643-1.147,0.765-1.91l0.021-0.148c0.126-0.793,0.083-1.438-0.129-1.935c-0.212-0.496-0.609-0.744-1.191-0.744
		c-0.555,0-1.026,0.258-1.412,0.771c-0.386,0.515-0.64,1.149-0.761,1.906L8.252,72.682z"/>
	<path fill="#F5F5F5" d="M18.313,76.266l0.115-1.002c-0.289,0.375-0.617,0.659-0.985,0.854c-0.368,0.193-0.771,0.291-1.208,0.291
		c-0.7,0-1.217-0.26-1.553-0.777c-0.336-0.519-0.398-1.31-0.187-2.369l0.86-4.317h1.306l-0.866,4.332
		c-0.167,0.829-0.176,1.38-0.027,1.647c0.149,0.27,0.449,0.402,0.9,0.402c0.402,0,0.766-0.1,1.093-0.298
		c0.327-0.198,0.604-0.475,0.829-0.826l1.049-5.259h1.306l-1.462,7.323L18.313,76.266L18.313,76.266z"/>
	<path fill="#F5F5F5" d="M25.983,70.119l-0.718-0.041c-0.298,0-0.572,0.084-0.822,0.254s-0.468,0.407-0.653,0.715l-1.042,5.219
		h-1.306l1.462-7.323h1.171l-0.081,0.98c0.253-0.355,0.538-0.633,0.856-0.826s0.66-0.291,1.025-0.291
		c0.09,0,0.188,0.008,0.294,0.022c0.106,0.016,0.184,0.033,0.233,0.052L25.983,70.119z"/>
	<path fill="#F5F5F5" d="M32.366,75.359c0.388,0,0.759-0.138,1.113-0.411s0.563-0.605,0.626-0.997h1.171l0.014,0.041
		c-0.09,0.659-0.442,1.228-1.056,1.703c-0.614,0.477-1.291,0.714-2.031,0.714c-0.957,0-1.654-0.353-2.091-1.057
		c-0.438-0.704-0.573-1.572-0.406-2.605l0.047-0.284c0.167-1.078,0.567-1.957,1.202-2.637c0.634-0.68,1.454-1.02,2.46-1.02
		c0.776,0,1.384,0.253,1.824,0.762c0.44,0.508,0.592,1.129,0.457,1.864l-0.013,0.034h-1.185c0.077-0.47,0-0.854-0.23-1.157
		c-0.23-0.302-0.568-0.454-1.015-0.454c-0.614,0-1.103,0.256-1.469,0.765c-0.366,0.51-0.605,1.122-0.717,1.839l-0.048,0.284
		c-0.122,0.774-0.09,1.404,0.095,1.891C31.298,75.116,31.716,75.359,32.366,75.359z"/>
	<path fill="#F5F5F5" d="M40.713,76.266l0.115-1.002c-0.289,0.375-0.617,0.659-0.985,0.854c-0.368,0.193-0.771,0.291-1.208,0.291
		c-0.7,0-1.217-0.26-1.553-0.777c-0.336-0.519-0.398-1.31-0.187-2.369l0.86-4.317h1.306l-0.866,4.332
		c-0.167,0.829-0.176,1.38-0.027,1.647c0.149,0.27,0.449,0.402,0.9,0.402c0.402,0,0.766-0.1,1.093-0.298
		c0.327-0.198,0.604-0.475,0.829-0.826l1.049-5.259h1.306l-1.462,7.323L40.713,76.266L40.713,76.266z"/>
	<path fill="#F5F5F5" d="M47.292,67.176l-0.359,1.768h1.266l-0.196,0.987h-1.266l-0.887,4.447c-0.077,0.365-0.065,0.612,0.034,0.74
		c0.1,0.129,0.26,0.192,0.481,0.192c0.104,0,0.229-0.01,0.375-0.029c0.146-0.021,0.263-0.042,0.349-0.063l-0.007,0.914
		c-0.131,0.081-0.317,0.146-0.559,0.199c-0.241,0.053-0.479,0.078-0.714,0.078c-0.474,0-0.838-0.167-1.093-0.501
		c-0.255-0.334-0.313-0.845-0.172-1.529l0.887-4.447h-1.07l0.196-0.987h1.07l0.358-1.768L47.292,67.176L47.292,67.176z"/>
	<path fill="#F5F5F5" d="M51.922,67.176l-0.359,1.768h1.266l-0.196,0.987h-1.266l-0.887,4.447c-0.077,0.365-0.065,0.612,0.034,0.74
		c0.1,0.129,0.26,0.192,0.481,0.192c0.104,0,0.229-0.01,0.375-0.029c0.146-0.021,0.263-0.042,0.349-0.063l-0.007,0.914
		c-0.131,0.081-0.317,0.146-0.559,0.199c-0.241,0.053-0.479,0.078-0.714,0.078c-0.474,0-0.838-0.167-1.093-0.501
		c-0.255-0.334-0.313-0.845-0.172-1.529l0.887-4.447h-1.07l0.196-0.987h1.07l0.358-1.768L51.922,67.176L51.922,67.176z"/>
	<path fill="#F5F5F5" d="M54.221,76.266h-1.306l1.462-7.323h1.307L54.221,76.266z M56.062,67.068h-1.306l0.271-1.36h1.306
		L56.062,67.068z"/>
	<path fill="#F5F5F5" d="M58.775,69.95c0.298-0.37,0.635-0.652,1.012-0.85c0.377-0.195,0.782-0.294,1.215-0.294
		c0.69,0,1.202,0.233,1.536,0.704s0.406,1.181,0.217,2.132l-0.927,4.623h-1.307l0.921-4.596c0.135-0.687,0.117-1.154-0.054-1.404
		c-0.172-0.25-0.505-0.375-1.002-0.375c-0.316,0-0.629,0.097-0.941,0.288c-0.311,0.191-0.584,0.448-0.819,0.769l-1.063,5.319h-1.306
		l1.462-7.323h1.171L58.775,69.95z"/>
	<path fill="#F5F5F5" d="M64.143,72.604c0.249-1.254,0.651-2.2,1.208-2.839s1.267-0.958,2.129-0.958c0.401,0,0.76,0.088,1.076,0.265
		c0.316,0.176,0.571,0.427,0.765,0.751l0.285-0.88h1.11l-1.442,7.229c-0.203,1.011-0.61,1.771-1.222,2.284
		c-0.611,0.513-1.404,0.769-2.379,0.769c-0.307,0-0.648-0.05-1.025-0.148c-0.376-0.1-0.689-0.229-0.938-0.394l0.535-1.036
		c0.185,0.136,0.429,0.245,0.731,0.328c0.302,0.083,0.604,0.125,0.907,0.125c0.546,0,0.999-0.17,1.357-0.511
		c0.358-0.342,0.599-0.813,0.721-1.418l0.102-0.501c-0.257,0.243-0.542,0.428-0.853,0.552s-0.645,0.187-1.001,0.187
		c-0.785,0-1.382-0.354-1.791-1.06c-0.409-0.707-0.509-1.573-0.301-2.604L64.143,72.604z M65.423,72.746
		c-0.158,0.771-0.125,1.395,0.101,1.868c0.226,0.475,0.637,0.71,1.232,0.71c0.321,0,0.61-0.091,0.87-0.273
		c0.259-0.184,0.498-0.442,0.714-0.782l0.684-3.412c-0.122-0.293-0.302-0.527-0.542-0.703c-0.239-0.177-0.535-0.265-0.887-0.265
		c-0.542,0-0.994,0.247-1.357,0.741c-0.363,0.493-0.626,1.151-0.789,1.973L65.423,72.746z"/>
	<path fill="#F5F5F5" d="M76.889,69.95c0.298-0.37,0.635-0.652,1.012-0.85c0.377-0.195,0.782-0.294,1.215-0.294
		c0.69,0,1.202,0.233,1.536,0.704s0.406,1.181,0.217,2.132l-0.927,4.623h-1.307l0.921-4.596c0.135-0.687,0.117-1.154-0.054-1.404
		c-0.172-0.25-0.505-0.375-1.002-0.375c-0.316,0-0.629,0.097-0.941,0.288c-0.311,0.191-0.584,0.448-0.819,0.769l-1.063,5.319h-1.306
		l1.462-7.323h1.171L76.889,69.95z"/>
	<path fill="#F5F5F5" d="M84.718,76.407c-0.92,0-1.617-0.342-2.088-1.024c-0.472-0.685-0.622-1.563-0.45-2.637l0.047-0.298
		c0.171-1.083,0.599-1.961,1.283-2.633c0.684-0.673,1.422-1.009,2.217-1.009c0.898,0,1.541,0.301,1.929,0.9
		c0.388,0.602,0.505,1.396,0.352,2.381l-0.135,0.834H83.46c-0.1,0.744-0.031,1.337,0.207,1.776c0.237,0.439,0.642,0.66,1.215,0.66
		c0.397,0,0.769-0.065,1.117-0.198c0.348-0.132,0.65-0.307,0.907-0.521l0.372,0.868c-0.275,0.257-0.627,0.472-1.056,0.645
		C85.792,76.323,85.292,76.407,84.718,76.407z M85.564,69.856c-0.379,0-0.746,0.189-1.1,0.569c-0.354,0.379-0.608,0.848-0.761,1.407
		l0.02,0.041h3.012l0.027-0.176c0.085-0.546,0.034-0.989-0.156-1.33S86.07,69.856,85.564,69.856z"/>
	<path fill="#F5F5F5" d="M91.678,76.407c-0.921,0-1.618-0.342-2.089-1.024c-0.472-0.685-0.622-1.563-0.45-2.637l0.047-0.298
		c0.171-1.083,0.599-1.961,1.283-2.633c0.683-0.673,1.421-1.009,2.216-1.009c0.897,0,1.541,0.301,1.93,0.9
		c0.388,0.602,0.505,1.396,0.352,2.381l-0.135,0.834h-4.413c-0.1,0.744-0.031,1.337,0.207,1.776c0.237,0.439,0.642,0.66,1.215,0.66
		c0.397,0,0.769-0.065,1.117-0.198c0.349-0.132,0.649-0.307,0.907-0.521l0.371,0.868c-0.274,0.257-0.627,0.472-1.055,0.645
		C92.751,76.323,92.25,76.407,91.678,76.407z M92.523,69.856c-0.379,0-0.746,0.189-1.102,0.569
		c-0.354,0.379-0.607,0.848-0.761,1.407l0.021,0.041h3.012l0.027-0.176c0.086-0.546,0.033-0.989-0.156-1.33
		S93.027,69.856,92.523,69.856z"/>
	<path fill="#F5F5F5" d="M96.184,72.604c0.248-1.259,0.646-2.207,1.195-2.843c0.549-0.637,1.253-0.954,2.115-0.954
		c0.375,0,0.714,0.078,1.02,0.232c0.305,0.155,0.553,0.375,0.748,0.66l0.799-3.993h1.307l-2.112,10.56h-1.124l0.047-0.704
		c-0.271,0.28-0.568,0.491-0.896,0.634c-0.326,0.144-0.68,0.213-1.059,0.213c-0.785,0-1.377-0.353-1.777-1.057
		c-0.398-0.704-0.496-1.572-0.287-2.605L96.184,72.604z M97.471,72.746c-0.158,0.775-0.13,1.399,0.088,1.871
		c0.217,0.473,0.623,0.708,1.217,0.708c0.32,0,0.608-0.089,0.863-0.268c0.256-0.178,0.488-0.432,0.7-0.762l0.69-3.459
		c-0.117-0.289-0.295-0.52-0.531-0.69s-0.531-0.257-0.883-0.257c-0.543,0-0.989,0.245-1.344,0.733
		c-0.355,0.489-0.612,1.149-0.775,1.979L97.471,72.746z"/>
	<path fill="#F5F5F5" d="M107.508,74.32c0.051-0.302-0.011-0.544-0.183-0.729c-0.171-0.185-0.528-0.347-1.069-0.486
		c-0.799-0.193-1.384-0.458-1.756-0.792c-0.373-0.334-0.512-0.784-0.417-1.354c0.099-0.618,0.417-1.132,0.955-1.54
		c0.537-0.408,1.188-0.612,1.956-0.612s1.357,0.222,1.773,0.663c0.414,0.441,0.563,0.974,0.445,1.591l-0.021,0.041h-1.252
		c0.055-0.33-0.019-0.618-0.217-0.869c-0.199-0.252-0.498-0.377-0.895-0.377c-0.406,0-0.734,0.105-0.988,0.316
		c-0.252,0.21-0.4,0.46-0.447,0.75c-0.049,0.304,0.004,0.533,0.16,0.692c0.155,0.157,0.508,0.306,1.059,0.44
		c0.836,0.198,1.437,0.467,1.802,0.809c0.364,0.34,0.503,0.796,0.413,1.368c-0.107,0.671-0.438,1.201-0.988,1.592
		s-1.229,0.584-2.029,0.584c-0.84,0-1.48-0.238-1.922-0.717c-0.443-0.479-0.602-1.029-0.476-1.652l0.013-0.041h1.254
		c-0.061,0.473,0.043,0.815,0.305,1.034c0.262,0.218,0.591,0.326,0.988,0.326c0.408,0,0.756-0.098,1.037-0.29
		C107.292,74.876,107.458,74.626,107.508,74.32z"/>
	<path fill="#F5F5F5" d="M123.063,71.88h-8.405l0.338-1.05h8.399L123.063,71.88z"/>
	<path fill="#F5F5F5" d="M131.232,76.266c0-0.221,0.004-0.402,0.014-0.545c0.009-0.143,0.025-0.288,0.047-0.438
		c-0.302,0.319-0.648,0.588-1.039,0.803c-0.391,0.214-0.781,0.32-1.174,0.32c-0.668,0-1.161-0.2-1.479-0.6
		c-0.318-0.398-0.408-0.934-0.27-1.602c0.146-0.744,0.511-1.303,1.102-1.675c0.588-0.373,1.344-0.56,2.264-0.56h1.252l0.142-0.725
		c0.091-0.456,0.041-0.802-0.149-1.039c-0.188-0.236-0.504-0.354-0.946-0.354c-0.379,0-0.724,0.112-1.029,0.335
		c-0.307,0.225-0.489,0.484-0.548,0.782h-1.238l-0.014-0.041c0.09-0.563,0.428-1.06,1.016-1.484
		c0.586-0.428,1.285-0.641,2.098-0.641c0.728,0,1.302,0.215,1.724,0.646c0.422,0.432,0.556,1.035,0.403,1.812l-0.704,3.525
		c-0.06,0.274-0.099,0.53-0.122,0.766c-0.021,0.234-0.021,0.473,0,0.711L131.232,76.266L131.232,76.266z M129.5,75.291
		c0.366,0,0.738-0.105,1.117-0.317s0.672-0.462,0.88-0.751l0.271-1.347h-1.291c-0.447,0-0.85,0.138-1.205,0.412
		s-0.567,0.592-0.637,0.947c-0.072,0.348-0.039,0.609,0.102,0.789C128.875,75.201,129.13,75.291,129.5,75.291z"/>
	<path fill="#F5F5F5" d="M137.301,75.359c0.389,0,0.76-0.138,1.113-0.411s0.563-0.605,0.626-0.997h1.171l0.014,0.041
		c-0.09,0.659-0.44,1.228-1.056,1.703c-0.614,0.477-1.291,0.714-2.03,0.714c-0.957,0-1.654-0.353-2.092-1.057
		s-0.572-1.572-0.406-2.605l0.047-0.284c0.168-1.078,0.567-1.957,1.203-2.637c0.633-0.68,1.453-1.02,2.459-1.02
		c0.776,0,1.385,0.253,1.824,0.762c0.439,0.508,0.592,1.129,0.457,1.864l-0.013,0.034h-1.185c0.076-0.47,0-0.854-0.23-1.157
		c-0.23-0.302-0.568-0.454-1.016-0.454c-0.613,0-1.104,0.256-1.469,0.765c-0.365,0.51-0.604,1.122-0.718,1.839l-0.048,0.284
		c-0.122,0.774-0.09,1.404,0.095,1.891C136.232,75.116,136.65,75.359,137.301,75.359z"/>
	<path fill="#F5F5F5" d="M143.868,69.828c0.302-0.33,0.638-0.582,1.005-0.758c0.368-0.177,0.757-0.265,1.167-0.265
		c0.687,0,1.196,0.239,1.53,0.718s0.406,1.195,0.217,2.151l-0.921,4.589h-1.306l0.92-4.604c0.125-0.642,0.102-1.098-0.074-1.367
		c-0.176-0.271-0.506-0.406-0.988-0.406c-0.302,0-0.609,0.089-0.92,0.268c-0.313,0.178-0.592,0.417-0.839,0.714l-1.077,5.396h-1.307
		l2.113-10.56h1.307L143.868,69.828z"/>
	<path fill="#F5F5F5" d="M150.116,76.266h-1.306l1.461-7.323h1.308L150.116,76.266z M151.958,67.068h-1.306l0.271-1.36h1.306
		L151.958,67.068z"/>
	<path fill="#F5F5F5" d="M154.979,76.407c-0.92,0-1.617-0.342-2.088-1.024c-0.472-0.685-0.621-1.563-0.449-2.637l0.047-0.298
		c0.172-1.083,0.6-1.961,1.283-2.633c0.685-0.673,1.422-1.009,2.217-1.009c0.898,0,1.541,0.301,1.93,0.9
		c0.389,0.601,0.505,1.396,0.354,2.381l-0.137,0.834h-4.412c-0.101,0.744-0.031,1.337,0.207,1.776
		c0.236,0.439,0.643,0.66,1.215,0.66c0.396,0,0.77-0.065,1.117-0.198c0.346-0.132,0.649-0.307,0.906-0.521l0.372,0.868
		c-0.274,0.257-0.627,0.472-1.058,0.645C156.055,76.323,155.553,76.407,154.979,76.407z M155.826,69.856
		c-0.379,0-0.746,0.189-1.1,0.569c-0.354,0.379-0.608,0.848-0.763,1.407l0.021,0.041h3.013l0.026-0.176
		c0.086-0.546,0.035-0.989-0.155-1.33S156.331,69.856,155.826,69.856z"/>
	<path fill="#F5F5F5" d="M161.539,74.106l0.02,0.434l0.041,0.008l0.17-0.44l2.354-5.164h1.333l-3.668,7.323h-0.98l-1.36-7.323h1.34
		L161.539,74.106z"/>
	<path fill="#F5F5F5" d="M168.076,76.407c-0.92,0-1.617-0.342-2.088-1.024c-0.473-0.685-0.622-1.563-0.45-2.637l0.047-0.298
		c0.171-1.083,0.599-1.961,1.283-2.633c0.685-0.673,1.422-1.009,2.217-1.009c0.897,0,1.541,0.301,1.929,0.9
		c0.389,0.602,0.506,1.396,0.354,2.381l-0.137,0.834h-4.412c-0.1,0.744-0.03,1.337,0.207,1.776c0.236,0.439,0.643,0.66,1.216,0.66
		c0.396,0,0.769-0.065,1.116-0.198c0.349-0.132,0.649-0.307,0.906-0.521l0.373,0.868c-0.275,0.257-0.628,0.472-1.057,0.645
		C169.15,76.323,168.648,76.407,168.076,76.407z M168.922,69.856c-0.379,0-0.746,0.189-1.1,0.569
		c-0.354,0.379-0.608,0.848-0.762,1.407l0.021,0.041h3.012l0.027-0.176c0.085-0.546,0.034-0.989-0.156-1.33
		S169.428,69.856,168.922,69.856z"/>
	<path fill="#F5F5F5" d="M172.584,72.604c0.248-1.259,0.646-2.207,1.195-2.843c0.549-0.637,1.253-0.954,2.115-0.954
		c0.375,0,0.713,0.078,1.019,0.232c0.305,0.155,0.554,0.375,0.748,0.66l0.799-3.993h1.306l-2.111,10.56h-1.125l0.049-0.704
		c-0.271,0.28-0.57,0.491-0.896,0.634c-0.326,0.144-0.681,0.213-1.06,0.213c-0.786,0-1.377-0.353-1.776-1.057
		c-0.398-0.704-0.496-1.572-0.287-2.605L172.584,72.604z M173.87,72.746c-0.158,0.775-0.129,1.399,0.088,1.871
		c0.217,0.473,0.623,0.708,1.218,0.708c0.32,0,0.608-0.089,0.863-0.268c0.255-0.178,0.488-0.432,0.699-0.762l0.691-3.459
		c-0.117-0.289-0.296-0.52-0.531-0.69c-0.237-0.171-0.531-0.257-0.883-0.257c-0.543,0-0.99,0.245-1.346,0.733
		c-0.355,0.489-0.611,1.149-0.773,1.979L173.87,72.746z"/>
</g>
</svg>
