<?xml version="1.0" encoding="utf-8"?>
<!-- Generator: Adobe Illustrator 15.1.0, SVG Export Plug-In . SVG Version: 6.00 Build 0)  -->
<!DOCTYPE svg PUBLIC "-//W3C//DTD SVG 1.1//EN" "http://www.w3.org/Graphics/SVG/1.1/DTD/svg11.dtd">
<svg version="1.1" id="Layer_1" xmlns="http://www.w3.org/2000/svg" xmlns:xlink="http://www.w3.org/1999/xlink" x="0px" y="0px"
	 width="16px" height="16px" viewBox="-0.5 0.741 16 16" enable-background="new -0.5 0.741 16 16" xml:space="preserve">
<g>
	<g>
		<defs>
			<path id="SVGID_1_" d="M0.31,1.552h14.379v14.38H0.31V1.552z M-0.5,16.741h16v-16h-16V16.741z"/>
		</defs>
		<clipPath id="SVGID_2_">
			<use xlink:href="#SVGID_1_"  overflow="visible"/>
		</clipPath>
		
			<linearGradient id="SVGID_3_" gradientUnits="userSpaceOnUse" x1="-308.9902" y1="132.2083" x2="-308.9658" y2="132.2083" gradientTransform="matrix(646.9261 0 0 646.9261 199893.1875 -85519.9297)">
			<stop  offset="0" style="stop-color:#49C8F5"/>
			<stop  offset="1" style="stop-color:#EC008C"/>
		</linearGradient>
		<rect x="-0.5" y="0.741" clip-path="url(#SVGID_2_)" fill="url(#SVGID_3_)" width="16" height="16"/>
	</g>
</g>
<path d="M3.5,13.741v-10h6.575v1.071H4.584v2.785h2.752c2.155,0,3.548,1.204,3.548,3.065c-0.016,1.886-1.375,3.064-3.546,3.078
	H7.338H3.5z M6.289,12.676c0.354,0,0.703-0.001,1.042-0.006c1.528,0,2.444-0.746,2.456-1.998c0-1.244-0.917-1.989-2.451-1.989H4.584
	v3.989L6.289,12.676z"/>
</svg>
