<?xml version="1.0" encoding="utf-8"?>
<!-- Generator: Adobe Illustrator 15.1.0, SVG Export Plug-In . SVG Version: 6.00 Build 0)  -->
<!DOCTYPE svg PUBLIC "-//W3C//DTD SVG 1.1//EN" "http://www.w3.org/Graphics/SVG/1.1/DTD/svg11.dtd">
<svg version="1.1" id="Layer_1" xmlns="http://www.w3.org/2000/svg" xmlns:xlink="http://www.w3.org/1999/xlink" x="0px" y="0px"
	 width="300px" height="59px" viewBox="0 0 300 59" enable-background="new 0 0 300 59" xml:space="preserve">
<g>
	<path fill="#DA251D" d="M291.897,44.993v-1.779c1.58-0.263,2.898-0.988,4.018-2.238c1.449-1.582,2.108-3.625,2.108-6.127V32.74
		l-6.06,0.923h-0.066v-1.779l6.126-0.923c0-4.743-1.778-7.114-5.336-7.114c-0.263,0-0.527,0-0.79,0.065v-1.844
		c0.329,0,0.658-0.066,0.988-0.066c2.305,0,4.018,0.725,5.27,2.174c1.252,1.383,1.845,3.426,1.845,6.126v14.295h-1.977v-4.413
		h-0.065c-0.725,1.515-1.713,2.701-3.096,3.623C293.939,44.4,292.951,44.796,291.897,44.993z M205.928,22.068
		c0.331,0,0.66-0.066,0.988-0.066c2.307,0,4.085,0.725,5.271,2.174c1.251,1.383,1.91,3.426,1.91,6.126v14.295h-1.977v-4.413h-0.132
		c-0.659,1.515-1.713,2.701-3.03,3.623c-0.988,0.593-1.977,0.988-3.031,1.186v-1.779c1.582-0.263,2.899-0.988,4.02-2.238
		c1.449-1.582,2.174-3.625,2.174-6.127V32.74l-6.127,0.923h-0.066v-1.779l6.193-0.923c0-4.743-1.845-7.114-5.401-7.114
		c-0.265,0-0.527,0-0.792,0.065V22.068L205.928,22.068z M291.897,22.068v1.844c-1.845,0.132-3.689,0.856-5.469,2.174l-0.724-1.779
		c0.79-0.593,1.91-1.12,3.228-1.581C289.987,22.398,290.909,22.2,291.897,22.068L291.897,22.068z M291.897,31.884v1.779
		c-2.306,0.328-3.887,0.855-4.809,1.515c-0.923,0.79-1.384,1.977-1.384,3.623c0,1.317,0.396,2.372,1.317,3.228
		c0.855,0.857,2.042,1.318,3.623,1.318c0.396,0,0.856-0.066,1.252-0.133v1.779c-0.527,0.065-0.988,0.132-1.516,0.132
		c-2.043,0-3.755-0.593-4.941-1.778c-1.25-1.187-1.844-2.636-1.844-4.48c0-3.82,2.569-6.06,7.642-6.917L291.897,31.884
		L291.897,31.884z M227.998,24.374v20.224h-1.977V24.374h-6.654v-1.779h15.218v1.779H227.998L227.998,24.374z M254.678,44.598
		V26.218c-0.066,0.132-0.198,0.264-0.33,0.461c-0.065,0.132-0.197,0.263-0.264,0.329l-13.241,17.589h-1.449V22.595h2.042v18.181
		c0.066-0.131,0.133-0.263,0.264-0.461c0.066-0.131,0.132-0.263,0.264-0.395l13.109-17.326h1.646v22.002H254.678L254.678,44.598z
		 M276.218,44.598l-10.407-10.804h-0.066v10.804h-1.977V22.595h1.977v10.541h0.066l10.276-10.541h2.568l-10.737,10.738
		l11.067,11.265H276.218z M199.736,24.308c0.856-0.593,1.91-1.12,3.228-1.581c1.054-0.329,2.042-0.527,2.964-0.659v1.844
		c-1.844,0.132-3.622,0.856-5.4,2.174L199.736,24.308L199.736,24.308z M205.928,44.993c-0.461,0.065-0.987,0.132-1.449,0.132
		c-2.106,0-3.754-0.593-5.005-1.778c-1.187-1.187-1.846-2.636-1.846-4.48c0-3.82,2.569-6.06,7.643-6.917l0.657-0.065v1.779
		c-2.305,0.328-3.886,0.855-4.809,1.515c-0.922,0.79-1.383,1.977-1.383,3.623c0,1.317,0.461,2.372,1.317,3.228
		c0.857,0.857,2.042,1.318,3.623,1.318c0.396,0,0.856-0.066,1.251-0.133V44.993L205.928,44.993z M155.73,45.125v-1.778
		c2.24-0.066,4.085-0.988,5.469-2.965c1.383-1.91,2.107-4.414,2.107-7.51c0-2.767-0.658-4.941-1.91-6.588
		c-1.317-1.647-3.03-2.437-5.204-2.437c-0.132,0-0.329,0-0.462,0v-1.779c0.198,0,0.462-0.066,0.725-0.066
		c2.834,0,5.007,0.988,6.588,2.898c1.582,1.977,2.306,4.611,2.306,7.906c0,3.622-0.856,6.653-2.7,8.893
		C160.936,43.939,158.563,45.059,155.73,45.125L155.73,45.125z M189.921,44.598V25.56l-0.592,1.581
		c-0.199,0.396-0.331,0.856-0.527,1.317c-0.198,0.461-0.33,0.856-0.461,1.186l-5.996,14.954h-1.581l-6.455-14.954
		c-0.132-0.33-0.33-0.659-0.462-1.12c-0.197-0.461-0.329-0.922-0.526-1.383c-0.198-0.461-0.396-0.988-0.593-1.581v19.038h-1.845
		V22.595h2.372l6.719,15.217c0.132,0.33,0.329,0.726,0.461,1.187c0.197,0.461,0.396,0.922,0.527,1.383
		c0.197,0.461,0.395,0.988,0.593,1.516c0.197-0.527,0.396-0.988,0.593-1.516c0.132-0.395,0.33-0.856,0.527-1.317
		c0.131-0.461,0.33-0.856,0.461-1.187l6.258-15.283h2.438v22.002H189.921z M155.73,22.068v1.779
		c-2.371,0.132-4.215,0.988-5.533,2.569c-1.317,1.713-2.042,3.755-2.042,6.127v2.7c0,2.174,0.725,4.084,2.042,5.666
		c1.383,1.581,3.228,2.438,5.467,2.438h0.065v1.778h-0.197c-3.294,0-5.731-1.516-7.312-4.479h-0.065v14.097h-1.977V22.595h1.977
		v4.545h0.131c0.791-1.647,1.844-2.898,3.294-3.755C152.832,22.595,154.216,22.2,155.73,22.068L155.73,22.068z M130.04,45.125
		v-1.778h0.066c2.635,0,4.677-0.922,6.126-2.636c1.449-1.712,2.174-4.084,2.174-7.114c0-3.162-0.725-5.534-2.174-7.247
		c-1.449-1.646-3.426-2.503-6.061-2.503h-0.132v-1.845c0.066,0,0.132,0,0.198,0c3.162,0,5.665,1.054,7.509,3.096
		c1.779,2.042,2.701,4.94,2.701,8.564c0,3.359-0.922,6.125-2.767,8.3C135.836,44.071,133.268,45.125,130.04,45.125L130.04,45.125z
		 M130.04,22.002v1.845c-2.569,0.065-4.545,0.922-6.061,2.635c-1.581,1.779-2.372,4.216-2.372,7.312
		c0,2.833,0.791,5.139,2.306,6.917c1.515,1.714,3.491,2.569,6.126,2.636v1.778c-3.228,0-5.797-1.054-7.642-3.162
		c-1.911-2.108-2.833-4.875-2.833-8.234c0-3.623,0.988-6.522,2.964-8.564C124.44,23.123,126.943,22.068,130.04,22.002L130.04,22.002
		z M59.486,45.125V43.28c0.264,0,0.461,0.066,0.725,0.066c2.108,0,4.216-0.725,6.258-2.108l0.725,1.647
		c-2.239,1.515-4.677,2.239-7.378,2.239C59.684,45.125,59.618,45.125,59.486,45.125L59.486,45.125z M59.486,33.729v-1.845h7.114l0,0
		c-0.065-2.569-0.659-4.545-1.844-5.929c-1.12-1.383-2.701-2.108-4.677-2.108c-0.197,0-0.396,0-0.593,0v-1.779
		c0.264,0,0.461-0.066,0.658-0.066c2.767,0,4.875,0.988,6.324,2.898c1.45,1.977,2.24,4.545,2.24,7.906v0.922H59.486L59.486,33.729z
		 M112.78,42.292c-1.187,0.659-2.636,1.055-4.282,1.055c-2.635,0-4.677-0.922-6.192-2.636c-1.515-1.778-2.24-4.084-2.24-6.917
		c0-3.096,0.725-5.533,2.306-7.312c1.515-1.778,3.623-2.635,6.192-2.635c1.449,0,2.701,0.263,3.754,0.725l0.725-1.713
		c-1.251-0.527-2.767-0.856-4.348-0.856c-3.228,0-5.797,1.054-7.773,3.162c-1.977,2.042-2.965,4.941-2.965,8.564
		c0,3.359,0.988,6.126,2.833,8.234c1.91,2.108,4.414,3.162,7.642,3.162c1.911,0,3.624-0.396,5.073-1.12L112.78,42.292L112.78,42.292
		z M89.79,44.598V34.124H76.746v10.474H74.77V22.595h1.976v9.684H89.79v-9.684h1.976v22.002H89.79L89.79,44.598z M59.486,22.068
		v1.779c-1.779,0.132-3.294,0.79-4.546,2.108c-1.383,1.383-2.174,3.359-2.503,5.929h7.049v1.845h-7.181
		c0,2.964,0.725,5.336,2.108,7.048c1.317,1.516,2.964,2.372,5.072,2.504v1.845c-2.701-0.066-4.875-1.054-6.588-3.03
		c-1.778-2.042-2.635-4.94-2.635-8.631c0-3.228,0.922-5.928,2.767-8.102C54.677,23.32,56.851,22.2,59.486,22.068L59.486,22.068z
		 M16.864,51.317v-0.461c0.066,0.131,0.132,0.197,0.198,0.264l0,0L16.864,51.317L16.864,51.317z M16.864,34.979V24.506
		c0.264-1.647,0.659-3.228,1.12-4.743c0.922-2.701,2.24-5.073,3.953-7.18l1.581,1.515c-1.449,1.91-2.635,4.019-3.426,6.39
		c-0.922,2.767-1.383,5.863-1.383,9.421c0,4.677,0.922,8.695,2.833,12.12c0.329,0.659,0.725,1.318,1.186,1.911
		c0.198,0.263,0.396,0.593,0.659,0.856l0,0l0,0l-1.581,1.581l0,0c-0.33-0.396-0.593-0.791-0.856-1.187
		c-0.527-0.658-0.988-1.383-1.384-2.107C18.248,40.646,17.326,37.944,16.864,34.979L16.864,34.979z M16.864,8.366V7.51l0.395,0.395
		C17.128,8.037,16.996,8.234,16.864,8.366L16.864,8.366z M44.203,42.292c-1.647,0.725-3.492,1.12-5.534,1.12
		c-3.689,0-6.588-1.252-8.827-3.82c-2.174-2.504-3.294-5.863-3.294-10.08c0-4.216,1.186-7.642,3.491-10.211
		c2.306-2.635,5.27-3.952,8.893-3.952c1.977,0,3.755,0.396,5.271,1.054l0.79-1.91c-1.712-0.725-3.623-1.054-5.731-1.054
		c-4.611,0-8.234,1.515-10.87,4.48c-2.701,2.964-4.018,6.917-4.018,11.792c0,4.678,1.317,8.366,3.887,11.266
		c2.569,2.898,6.061,4.348,10.474,4.348c2.306,0,4.348-0.396,6.193-1.187L44.203,42.292z M16.864,7.51v0.856
		c-1.91,2.504-3.426,5.336-4.479,8.433c-1.317,3.952-1.977,8.366-1.977,13.241c0,6.588,1.384,12.319,4.019,17.128
		c0.527,0.922,1.054,1.845,1.647,2.701l0,0c0.264,0.33,0.527,0.658,0.791,0.988v0.461L15.481,52.7
		c-0.396-0.526-0.791-1.053-1.186-1.58l0,0c-0.659-0.922-1.251-1.91-1.844-2.898c-1.186-2.24-2.108-4.612-2.833-7.115V18.511
		c0.197-0.791,0.461-1.581,0.725-2.372c1.251-3.688,3.03-6.982,5.336-9.815L16.864,7.51L16.864,7.51z M16.864,24.506
		c-0.264,1.712-0.395,3.491-0.395,5.402c0,1.777,0.131,3.491,0.395,5.071V24.506L16.864,24.506z M9.618,58.563v-2.635
		c0.395,0.527,0.725,0.988,1.12,1.516L9.618,58.563L9.618,58.563z M9.618,3.491V0.197l1.383,1.449
		C10.54,2.24,10.079,2.833,9.618,3.491z M9.618,0.197v3.294C7.576,6.39,5.929,9.618,4.743,13.175
		C3.03,18.248,2.174,23.913,2.174,30.236c0,8.499,1.713,15.876,5.139,22.069c0.658,1.186,1.383,2.371,2.174,3.491l0.132,0.132v2.635
		l-0.461,0.461l0,0c-0.527-0.658-0.988-1.317-1.449-1.977c-0.856-1.186-1.647-2.437-2.306-3.688C1.778,46.838,0,39.064,0,30.236
		c0-6.521,0.856-12.45,2.635-17.72C4.216,7.839,6.456,3.689,9.486,0L9.618,0.197L9.618,0.197z M9.618,18.511
		c-0.922,3.491-1.384,7.378-1.384,11.528c0,4.019,0.461,7.642,1.384,11.067V18.511z"/>
</g>
</svg>
