<svg xmlns="http://www.w3.org/2000/svg" width="202" height="41" viewBox="0 0 202 41">
    <g fill="#15A748" fill-rule="evenodd">
        <path d="M78.346 28.188l-3.677-5.86c-.34.045-1.038.067-2.094.067v5.793h-4.4v-15.19h4.4v5.944c1.294 0 2.12-.076 2.452-.235.357-.16.63-.452.825-.88.187-.426.417-1.162.69-2.203.289-1.04.919-1.821 1.889-2.343.97-.52 2.366-.607 4.196-.26v2.668c-1.14-.072-1.821.29-2.043 1.085-.578 1.897-1.268 3.24-2.068 4.036l4.809 6.791v.587h-4.98M93.145 22.139h-3.164v2.55h3.18c.727 0 1.135-.397 1.223-1.188a1.256 1.256 0 0 0-.304-.957c-.24-.27-.543-.405-.935-.405zm-.615-5.83h-2.549v2.573h2.55c.375 0 .67-.116.878-.35a1.32 1.32 0 0 0 .344-.86 1.4 1.4 0 0 0-.304-.957c-.224-.27-.527-.406-.919-.406zm5.29 1.232c0 .484-.12.972-.368 1.461-.24.493-.551.89-.95 1.2.639.31 1.118.755 1.462 1.341.335.587.511 1.24.511 1.958 0 1.366-.44 2.487-1.326 3.367-.88.881-2.11 1.32-3.692 1.32H85.85V12.813h6.976c1.478 0 2.677.432 3.603 1.296.927.866 1.39 2.01 1.39 3.432zM109.855 19.293l-1.764 3.675h3.545l-1.781-3.675zm3.2 7.002h-6.408l-.977 1.892H101v-.544l7.852-14.83h2.05l7.773 14.83v.544h-4.626l-.995-1.892zM127.787 20.72h2.904c.51 0 .926-.224 1.237-.67.32-.447.479-.971.479-1.57 0-.586-.152-1.094-.455-1.527-.303-.432-.718-.648-1.26-.648h-2.905v4.414zm.063 7.468h-4.125V12.813h6.966c1.787 0 3.184.572 4.197 1.724 1.006 1.148 1.492 2.5 1.46 4.053 0 1.524-.494 2.84-1.492 3.954-1.005 1.112-2.393 1.668-4.165 1.668h-2.84v3.976zM143.058 16.326h-4.183v-3.514H151.5v3.514h-4.148v11.861h-4.294v-11.86M162.875 19.293l-1.764 3.675h3.547l-1.783-3.675zm3.202 7.002h-6.403l-.977 1.892h-4.672v-.544l7.847-14.83h2.059l7.769 14.83v.544h-4.62l-1.003-1.892zM179.026 16.369l-.63 6.995c-.14 1.484-.43 2.581-.878 3.294-.448.71-1.144 1.171-2.08 1.384-.953.211-2.196.192-3.738-.054l.066-2.856c.904.072 1.5-.015 1.79-.264.29-.245.481-.79.58-1.634l1.144-10.422h11.57v15.263h-4.26V16.369h-3.564"/>
        <path d="M51.459 36.04h145.57V4.958H51.46v31.08zM41.295 22.83c-1.086 1.238-2.567 1.903-4.435 1.996v-5.092h2.115l-4.09-6.086-4.099 6.086h2.115v9.9h-4.69V11.101h8.196c2.099 0 3.744.693 4.93 2.079 1.185 1.386 1.76 3.012 1.728 4.884 0 1.834-.585 3.422-1.77 4.765zm-24.77 2.252c.535.368 1.177.556 1.934.556.732 0 1.358-.188 1.884-.556.535-.371.798-.92.798-1.641V11.128h4.806v12.417c0 1.977-.74 3.535-2.205 4.662-1.465 1.13-3.234 1.69-5.308 1.69-2.082 0-3.86-.56-5.341-1.69-1.473-1.127-2.214-2.685-2.214-4.662V11.128h4.856V23.44c0 .722.263 1.27.79 1.64zM0 41h202V0H0v41z"/>
    </g>
</svg>
