<?xml version="1.0" encoding="utf-8"?>
<!-- Generator: Adobe Illustrator 15.1.0, SVG Export Plug-In . SVG Version: 6.00 Build 0)  -->
<!DOCTYPE svg PUBLIC "-//W3C//DTD SVG 1.1//EN" "http://www.w3.org/Graphics/SVG/1.1/DTD/svg11.dtd">
<svg version="1.1" id="Layer_1" xmlns="http://www.w3.org/2000/svg" xmlns:xlink="http://www.w3.org/1999/xlink" x="0px" y="0px"
	 width="243px" height="78px" viewBox="0 0 243 78" enable-background="new 0 0 243 78" xml:space="preserve">
<g>
	<path fill="#FFFFFF" d="M16.799,60.02H8.366C7.475,60.02,7,59.602,7,58.829V29.73c0-5.76,2.97-11.284,11.402-11.284h18.053
		c0.95,0,1.128,0.061,1.128,1.426v6.711c0,1.009-0.238,1.306-1.128,1.306H21.788c-3.147,0-3.563,1.841-3.563,3.385v3.681h15.619
		c0.95,0,1.128,0.12,1.128,1.485v6.175c0,0.893-0.356,1.365-1.128,1.365h-15.62v14.848C18.224,59.781,18.165,60.02,16.799,60.02z"/>
	<path fill="#FFFFFF" d="M42.694,48.732l-0.06-29.099c0-0.832,0.475-1.248,1.366-1.248h8.492c1.366,0,1.426,0.297,1.426,1.248
		v27.614c0,3.027,1.484,3.27,3.563,3.27h14.074c0.95,0,1.247,0.06,1.247,1.422v6.713c0,0.89-0.416,1.367-1.247,1.367h-17.34
		C44.773,60.02,42.694,54.02,42.694,48.732z"/>
	<path fill="#FFFFFF" d="M95.253,60.67c-12.886,0-18.587-8.018-18.587-21.378c0-13.065,6.474-21.498,18.766-21.498
		c12.828,0,18.826,8.374,18.826,21.379C114.257,52.477,108.794,60.67,95.253,60.67z M95.372,27.771
		c-4.631,0-6.829,5.107-6.829,11.045c0,7.305,1.722,11.819,7.127,11.819c5.226,0,6.77-5.346,6.77-11.403
		C102.261,32.997,100.955,27.771,95.372,27.771z"/>
	<path fill="#FFFFFF" d="M138.074,47.368l2.912-11.64l4.512-16.331c0.238-0.89,0.893-1.01,1.842-1.01h9.205
		c0.949,0,0.949,0.713,0.771,1.129l-12.232,36.818c-1.248,3.621-2.613,3.684-5.346,3.684h-4.275c-2.732,0-3.92-0.537-5.047-3.742
		L118.24,19.516c-0.178-0.654,0-1.129,0.772-1.129h8.968c1.365,0,1.604,0.416,1.898,1.307l4.633,15.916l3.09,11.758H138.074z"/>
	<path fill="#FFFFFF" d="M192.359,60.02h-18.354c-9.439,0-11.521-6-11.521-11.285V29.73c0-5.76,2.972-11.284,11.402-11.284h17.521
		c0.95,0,1.129,0.061,1.129,1.426v6.711c0,1.009-0.236,1.306-1.129,1.306h-14.134c-3.147,0-3.563,1.841-3.563,3.385v2.494h15.914
		c0.949,0,1.129,0.119,1.129,1.485v6.177c0,0.889-0.355,1.365-1.129,1.365h-15.914v4.453c0,3.029,1.482,3.268,3.563,3.268h15.084
		c0.949,0,1.129,0.062,1.129,1.424v6.713C193.488,59.541,193.131,60.02,192.359,60.02z"/>
	<path fill="#FFFFFF" d="M233.813,60.02h-8.193c-1.246,0-2.021,0.117-2.436-1.483l-2.377-9.921c-0.889-3.385-1.898-4.868-4.93-4.868
		h-4.631V58.83c0,0.951-0.061,1.189-1.426,1.189h-8.432c-0.893,0-1.367-0.418-1.367-1.189V22.367c0-2.435,0.596-3.92,3.859-3.92
		h15.145c9.322,0,14.135,4.573,14.135,12.174c0,4.276-2.199,7.84-5.584,9.503v0.119c2.793,1.245,3.801,3.856,4.514,6.948
		l2.791,11.281C235.059,59.007,235.238,60.02,233.813,60.02z M218.016,28.127h-6.77v6.829h6.77c1.902,0,3.563-1.128,3.563-3.444
		C221.578,29.849,220.627,28.127,218.016,28.127z"/>
</g>
</svg>
