<?xml version="1.0" encoding="utf-8"?>
<!-- Generator: Adobe Illustrator 15.1.0, SVG Export Plug-In . SVG Version: 6.00 Build 0)  -->
<!DOCTYPE svg PUBLIC "-//W3C//DTD SVG 1.1//EN" "http://www.w3.org/Graphics/SVG/1.1/DTD/svg11.dtd">
<svg version="1.1" id="Layer_1" xmlns="http://www.w3.org/2000/svg" xmlns:xlink="http://www.w3.org/1999/xlink" x="0px" y="0px"
	 width="449.612px" height="269px" viewBox="0 0 449.612 269" enable-background="new 0 0 449.612 269" xml:space="preserve">
<g>
	<polygon fill="#EC1A3C" points="24.453,26.769 0,177.51 293.074,6 	"/>
	<g>
		<g>
			<path fill="#FFFFFF" d="M149.431,146.195c-1.034,0-1.938,0-2.893,0c0-7.526,0-15.033,0-22.598c9.875,0,19.753,0,29.688,0
				c0,0.798,0,1.601,0,2.469c-8.896,0-17.803,0-26.765,0c0,2.839,0,5.617,0,8.462c8.25,0,16.48,0,24.763,0c0,0.891,0,1.709,0,2.584
				c-8.249,0-16.482,0-24.793,0C149.431,140.157,149.431,143.142,149.431,146.195z"/>
			<path fill="#FFFFFF" d="M216.861,123.602c0,0.856,0,1.642,0,2.487c-4.904,0-9.784,0-14.747,0c0,6.726,0,13.394,0,20.099
				c-1.002,0-1.921,0-2.909,0c0-6.658,0-13.31,0-20.047c-4.963,0-9.86,0-14.8,0c0-0.889,0-1.689,0-2.539
				C195.222,123.602,206.013,123.602,216.861,123.602z"/>
			<path fill="#FFFFFF" d="M178.939,123.598c0.983,0,1.885,0,2.837,0c0,7.531,0,15.04,0,22.598c-0.923,0-1.86,0-2.837,0
				C178.939,138.673,178.939,131.169,178.939,123.598z"/>
			<path fill="#FFFFFF" d="M287.466,143.607c0,0.916,0,1.723,0,2.577c-10.502,0-20.992,0-31.529,0c0-7.511,0-15.015,0-22.575
				c10.496,0,20.979,0,31.514,0c0,0.816,0,1.617,0,2.485c-9.52,0-19.031,0-28.591,0c0,2.521,0,4.972,0,7.488
				c8.851,0,17.689,0,26.582,0c0,0.879,0,1.698,0,2.575c-8.853,0-17.691,0-26.58,0c0,2.485,0,4.916,0,7.45
				C268.377,143.607,277.903,143.607,287.466,143.607z"/>
			<path fill="#FFFFFF" d="M220.874,123.53c1.185,0,2.343-0.009,3.502,0.014c0.185,0.004,0.393,0.14,0.548,0.266
				c4.381,3.572,8.755,7.148,13.132,10.722c3.384,2.764,6.771,5.526,10.286,8.395c0-6.5,0-12.871,0-19.288c1.028,0,1.946,0,2.902,0
				c0,7.536,0,15.044,0,22.625c-1.134,0-2.244,0.009-3.355-0.014c-0.158-0.002-0.328-0.145-0.465-0.257
				c-7.624-6.217-15.243-12.438-22.865-18.657c-0.231-0.187-0.47-0.363-0.799-0.613c0,6.55,0,13.003,0,19.5
				c-0.991,0-1.912,0-2.887,0C220.874,138.7,220.874,131.169,220.874,123.53z"/>
			<path fill="#FFFFFF" d="M289.73,139.426c1.037,0,2.059,0,3.076,0c0.287,0.586,0.543,1.18,0.854,1.746
				c0.805,1.459,2.104,2.187,3.714,2.386c0.782,0.094,1.578,0.119,2.368,0.122c4.821,0.009,9.641,0.029,14.46-0.014
				c1.152-0.009,2.329-0.122,3.448-0.392c1.84-0.442,2.559-1.606,2.505-3.708c-0.041-1.623-0.963-2.75-2.667-3.098
				c-0.929-0.19-1.89-0.287-2.836-0.291c-5.331-0.027-10.663,0.011-15.996-0.034c-1.222-0.009-2.467-0.142-3.66-0.405
				c-3.272-0.72-4.724-2.738-4.659-6.111c0.075-3.91,2.334-5.457,5.662-5.883c1.058-0.135,2.133-0.18,3.2-0.183
				c5.215-0.004,10.433-0.004,15.646,0.041c1.475,0.011,2.904,0.356,4.208,1.082c2.178,1.208,3.062,3.252,3.558,5.631
				c-1.003,0-1.952,0.011-2.904-0.016c-0.135-0.002-0.291-0.171-0.39-0.302c-0.097-0.124-0.128-0.295-0.189-0.446
				c-0.92-2.289-2.667-3.416-5.08-3.434c-5.308-0.038-10.618-0.038-15.925,0.016c-0.954,0.009-1.944,0.244-2.846,0.568
				c-1.337,0.482-1.982,1.732-1.918,3.317c0.067,1.607,0.733,2.627,2.158,3.064c0.792,0.239,1.635,0.408,2.456,0.415
				c5.38,0.041,10.76-0.014,16.135,0.059c1.637,0.022,3.308,0.181,4.896,0.557c2.608,0.62,3.923,2.239,4.171,4.92
				c0.088,0.954-0.002,1.959-0.209,2.897c-0.559,2.543-2.476,3.574-4.812,3.987c-1.096,0.189-2.219,0.286-3.328,0.292
				c-5.402,0.03-10.805,0.041-16.208-0.006c-1.218-0.011-2.465-0.165-3.65-0.446c-2.668-0.638-4.226-2.458-4.981-5.031
				c-0.105-0.356-0.189-0.717-0.277-1.078C289.694,139.607,289.714,139.557,289.73,139.426z"/>
			<path fill="#FFFFFF" d="M357.679,130.317c-0.999,0-1.91,0.038-2.809-0.027c-0.219-0.019-0.499-0.347-0.602-0.596
				c-0.701-1.675-1.762-2.951-3.617-3.359c-0.586-0.126-1.195-0.221-1.79-0.224c-5.123-0.015-10.246-0.04-15.369,0.016
				c-1.046,0.014-2.13,0.234-3.125,0.573c-1.353,0.46-1.995,1.705-1.939,3.296c0.056,1.606,0.726,2.643,2.137,3.078
				c0.79,0.244,1.635,0.415,2.456,0.421c5.377,0.041,10.758,0.018,16.135,0.041c1.766,0.006,3.526,0.104,5.233,0.64
				c2.446,0.767,3.687,2.489,3.865,4.974c0.063,0.911-0.009,1.867-0.21,2.76c-0.575,2.568-2.505,3.608-4.873,4.009
				c-1.096,0.187-2.219,0.284-3.328,0.288c-5.38,0.03-10.758,0.041-16.136-0.008c-1.245-0.009-2.512-0.167-3.721-0.46
				c-2.665-0.645-4.205-2.484-4.945-5.062c-0.094-0.336-0.182-0.67-0.264-1.008c-0.016-0.063,0.011-0.135,0.023-0.239
				c1.021,0,2.04,0,3.075,0c0.275,0.568,0.534,1.159,0.843,1.723c0.801,1.461,2.097,2.196,3.705,2.404
				c0.737,0.094,1.486,0.122,2.228,0.122c4.891,0.009,9.779,0.026,14.67-0.014c1.127-0.009,2.282-0.122,3.377-0.386
				c1.874-0.453,2.591-1.621,2.525-3.763c-0.052-1.604-0.995-2.717-2.717-3.058c-0.907-0.176-1.842-0.277-2.765-0.282
				c-5.333-0.025-10.665,0.011-15.998-0.034c-1.222-0.009-2.467-0.135-3.66-0.401c-3.292-0.729-4.74-2.722-4.679-6.093
				c0.07-3.939,2.325-5.466,5.642-5.903c1.058-0.14,2.133-0.182,3.2-0.185c5.24-0.004,10.478-0.014,15.716,0.047
				c1.763,0.02,3.463,0.462,4.902,1.554C356.538,126.425,357.257,128.243,357.679,130.317z"/>
		</g>
		<path fill="#FFFFFF" d="M395.722,193.935c0.361-0.059,0.787-0.35,0.997-0.656c1.027-1.5,1.937-3.073,2.977-4.562
			c0.252-0.361,0.83-0.694,1.26-0.696c9.563-0.039,19.125-0.043,28.688,0.002c0.458,0.004,1.06,0.397,1.34,0.789
			c1.032,1.443,1.917,2.99,2.951,4.431c0.251,0.35,0.775,0.634,1.222,0.693H450c-0.169-0.312-0.269-0.523-0.388-0.708
			c-8.34-12.942-16.677-25.89-25.054-38.807c-0.245-0.379-0.905-0.688-1.378-0.693c-5.215-0.047-10.433-0.013-15.647-0.047
			c-0.763-0.007-1.184,0.261-1.583,0.881c-8.258,12.853-16.535,25.687-24.803,38.53c-0.151,0.234-0.261,0.514-0.419,0.844H395.722z
			 M415.306,164.329c2.848,4.424,5.623,8.735,8.489,13.182c-5.689,0-11.231,0-16.973,0
			C409.668,173.088,412.428,168.798,415.306,164.329z"/>
		<path fill="#FFFFFF" d="M378.396,193.935c0-13.43,0-26.745,0-40.073c-4.625,0-9.179,0-13.711,0c0,13.423,0,26.733,0,40.073
			H378.396z"/>
		<path fill="#FFFFFF" d="M309.378,193.935c0-8.53,0-16.988,0-25.719c0.645,0.473,1.076,0.775,1.493,1.096
			c10.588,8.054,21.173,16.112,31.777,24.144c0.312,0.237,0.717,0.388,1.125,0.479h14.503c0-13.426,0-26.756,0-40.077
			c-4.604,0-9.125,0-13.786,0c0,8.142,0,16.18,0,24.417c-0.454-0.309-0.724-0.476-0.977-0.669
			c-10.187-7.766-20.365-15.54-30.575-23.274c-0.539-0.408-1.337-0.665-2.018-0.667c-15.306-0.027,0,0-15.306-0.027
			c0,13.556,0,26.929,0,40.298H309.378z"/>
		<path fill="#FFFFFF" d="M238.133,193.935c0.363-0.059,0.787-0.35,0.999-0.656c1.026-1.5,1.937-3.073,2.977-4.562
			c0.25-0.361,0.83-0.694,1.258-0.696c9.563-0.039,19.125-0.043,28.688,0.002c0.458,0.004,1.06,0.397,1.341,0.789
			c1.033,1.443,1.915,2.99,2.95,4.431c0.252,0.35,0.775,0.634,1.222,0.693h14.843c-0.167-0.312-0.269-0.523-0.386-0.708
			c-8.343-12.942-16.679-25.89-25.055-38.807c-0.246-0.379-0.907-0.688-1.378-0.693c-5.215-0.047-10.431-0.013-15.646-0.047
			c-0.764-0.007-1.187,0.261-1.585,0.881c-8.257,12.853-16.535,25.687-24.803,38.53c-0.151,0.234-0.26,0.514-0.417,0.844H238.133z
			 M257.716,164.329c2.85,4.424,5.626,8.735,8.492,13.182c-5.691,0-11.231,0-16.974,0
			C252.079,173.088,254.839,168.798,257.716,164.329z"/>
		<path fill="#FFFFFF" d="M160.396,167.045c0.426,0.607,0.69,0.961,0.929,1.329c5.316,8.167,10.638,16.329,15.928,24.509
			c0.419,0.649,0.915,0.947,1.598,1.051h10.033c0.566-0.093,1.006-0.32,1.379-0.916c5.179-8.252,10.401-16.478,15.614-24.708
			c0.228-0.356,0.494-0.69,0.741-1.035c0.08,0.025,0.161,0.052,0.243,0.077c0,8.866,0,17.734,0,26.576c4.682,0,9.217,0,13.795,0
			c0-13.4,0-26.718,0-40.23c-0.569,0-1.02,0-1.47,0c-5.796,0-11.593,0.034-17.389-0.032c-1.066-0.012-1.628,0.37-2.16,1.215
			c-5.053,8.039-10.137,16.059-15.215,24.079c-0.214,0.338-0.461,0.656-0.765,1.08c-0.364-0.528-0.669-0.954-0.956-1.394
			c-5.205-7.991-10.418-15.978-15.594-23.987c-0.46-0.712-0.931-0.987-1.778-0.983c-5.837,0.036-11.675,0.018-17.513,0.022
			c-0.405,0-0.808,0.032-1.278,0.054c0,13.43,0,26.778,0,40.163c4.621,0,9.184,0,13.858,0
			C160.396,184.994,160.396,176.167,160.396,167.045z"/>
	</g>
</g>
</svg>
